<svg width="318" height="154" viewBox="0 0 318 154" fill="none" xmlns="http://www.w3.org/2000/svg">
<path fill-rule="evenodd" clip-rule="evenodd" d="M21.7003 61.5941V0.744873H0V70.6187L17.206 87.8936H60.6065L65.1008 92.4058V153.255H86.801V83.3813L80.4452 77L86.801 70.6187V0.744873H65.1008V61.5941L60.6065 66.1064H26.1945L21.7003 61.5941Z" fill="#FFB119"/>
<path fill-rule="evenodd" clip-rule="evenodd" d="M252.899 61.5941V0.744873H231.199V70.6187L248.405 87.8936H291.805L296.3 92.4058V153.255H318V83.3813L311.644 77L318 70.6187V0.744873H296.3V61.5941L291.805 66.1064H257.393L252.899 61.5941Z" fill="#FFB119"/>
<path fill-rule="evenodd" clip-rule="evenodd" d="M185.439 0.744873H132.561L115.194 18.0198V70.6187L121.609 77L115.194 83.3813V135.98L132.561 153.255H185.439L202.806 135.98V83.3813L196.391 77L202.806 70.6187V18.0198L185.439 0.744873ZM141.633 22.532L137.097 27.0443V61.5941L148.048 72.4877V81.5122L137.097 92.4058V126.956L141.633 131.468H176.367L180.903 126.956V92.4058L169.951 81.5122V72.4877L180.903 61.5941V27.0443L176.367 22.532H141.633Z" fill="#FFB119"/>
</svg>
