<svg width="865" height="345" viewBox="0 0 865 345" fill="none" xmlns="http://www.w3.org/2000/svg">
<path d="M605.781 253.238C603.674 252.335 601.333 253.538 600.547 255.928C600.53 255.995 600.497 256.095 600.48 256.162L576.869 340.714C576.534 341.884 577.12 343.154 578.156 343.521C579.16 343.889 580.23 343.288 580.598 342.185L608.172 259.186C608.941 256.797 607.888 254.14 605.781 253.238ZM695.628 340.731L672.017 256.179C672 256.112 671.967 256.011 671.95 255.945C671.164 253.555 668.806 252.352 666.716 253.254C664.609 254.157 663.556 256.814 664.342 259.203L691.916 342.201C692.284 343.304 693.354 343.906 694.358 343.538C695.378 343.154 695.963 341.901 695.628 340.731Z" fill="#3D4D66"/>
<path d="M693.789 154.264L685.796 239.703L667.335 257.365H578.29C575.497 257.365 573.24 255.109 573.24 252.319C573.24 249.862 575.012 247.757 577.437 247.339L604.209 240.755C611.767 238.633 618.239 233.57 623.707 226.318L646.8 160.397C648.623 156.654 652.419 154.264 656.582 154.264H693.789Z" fill="#F0F0F8"/>
<path d="M589.978 238.984C606.935 261.71 616.031 284.335 628.59 315.9L627.988 322.818L571.35 251.7L589.978 238.984Z" fill="#915C5C"/>
<path d="M628.59 315.917L626.349 320.779L625.965 333.462L624.092 340.246L627.152 341.65L637.837 320.178L628.59 315.917Z" fill="#61718E"/>
<path d="M619.125 247.322C623.489 275.646 621.282 300.31 617.57 333.462H612.202L596.583 247.306L619.125 247.322Z" fill="#915C5C"/>
<path d="M617.587 333.362H612.57L604.159 339.712L597.219 340.848V344.223H617.587V333.362Z" fill="#61718E"/>
<path d="M579.494 223.093L610.714 216.76H665.512C671.599 229.677 669.324 252.185 655.512 252.185C630.847 252.185 595.095 255.41 569.527 254.223L569.394 234.907C569.343 228.991 573.641 223.945 579.494 223.093Z" fill="#E41414"/>
<path d="M601.918 176.739C605.095 166.964 610.53 139.927 615.563 136.351L623.924 153.329C619.041 166.864 614.092 176.79 606.818 187.267C596.517 191.561 587.52 194.786 577.872 196.624L576.233 192.731C576.25 192.731 595.313 181.502 601.918 176.739Z" fill="#61718E"/>
<path d="M571.066 189.222L563.574 191.912C562.571 192.463 561.451 193.934 561.033 194.953L567.922 194.786L570.464 195.254L568.156 195.939L568.491 197.126L577.872 196.624L577.521 191.895L571.066 189.222Z" fill="#915C5C"/>
<path d="M619.125 187.384C619.125 187.384 615.011 147.681 615.563 136.351C632.436 128.615 644.024 127.445 662.485 136.351C663.104 155.301 654.425 190.425 654.425 190.425L665.529 216.76H610.73L619.125 187.384Z" fill="#8D99AE"/>
<path d="M660.963 156.721L649.107 148.483C644.141 165.694 637.72 179.112 628.472 185.178L619.125 187.384L616.867 195.287C615.747 199.181 646.867 197.192 654.425 190.425C654.408 190.425 658.606 173.431 660.963 156.721Z" fill="#61718E"/>
<path d="M641.716 176.305C641.716 176.305 648.138 161.968 649.559 144.038C650.579 131.221 666.983 131.455 665.395 146.093C663.739 161.383 658.606 170.807 648.957 185.629C640.964 189.038 614.878 195.839 608.507 195.989L607.453 191.895L641.716 176.305Z" fill="#8D99AE"/>
<path d="M600.999 189.222L593.507 191.912C592.504 192.463 591.383 193.934 590.965 194.953L597.855 194.786L600.397 195.254L598.089 195.939L598.423 197.126L608.507 196.006L607.453 191.912L600.999 189.222Z" fill="#915C5C"/>
<path d="M626.75 120.744L632.67 136.218L639.375 130.119L634.442 113.492L626.75 120.744Z" fill="#915C5C"/>
<path d="M620.981 121.129C622.285 123.468 625.529 124.855 628.957 121.864C630.713 120.327 634.141 116.918 634.961 114.729C635.997 111.972 635.195 102.965 635.195 102.965L628.188 95.2115L614.593 100.375C615.312 108.195 617.587 115.046 620.981 121.129Z" fill="#915C5C"/>
<path d="M626.449 104.118C626.449 104.118 618.021 104.669 615.212 104.586C611.65 104.469 609.995 101.862 610.078 97.7013L613.74 97.3003L627.101 93.1395C633.021 91.2178 636.85 94.8773 637.084 102.046L626.449 104.118Z" fill="#37384F"/>
<path d="M647.904 90.9505C647.904 96.8825 643.088 101.695 637.168 101.695C631.249 101.695 626.433 96.8825 626.433 90.9505C626.433 85.0184 631.249 80.2227 637.168 80.2227C643.088 80.2227 647.904 85.0184 647.904 90.9505Z" fill="#37384F"/>
<path d="M637.068 102.029L626.265 102.714C627.737 111.303 635.178 116.183 635.178 116.183C637.101 113.041 638.957 109.849 637.77 106.39C637.318 105.087 637.068 103.65 637.068 102.029Z" fill="#37384F"/>
<path d="M643.004 252.552L569.544 252.168V259.972H631.499C634.225 259.972 636.867 258.485 637.92 255.978C638.823 253.789 640.596 252.552 643.004 252.552Z" fill="#E41414"/>
<path d="M693.789 154.264C695.144 154.264 696.247 155.367 696.264 156.721L696.398 238.767C696.398 248.091 684.859 257.365 674.642 257.365H638.004C640.312 249.712 645.998 243.529 653.422 240.588C653.422 240.588 676.281 233.035 683.254 226.502C684.375 225.449 685.027 223.995 685.144 222.458L691.331 156.504C691.448 155.234 692.501 154.264 693.789 154.264Z" fill="white"/>
<path d="M595.363 202.774H539.461C538.558 202.774 537.839 202.038 537.839 201.153L528.491 162.319C528.291 161.416 528.842 160.698 529.745 160.698H585.647C586.55 160.698 587.436 161.433 587.654 162.319L597.001 201.153C597.001 202.038 596.266 202.774 595.363 202.774Z" fill="#8CADFF"/>
<path d="M527.053 160.681H582.955C583.858 160.681 584.744 161.416 584.962 162.302L594.309 200.083H609.025V201.136C609.025 202.038 608.289 202.757 607.403 202.757H592.687H538.123H536.786C535.883 202.757 535.164 202.022 535.164 201.136L525.816 162.302C525.599 161.416 526.167 160.681 527.053 160.681Z" fill="#CCDBFF"/>
<path d="M594.326 200.1V201.153C594.326 202.055 595.062 202.773 595.948 202.773H625.095C625.998 202.773 626.717 202.038 626.717 201.153V200.1H594.326Z" fill="#8CADFF"/>
<path d="M812.465 260.394L840.039 343.392C840.407 344.495 841.477 345.097 842.481 344.729C843.518 344.362 844.086 343.108 843.768 341.922L820.157 257.37C820.14 257.303 820.107 257.202 820.09 257.136C819.304 254.746 816.946 253.543 814.856 254.445C812.749 255.348 811.679 258.005 812.465 260.394ZM743.002 344.746C744.005 345.113 745.075 344.512 745.443 343.409L773.018 260.411C773.803 258.021 772.75 255.364 770.643 254.462C768.536 253.56 766.195 254.763 765.409 257.152C765.392 257.219 765.359 257.319 765.342 257.386L741.731 341.939C741.396 343.108 741.965 344.362 743.002 344.746Z" fill="#F0F0F8"/>
<path d="M857.882 155.472C861.945 155.472 865.022 159.165 864.27 163.159L849.705 240.91C847.531 251.204 838.434 258.573 827.899 258.573H745.543C742.751 258.573 740.493 256.317 740.493 253.526C740.493 251.07 742.266 248.964 744.69 248.547L803.201 238.537C810.625 237.267 816.896 232.338 819.889 225.437L852.046 159.132C853.116 156.893 855.39 155.472 857.882 155.472Z" fill="#F0F0F8"/>
<path d="M723.404 218.953C722.501 225.52 726.748 231.686 733.219 233.14C763.469 239.958 798.602 246.508 815.926 249.015C821.679 249.85 827.097 246.14 828.317 240.459L832.481 221.493L803.285 215.294L737.45 208.008C730.577 207.256 724.34 212.102 723.404 218.953Z" fill="#899AB3"/>
<path d="M740.343 219.588L793.184 220.975L742.466 225.721L740.343 219.588Z" fill="#7F8FA6"/>
<path d="M802.031 220.156L739.774 225.988C735.845 226.69 733.002 230.099 733.035 234.092L725.661 334.503H731.129C743.353 300.966 751.446 279.31 754.323 250.736C771.73 251.153 818.535 251.488 833.485 250.518C839.287 250.134 843.819 245.388 843.819 239.573L843.953 220.156H802.031Z" fill="#899AB3"/>
<path d="M742.466 225.721L754.272 251.087C754.289 250.97 754.305 250.836 754.322 250.719C757.8 250.803 762.449 250.886 767.767 250.953L753.72 224.668L742.466 225.721Z" fill="#7F8FA6"/>
<path d="M751.58 226.373C762.65 245.589 769.389 264.939 779.071 292.176L774.673 295.435L725.076 227.241L731.848 222.228C738.353 217.433 747.567 219.388 751.58 226.373Z" fill="#899AB3"/>
<path d="M779.088 292.176L774.69 295.435L771.161 305.21L766.111 310.407L767.917 313.331L784.589 300.982L779.088 292.176Z" fill="#01A39D"/>
<path d="M731.129 334.486H725.661L716.999 340.251L709.842 341.421L709.558 344.223H730.31L731.129 334.486Z" fill="#01A39D"/>
<path d="M807.365 197.047C814.421 182.843 821.378 163.476 824.588 144.276C825.491 138.862 821.913 133.716 816.528 132.613C811.177 131.527 805.91 134.819 804.589 140.099C800.509 156.408 797.917 174.755 796.479 189.159L807.365 197.047Z" fill="#177571"/>
<path d="M801.077 186.018L752.717 193.838L753.453 198.55C764.975 201.257 793.787 204.833 807.365 197.03L801.077 186.018Z" fill="#177571"/>
<path d="M754.255 193.855L746.095 190.479L739.156 192.585L736.748 196.328L741.564 195.376L753.453 198.567L754.255 193.855Z" fill="#DBB99A"/>
<path d="M806.027 192.451C806.027 180.303 806.796 154.252 807.365 139.631C807.515 135.788 809.907 132.362 813.485 130.925C825.826 125.979 834.772 125.327 848.083 130.608C852.063 132.195 854.638 136.139 854.32 140.416C852.782 161.772 843.334 195.66 843.334 195.66L844.789 220.156H802.683L806.027 192.451Z" fill="#01A39D"/>
<path d="M821.913 190.479L805.927 193.37L804.087 208.576C815.425 208.576 826.211 206.705 832.431 201.759C840.006 188.959 844.672 167.771 849.036 145.714L821.913 190.479Z" fill="#177571"/>
<path d="M821.395 115.97L821.461 133.265L834.103 127.049L830.725 111.091L821.395 115.97Z" fill="#DBB99A"/>
<path d="M815.307 117.039C815.726 119.746 818.802 121.668 823.501 118.844L830.658 112.227L832.448 100.045L826.177 91.072L811.395 94.6479L815.307 117.039Z" fill="#DBB99A"/>
<path d="M825.308 88.766L810.893 91.3393L807.047 91.2892C806.01 96.0683 807.432 98.7251 811.478 99.1262L823.217 100.112C824.02 104.574 825.642 106.328 826.194 105.175C826.913 103.671 827.582 102.368 828.502 102.568C829.421 102.769 830.124 104.323 829.522 105.894C828.033 109.77 830.96 113.38 830.96 113.38C833.117 112.16 833.05 110.873 833.351 108.434L834.505 99.3267C835.207 91.8574 831.712 87.5462 825.308 88.766Z" fill="#824E23"/>
<path d="M827.883 197.047C835.993 183.411 844.387 164.629 849.036 145.73C850.357 140.4 847.163 134.986 841.879 133.499C836.628 132.011 831.127 134.902 829.404 140.066C824.103 156.024 820.14 174.12 817.615 188.374L827.883 197.047Z" fill="#01A39D"/>
<path d="M821.595 186.018L773.235 193.838L773.971 198.55C785.493 201.257 814.305 204.833 827.883 197.03L821.595 186.018Z" fill="#01A39D"/>
<path d="M774.774 193.855L766.613 190.479L759.674 192.585L757.266 196.328L762.082 195.376L773.971 198.567L774.774 193.855Z" fill="#DBB99A"/>
<path d="M194.018 253.238C191.911 252.335 189.57 253.538 188.784 255.928C188.767 255.995 188.734 256.095 188.717 256.162L165.105 340.714C164.771 341.884 165.356 343.154 166.393 343.522C167.396 343.889 168.467 343.288 168.834 342.185L196.409 259.186C197.178 256.797 196.125 254.14 194.018 253.238ZM283.865 340.731L260.254 256.179C260.237 256.112 260.204 256.011 260.187 255.945C259.401 253.555 257.043 252.352 254.953 253.254C252.846 254.157 251.792 256.814 252.578 259.203L280.153 342.201C280.521 343.304 281.591 343.906 282.594 343.538C283.614 343.154 284.2 341.901 283.865 340.731Z" fill="#3D4D66"/>
<path d="M150.975 154.265L184.854 239.703C187.028 249.996 196.125 257.365 206.659 257.365H289.015C291.808 257.365 294.065 255.109 294.065 252.319C294.065 249.862 292.293 247.757 289.868 247.339L251.391 240.755C243.966 239.485 232.344 233.57 226.876 226.318L183.717 160.38C181.894 156.637 178.098 154.248 173.934 154.248H150.975V154.265Z" fill="#F0F0F8"/>
<path d="M237.98 218.949L300.236 224.781C304.165 225.482 307.008 228.891 306.975 232.885L314.349 333.295H308.881C296.657 299.758 288.564 278.102 285.687 249.528C268.28 249.946 247.394 250.28 232.445 249.311C226.642 248.926 222.11 244.181 222.11 238.366L221.977 218.949H237.98Z" fill="#434343"/>
<path d="M281.925 233.102L281.825 248.977C264.635 249.21 228.348 250.765 205.69 249.294C199.887 248.91 195.355 244.164 195.355 238.349L195.222 218.932H237.328L275.17 224.998C279.099 225.716 281.942 229.125 281.925 233.102Z" fill="#434343"/>
<path d="M258.865 248.993C259.986 277.835 266.825 299.524 277.126 333.278H282.594L281.825 248.993H258.865Z" fill="#434343"/>
<path d="M277.126 333.278H282.594L291.256 339.043L298.413 340.213L299.032 344.223H278.129L277.126 333.278Z" fill="#2CB0DA"/>
<path d="M308.898 333.278H314.366L323.028 339.043L330.185 340.213L330.804 344.223H309.901L308.898 333.278Z" fill="#2CB0DA"/>
<path d="M229.92 136.017H246.207C250.471 141.147 249.484 171.091 247.762 190.408L283.581 195.304L283.045 199.95C271.842 203.074 249.15 206.901 235.505 199.799C235.505 199.816 229.1 157.506 229.92 136.017Z" fill="#1BA9D6"/>
<path d="M283.58 195.304L292.209 194.335L298.179 198.212L299.433 202.389L295.135 200.183L283.062 199.966L283.58 195.304Z" fill="#915C5C"/>
<path d="M239.585 193.951C239.585 180.065 246.776 147.631 246.207 136.001C228.85 128.047 202.713 126.86 183.75 136.001C183.115 155.484 194.72 197.092 194.72 197.092L193.299 221.154H242.863L239.585 193.951Z" fill="#54C0E2"/>
<path d="M194.72 197.092L194.017 208.873C193.566 216.359 231.124 212.048 240.638 202.707L240.087 198.178L212.579 195.856C205.171 191.21 202.93 176.405 202.011 159.01L187.931 168.869C191.041 183.891 194.72 197.092 194.72 197.092Z" fill="#1BA9D6"/>
<path d="M222.027 118.839L224.084 135.833L210.907 129.734L212.261 114.06L222.027 118.839Z" fill="#915C5C"/>
<path d="M227.177 121.129C226.608 123.752 223.465 125.457 219.05 122.399L212.428 115.481L211.425 103.433L218.097 95.011L232.377 99.4225L227.177 121.129Z" fill="#915C5C"/>
<path d="M223.13 100.141C224.201 100.275 224.953 101.261 224.803 102.33L224.485 104.536C229.234 105.221 233.515 105.388 234.067 100.592C234.368 97.8851 232.394 95.4455 229.719 94.9108L219.084 92.8053C212.88 91.2346 207.846 94.3092 207.244 101.645C206.943 105.338 207.479 113.542 206.542 117.118C205.639 120.594 207.963 122.633 211.642 121.363C216.793 119.591 219.468 108.212 221.04 101.578C221.258 100.642 222.16 100.007 223.13 100.141Z" fill="#37384F"/>
<path d="M219 106.925L217.194 108.195C216.09 112.54 215.254 117.302 214.602 122.315L221.893 124.955C225.956 126.342 228.264 125.624 228.264 122.867L227.996 117.686L219.451 116.316L219 106.925Z" fill="#37384F"/>
<path d="M189.335 199.816C189.335 199.816 177.948 141.682 183.75 136.017C189.285 133.711 200.037 137.638 201.041 141.548C202.195 158.743 202.078 174.333 201.894 191.127L189.335 199.816Z" fill="#54C0E2"/>
<path d="M201.359 190.391L237.411 195.388L236.876 200.033C225.672 203.124 202.964 206.918 189.335 199.799L201.359 190.391Z" fill="#54C0E2"/>
<path d="M236.976 195.371L245.471 193.6L251.775 196.892L253.414 200.952L248.933 199.147L236.876 200.05L236.976 195.371Z" fill="#915C5C"/>
<path d="M150.975 154.265C146.912 154.265 143.835 157.957 144.587 161.951L159.152 239.703C161.326 249.996 170.423 257.365 180.958 257.365H229.301C226.994 249.712 221.308 243.529 213.883 240.588C213.883 240.588 185.289 231.13 182.296 224.246L156.828 157.924C155.741 155.685 153.467 154.265 150.975 154.265Z" fill="white"/>
<path d="M268.698 202.707H324.6C325.503 202.707 326.222 201.971 326.222 201.086L335.57 162.252C335.77 161.35 335.219 160.631 334.316 160.631H278.414C277.511 160.631 276.625 161.366 276.407 162.252L267.06 201.086C267.076 201.971 267.795 202.707 268.698 202.707Z" fill="#8CADFF"/>
<path d="M337.008 160.631H281.106C280.203 160.631 279.317 161.366 279.1 162.252L269.752 200.033H255.037V201.086C255.037 201.988 255.772 202.707 256.659 202.707H271.374H325.938H327.276C328.179 202.707 328.898 201.971 328.898 201.086L338.245 162.252C338.463 161.35 337.911 160.631 337.008 160.631Z" fill="#CCDBFF"/>
<path d="M269.752 200.033V201.086C269.752 201.988 269.016 202.707 268.13 202.707H238.983C238.08 202.707 237.361 201.971 237.361 201.086V200.033H269.752Z" fill="#8CADFF"/>
<path d="M251.241 202.773H225.689V344.223H251.241V202.773Z" fill="#3D4D66"/>
<path d="M811.562 202.189H786.479V344.223H811.562V202.189Z" fill="#3D4D66"/>
<path d="M811.88 202.773H225.689V218.949H811.88V202.773Z" fill="#60718D"/>
<path d="M517.338 146.344H495.549V146.595C493.977 147.163 492.84 148.65 492.84 150.421V192.012C492.84 196.156 489.479 199.515 485.332 199.515H473.075V203.592H509.83C516.218 203.592 521.401 198.412 521.401 192.029V150.421C521.418 148.165 519.595 146.344 517.338 146.344Z" fill="#CCDBFF"/>
<path d="M509.83 203.592H497.573V199.515H509.83C513.977 199.515 517.338 196.156 517.338 192.012V150.421C517.338 148.165 519.161 146.344 521.418 146.344V192.012C521.418 198.412 516.235 203.592 509.83 203.592Z" fill="#8CADFF"/>
<path d="M440.885 184.961H563.407C565.113 184.961 566.501 183.574 566.501 181.869V102.848C566.501 101.144 565.113 99.7566 563.407 99.7566H440.885C439.179 99.7566 437.792 101.144 437.792 102.848V181.869C437.808 183.574 439.179 184.961 440.885 184.961Z" fill="#8CADFF"/>
<path d="M437.54 185.111H560.063C561.768 185.111 563.156 183.724 563.156 182.02V102.998C563.156 101.294 561.768 99.907 560.063 99.907H437.54C435.835 99.907 434.447 101.294 434.447 102.998V182.02C434.463 183.724 435.835 185.111 437.54 185.111Z" fill="#CCDBFF"/>
<path d="M559.961 181.605V103.101L437.957 103.101V181.605L559.961 181.605Z" fill="#37384F"/>
<path d="M491.051 195.922H431.42C431.32 195.939 431.22 195.939 431.119 195.956L408.494 199.498C407.491 199.649 406.755 200.518 406.755 201.537C406.755 202.673 407.675 203.592 408.812 203.592H491.051C492.155 203.542 493.041 202.64 493.041 201.537V197.994C493.024 196.841 492.138 195.956 491.051 195.922Z" fill="#CCDBFF"/>
<path d="M490.65 195.939L468.025 199.482C467.021 199.632 466.286 200.501 466.286 201.52C466.286 202.657 467.205 203.576 468.342 203.576H490.967C492.104 203.576 493.024 202.657 493.024 201.52V197.978C493.024 196.708 491.904 195.739 490.65 195.939Z" fill="#8CADFF"/>
<path d="M528.442 141.013H469.162V141.966H528.442V141.013Z" fill="#CCDBFF"/>
<path d="M514.897 120.477H482.724V121.429H514.897V120.477Z" fill="#CCDBFF"/>
<path d="M511.552 122.833H487.74V123.786H511.552V122.833Z" fill="#CCDBFF"/>
<path d="M528.442 144.222H469.162V145.174H528.442V144.222Z" fill="#CCDBFF"/>
<path d="M528.442 147.447H469.162V148.399H528.442V147.447Z" fill="#CCDBFF"/>
<path d="M528.442 150.655H469.162V151.608H528.442V150.655Z" fill="#CCDBFF"/>
<path d="M528.442 154.047H469.162V155H528.442V154.047Z" fill="#CCDBFF"/>
<path d="M528.442 157.256H469.162V158.208H528.442V157.256Z" fill="#CCDBFF"/>
<path d="M528.442 160.481H469.162V161.433H528.442V160.481Z" fill="#CCDBFF"/>
<path d="M528.442 163.689H469.162V164.641H528.442V163.689Z" fill="#CCDBFF"/>
<path d="M529.545 133.143H468.075V137.321H529.545V133.143Z" fill="#CCDBFF"/>
<path d="M559.795 103.099H437.942V111.387H559.795V103.099Z" fill="#DFE1E5"/>
<path d="M456.369 105.622H440.918V108.245H456.369V105.622Z" fill="#37384F"/>
<path d="M504.98 105.889H489.529V108.513H504.98V105.889Z" fill="#37384F"/>
<path d="M535.147 107.009H523.943V107.744H535.147V107.009Z" fill="#37384F"/>
<path d="M547.454 107.009H536.25V107.744H547.454V107.009Z" fill="#37384F"/>
<path d="M554.444 109.632C555.793 109.632 556.886 108.54 556.886 107.193C556.886 105.845 555.793 104.753 554.444 104.753C553.096 104.753 552.003 105.845 552.003 107.193C552.003 108.54 553.096 109.632 554.444 109.632Z" fill="#37384F"/>
<path d="M411.404 248.993C408.177 277.835 411.354 299.524 416.555 333.278H422.023L434.364 248.993H411.404Z" fill="#333333"/>
<path d="M416.622 333.278H422.09L430.283 339.043L437.357 340.213V344.223H416.622V333.278Z" fill="#FFB119"/>
<path d="M436.253 234.004L434.363 248.993C417.173 249.227 398.394 250.781 375.736 249.311C369.934 248.926 365.402 244.181 365.402 238.366L365.268 218.949L389.097 218.13L429.497 224.931C433.812 225.649 436.805 229.66 436.253 234.004Z" fill="#37384F"/>
<path d="M478.727 233.102L478.627 248.977C461.437 249.21 425.936 250.765 403.278 249.294C397.475 248.91 392.943 244.164 392.943 238.349L392.81 218.932L416.638 218.113L471.988 224.998C475.901 225.716 478.744 229.125 478.727 233.102Z" fill="#333333"/>
<path d="M455.667 248.993C456.788 277.835 463.627 299.524 473.928 333.278H479.396L478.627 248.993H455.667Z" fill="#333333"/>
<path d="M473.928 333.278H479.396L488.058 339.043L495.215 340.213V344.223H474.463L473.928 333.278Z" fill="#FFB119"/>
<path d="M393.328 114.411L395.251 129.734L383.094 131.99L383.546 109.666L393.328 114.411Z" fill="#F4ACC8"/>
<path d="M399.515 116.383C399.047 119.023 396.003 120.861 391.438 118.004L384.532 111.37L383.194 100.96C383.061 99.9404 383.328 98.9044 383.93 98.0689L385.736 95.5791C387.877 92.6214 391.639 91.2679 395.167 92.2037L400.067 93.4904C402.14 94.0251 403.428 96.0804 403.027 98.1859L399.515 116.383Z" fill="#F4ACC8"/>
<path d="M395.485 99.3723L402.91 98.8877C404.281 87.1406 390.201 88.444 390.201 88.444C383.93 87.1406 376.506 91.3515 376.773 98.7039C376.924 103.032 377.96 105.271 379.064 106.424C380.803 108.245 381.74 110.685 381.957 113.191C382.074 114.478 382.392 115.581 383.245 116.082H388.194C391.639 116.082 395.017 106.942 395.485 99.3723Z" fill="#945561"/>
<path d="M412.408 191.244C412.408 177.107 419.732 144.088 419.163 132.241C404.966 125.741 385 123.669 367.676 127.946C360.235 129.784 355.385 136.953 356.272 144.573C358.747 165.778 366.74 194.452 366.74 194.452L365.285 218.949H415.752L412.408 191.244Z" fill="#FFB119"/>
<path d="M417.04 153.997L408.093 146.06C406.605 163.154 406.421 178.11 413.043 181.819C413.963 173.581 415.652 163.338 417.04 153.997Z" fill="#FFB95D"/>
<path d="M425.2 188.587C418.093 181.936 410.418 161.466 403.812 138.54L419.163 132.257C428.126 147.881 435.233 166.613 441.521 184.693L425.2 188.587Z" fill="#FFB119"/>
<path d="M439.113 181.234L474.229 192.263L472.908 196.841C461.136 198.061 437.691 198.028 425.217 188.57L439.113 181.234Z" fill="#FFB119"/>
<path d="M472.891 196.858L481.252 195.722L486.47 197.543L486.536 195.889C486.62 193.967 485.55 192.163 483.827 191.31L481.052 189.94L486.52 189.823L487.122 188.62L478.292 188.553L472.808 192.079L472.891 196.858Z" fill="#F4ACC8"/>
<path d="M388.278 253.238C386.171 252.335 383.83 253.538 383.044 255.928C383.027 255.995 382.993 256.095 382.977 256.162L359.365 340.714C359.031 341.884 359.616 343.154 360.653 343.521C361.656 343.889 362.726 343.287 363.094 342.185L390.669 259.186C391.455 256.797 390.385 254.14 388.278 253.238ZM461.403 340.731L437.792 256.178C437.775 256.112 437.741 256.011 437.725 255.945C436.939 253.555 434.581 252.352 432.491 253.254C430.384 254.157 429.33 256.813 430.116 259.203L457.691 342.201C458.059 343.304 459.129 343.906 460.132 343.538C461.152 343.154 461.737 341.901 461.403 340.731Z" fill="#F0F0F8"/>
<path d="M446.186 224.229L435.869 182.304C431.822 165.844 417.04 154.264 400.067 154.264H360.954C353.964 154.264 348.279 159.912 348.228 166.897L347.911 213.401C347.861 220.519 349.55 227.538 352.827 233.837C360.352 248.291 375.285 257.365 391.589 257.365H451.219C455.35 257.365 458.694 254.023 458.694 249.896C458.694 248.692 458.393 247.489 457.841 246.42L446.186 224.229Z" fill="#F0F0F8"/>
<path d="M429.849 257.348C379.381 252.937 356.138 245.133 348.178 173.615L347.911 212.816C347.877 216.877 348.278 220.954 349.349 224.864C354.616 244.431 372.141 257.365 391.605 257.365H429.849V257.348Z" fill="#E6EBF2"/>
<path d="M734.958 158.292H709.992L722.249 201.036C722.55 202.072 723.487 202.774 724.557 202.774H749.724L734.958 158.292Z" fill="#CCDBFF"/>
<path d="M748.771 202.773H783.569C784.288 202.773 784.873 202.189 784.873 201.47C784.873 200.752 784.288 200.167 783.569 200.167H748.771C748.052 200.167 747.466 200.752 747.466 201.47C747.466 202.189 748.052 202.773 748.771 202.773Z" fill="#8CADFF"/>
<path d="M736.63 158.292H734.155L747.466 201.47L750.944 201.103L736.63 158.292Z" fill="#8CADFF"/>
<path d="M709.809 202.773H698.672L696.314 178.31H712.15L709.809 202.773Z" fill="#C9C3D9"/>
<path d="M712.083 178.31H696.381C695.377 178.31 694.558 177.491 694.558 176.489C694.558 175.486 695.377 174.667 696.381 174.667H712.083C713.086 174.667 713.906 175.486 713.906 176.489C713.906 177.508 713.086 178.31 712.083 178.31Z" fill="white"/>
<path d="M710.728 193.098L711.598 184.075H696.866L697.735 193.098H710.728Z" fill="white"/>
<path d="M709.24 188.587C709.24 191.344 706.999 193.583 704.24 193.583C701.481 193.583 699.24 191.344 699.24 188.587C699.24 185.83 701.481 183.59 704.24 183.59C706.999 183.59 709.24 185.83 709.24 188.587Z" fill="#C9C3D9"/>
<path d="M707.685 188.587C707.685 190.492 706.146 192.029 704.24 192.029C702.334 192.029 700.795 190.492 700.795 188.587C700.795 186.682 702.334 185.144 704.24 185.144C706.146 185.128 707.685 186.682 707.685 188.587Z" fill="white"/>
<path d="M311.574 200.651H303.146L299.166 192.23H315.554L311.574 200.651Z" fill="white"/>
<path d="M315.035 202.774H299.684C298.514 202.774 297.561 201.821 297.561 200.651H317.159C317.159 201.821 316.206 202.774 315.035 202.774Z" fill="white"/>
<path d="M315.085 198.964H307.543V194.502H315.085C316.323 194.502 317.326 195.505 317.326 196.741C317.326 197.978 316.323 198.964 315.085 198.964Z" fill="white"/>
<path opacity="0.1" d="M177.881 210.627L53.519 240.07L63.7696 77.3653L95.6753 69.8124L177.881 210.627Z" fill="#FFB119"/>
<path d="M78.1508 40.336L64.2548 43.8785L60.0408 27.3858C59.0542 23.5592 61.3786 19.6491 65.2079 18.6799C69.0373 17.694 72.9502 20.0167 73.9201 23.8433L78.1508 40.336Z" fill="#474866"/>
<path d="M100.591 68.3921C97.3641 55.7426 88.9195 45.8837 78.1505 40.336L64.2545 43.8785C57.4654 53.9045 54.7899 66.6041 58.0172 79.2535L100.591 68.3921Z" fill="#474866"/>
<path d="M100.659 68.6427C101.21 70.8484 92.1136 74.9925 80.3413 77.9334C68.569 80.8744 58.5859 81.4592 58.0341 79.2702C57.4823 77.0645 66.579 72.9204 78.3513 69.9795C90.1236 67.0385 100.107 66.437 100.659 68.6427Z" fill="white"/>
<path d="M42.2319 221.388C41.4794 221.388 40.7938 220.887 40.6099 220.118L9.17247 94.0919C-0.509579 55.2914 23.2022 15.8559 62.0308 6.1808C62.917 5.96357 63.8368 6.49829 64.0541 7.40063C64.2715 8.30297 63.7364 9.2053 62.8334 9.42253C25.7942 18.6631 3.16927 56.2773 12.4165 93.2898L43.8707 219.316C44.0881 220.219 43.553 221.121 42.65 221.338C42.4995 221.372 42.3657 221.388 42.2319 221.388Z" fill="#474866"/>
<path d="M65.5422 21.9383C64.7897 21.9383 64.1041 21.437 63.9202 20.6684L59.2715 2.0702C59.0541 1.16786 59.5892 0.265523 60.4922 0.048294C61.3952 -0.168935 62.2982 0.365783 62.5155 1.26812L67.1643 19.8663C67.3817 20.7686 66.8466 21.671 65.9436 21.8882C65.8098 21.9216 65.676 21.9383 65.5422 21.9383Z" fill="#474866"/>
<path d="M42.2318 343.638C41.3121 343.638 40.5596 342.886 40.5596 341.967V219.734C40.5596 218.815 41.3121 218.063 42.2318 218.063C43.1515 218.063 43.904 218.815 43.904 219.734V341.967C43.904 342.886 43.1515 343.638 42.2318 343.638Z" fill="#474866"/>
<path d="M82.2476 343.638C81.4616 343.638 80.7593 343.07 80.6088 342.268L61.4621 237.43C59.7732 228.139 51.6797 221.405 42.2318 221.405C32.7838 221.405 24.6904 228.139 23.0014 237.43L3.85473 342.268C3.68751 343.171 2.81796 343.789 1.91498 343.605C1.01199 343.438 0.409994 342.569 0.577214 341.667L19.7239 236.828C21.7138 225.95 31.1785 218.063 42.2485 218.063C53.3185 218.063 62.7831 225.95 64.773 236.828L83.9198 341.667C84.087 342.569 83.485 343.438 82.582 343.605C82.4482 343.622 82.3479 343.638 82.2476 343.638Z" fill="#474866"/>
<path d="M639.088 30.8943L626.434 44.4426L624 58.4749L633.735 66.7007L647.363 69.6039V75.8943L652.23 71.0555H666.832L679 61.3781V46.3781L665.858 30.8943H639.088Z" fill="#F0F0F0"/>
<path d="M653.813 41.935L654.347 44.5567H661.333V52.4217H656.853L656.32 49.8H646.667V41.935H653.813ZM656 39.3134H644V61.5975H646.667V52.4217H654.133L654.667 55.0434H664V41.935H656.533L656 39.3134Z" fill="#8D99AE"/>
<path d="M396.186 38.8943L408.611 52.1416L411 65.862L401.442 73.905L388.062 76.7437V82.8943L383.283 78.1631H368.947L357 68.7007V54.034L369.903 38.8943H396.186Z" fill="#F0F0F0"/>
<path d="M233.156 35.8943L250.947 43.8365L254 61.7084L241.788 72.1851H224.69V83.8943L212.312 72.1851L202.969 69.5659L185 65.4061V46.3016L200.265 35.8943H233.156Z" fill="#F0F0F0"/>
<path fill-rule="evenodd" clip-rule="evenodd" d="M228.586 60.8943H233.414L235 59.3085V54.48L233.414 52.8943H229.414L229 52.48V49.3085L229.414 48.8943H232.586L233 49.3085V50.8943H235V48.48L233.414 46.8943H228.586L227 48.48V53.3085L227.586 53.8943L227 54.48V59.3085L228.586 60.8943ZM229.414 54.8943H232.586L233 55.3085V58.48L232.586 58.8943H229.414L229 58.48V55.3085L229.414 54.8943Z" fill="#8D99AE"/>
<path fill-rule="evenodd" clip-rule="evenodd" d="M243.414 60.8943L238.586 60.8943L237 59.3085L237 56.8943L239 56.8943L239 58.48L239.414 58.8943L242.586 58.8943L243 58.48L243 55.3085L242.586 54.8943L241 54.8943L241 52.8943L242.586 52.8943L243 52.48L243 49.3085L242.586 48.8943L239.414 48.8943L239 49.3085L239 50.8943L237 50.8943L237 48.48L238.586 46.8943L243.414 46.8943L245 48.48L245 53.3085L244.414 53.8943L245 54.48L245 59.3085L243.414 60.8943Z" fill="#8D99AE"/>
<path fill-rule="evenodd" clip-rule="evenodd" d="M194.991 52.8943H198.009L199 53.8004V55.18H197.75V54.2738L197.491 54.0371H195.509L195.25 54.2738V56.0861L195.509 56.3228H198.009L199 57.229V59.9881L198.009 60.8943H194.991L194 59.9881V58.6085H195.25V59.5147L195.509 59.7514H197.491L197.75 59.5147V57.7024L197.491 57.4657H194.991L194 56.5595V53.8004L194.991 52.8943Z" fill="#8D99AE"/>
<path fill-rule="evenodd" clip-rule="evenodd" d="M192.207 52.8943H189.793L189 53.8004V60.8943H190V57.4657H190.293L192 59.4167V60.8943H193V58.9433L191.707 57.4657H192.207L193 56.5595V53.8004L192.207 52.8943ZM190.207 54.0371L190 54.2738V56.3228H191.793L192 56.0861V54.2738L191.793 54.0371H190.207Z" fill="#8D99AE"/>
<path fill-rule="evenodd" clip-rule="evenodd" d="M203.784 46.8943H209.216L211 48.48V53.3085L209.216 54.8943H204.716L204.25 55.3085V58.48L204.716 58.8943H208.284L208.75 58.48V56.8943H211V59.3085L209.216 60.8943H203.784L202 59.3085V54.48L203.784 52.8943H208.284L208.75 52.48V49.3085L208.284 48.8943H204.716L204.25 49.3085V50.8943H202V48.48L203.784 46.8943Z" fill="#8D99AE"/>
<path fill-rule="evenodd" clip-rule="evenodd" d="M218.586 46.8943H223.414L225 48.48V53.3085L223.414 54.8943H219.414L219 55.3085V58.48L219.414 58.8943H222.586L223 58.48V56.8943H225V59.3085L223.414 60.8943H218.586L217 59.3085V54.48L218.586 52.8943H222.586L223 52.48V49.3085L222.586 48.8943H219.414L219 49.3085V50.8943H217V48.48L218.586 46.8943Z" fill="#8D99AE"/>
<path d="M394.071 50.8786L394.084 50.8656L389.349 46.0509L388 47.4229L390.685 50.1538C389.489 50.6197 388.636 51.7846 388.636 53.1695C388.636 54.9556 390.062 56.4052 391.818 56.4052C392.276 56.4052 392.696 56.3016 393.091 56.1334V65.4651C393.091 66.177 392.518 66.7594 391.818 66.7594C391.118 66.7594 390.545 66.177 390.545 65.4651V59.6409C390.545 58.2172 389.4 57.0523 388 57.0523H386.727V47.9923C386.727 46.5686 385.582 45.4038 384.182 45.4038H376.545C375.145 45.4038 374 46.5686 374 47.9923V68.7008H386.727V58.9937H388.636V65.4651C388.636 67.2512 390.062 68.7008 391.818 68.7008C393.575 68.7008 395 67.2512 395 65.4651V53.1695C395 52.2764 394.644 51.461 394.071 50.8786ZM384.182 58.9937V66.1123H376.545V57.0523H384.182V58.9937ZM384.182 54.4637H376.545V47.9923H384.182V54.4637ZM391.818 54.4637C391.118 54.4637 390.545 53.8813 390.545 53.1695C390.545 52.4576 391.118 51.8752 391.818 51.8752C392.518 51.8752 393.091 52.4576 393.091 53.1695C393.091 53.8813 392.518 54.4637 391.818 54.4637Z" fill="#8D99AE"/>
<rect x="213" y="58.8943" width="2" height="2" fill="#8D99AE"/>
</svg>
