<svg width="414" height="209" viewBox="0 0 414 209" fill="none" xmlns="http://www.w3.org/2000/svg">
<path d="M565.744 11.5751L594.235 47.2303L607.463 90.4487H577.954H541.323L513.85 100.173L473.149 82.8855L430.412 100.173L393.781 82.8855L381.571 61.2763L393.781 33.1843L417.185 0.770508L441.605 20.2188L513.85 26.7015L541.323 11.5751H565.744Z" fill="#F8F8F8"/>
<path d="M77.8387 34.2648L69.1897 58.0349L73.7686 68.8395L88.014 72.0809L111.926 93.1499L134.312 80.7246L173.995 93.1499L193.328 83.4257L187.223 58.0349L173.995 38.0464L140.417 42.3683L111.926 31.0234H101.242L77.8387 34.2648Z" fill="#F8F8F8"/>
<path d="M-134.798 142.796H-174V208.219H559.13V142.796H528.583V74.457H498.036V120.161H486.326V55.3335H426.759V142.796H388.576V116.627H362.61V142.796H327.481V93.9808H294.389V142.796H253.659V72.8443H205.293V142.796H171.182V84.9223H134.016V142.796H100.415V127.699H77.5043V142.796H36.2658V107.065H8.26428V142.796H-12.1004V74.457H-67.5943V141.64H-100.687V96.9698H-134.798V142.796Z" fill="#E5EBF9"/>
<rect x="-8.14282" y="172.563" width="100.735" height="7.02299" fill="#CEDAF5"/>
<rect x="114.979" y="172.563" width="100.735" height="7.02299" fill="#CEDAF5"/>
<rect x="238.1" y="172.563" width="100.735" height="7.02299" fill="#CEDAF5"/>
<rect x="361.22" y="172.563" width="100.735" height="7.02299" fill="#CEDAF5"/>
</svg>
