<svg width="1440" height="435" viewBox="0 0 1440 435" fill="none" xmlns="http://www.w3.org/2000/svg">
<g opacity="0.5">
<path d="M1454 64L1510 130L1536 210H1478H1406L1352 228L1272 196L1188 228L1116 196L1092 156L1116 104L1162 44L1210 80L1352 92L1406 64H1454Z" fill="#F8F8F8"/>
<path d="M495 106L478 150L487 170L515 176L562 215L606 192L684 215L722 197L710 150L684 113L618 121L562 100H541L495 106Z" fill="#F8F8F8"/>
<path d="M253 109L270 65L261 45L233 39L186 -7.34351e-06L142 23L64 -1.80091e-05L26 18L38 65L64 102L130 94L186 115L207 115L253 109Z" fill="#F8F8F8"/>
<path d="M77.0535 306.899H0V428H1441V306.899H1380.96V180.399H1320.92V265H1297.9V145H1180.82V306.899H1105.77V258.458H1054.73V306.899H985.684V216.539H920.639V306.899H840.583V177.414H745.517V306.899H678.471V199.771H605.42V306.899H539.374V278.952H494.343V306.899H413.287V240.759H358.249V306.899H318.221V180.399H209.145V304.759H144.1V222.071H77.0535V306.899Z" fill="#E5EBF9"/>
<rect x="1" y="367" width="1440" height="68" fill="#DAE3F7"/>
<rect x="84" y="362" width="198" height="13" fill="#CEDAF5"/>
<rect x="326" y="362" width="198" height="13" fill="#CEDAF5"/>
<rect x="568" y="362" width="198" height="13" fill="#CEDAF5"/>
<rect x="810" y="362" width="198" height="13" fill="#CEDAF5"/>
<rect x="1052" y="362" width="198" height="13" fill="#CEDAF5"/>
<rect x="1294" y="362" width="198" height="13" fill="#CEDAF5"/>
</g>
</svg>
