<svg width="58" height="62" viewBox="0 0 58 62" fill="none" xmlns="http://www.w3.org/2000/svg">
<path d="M54.5476 14.7025L54.5818 14.6683L41.8717 1.95833L38.2501 5.58L45.4593 12.7892C42.2476 14.0192 39.9584 17.0942 39.9584 20.75C39.9584 25.465 43.7851 29.2917 48.5001 29.2917C49.7301 29.2917 50.8576 29.0183 51.9168 28.5742V53.2083C51.9168 55.0875 50.3792 56.625 48.5001 56.625C46.6209 56.625 45.0834 55.0875 45.0834 53.2083V37.8333C45.0834 34.075 42.0084 31 38.2501 31H34.8334V7.08333C34.8334 3.325 31.7584 0.25 28.0001 0.25H7.50008C3.74175 0.25 0.666748 3.325 0.666748 7.08333V61.75H34.8334V36.125H39.9584V53.2083C39.9584 57.9233 43.7851 61.75 48.5001 61.75C53.2151 61.75 57.0418 57.9233 57.0418 53.2083V20.75C57.0418 18.3925 56.0851 16.24 54.5476 14.7025ZM28.0001 36.125V54.9167H7.50008V31H28.0001V36.125ZM28.0001 24.1667H7.50008V7.08333H28.0001V24.1667ZM48.5001 24.1667C46.6209 24.1667 45.0834 22.6292 45.0834 20.75C45.0834 18.8708 46.6209 17.3333 48.5001 17.3333C50.3792 17.3333 51.9168 18.8708 51.9168 20.75C51.9168 22.6292 50.3792 24.1667 48.5001 24.1667Z" fill="#F7A400"/>
</svg>
