<svg width="288" height="400" viewBox="0 0 288 400" fill="none" xmlns="http://www.w3.org/2000/svg">
<path d="M0 0H288V400H0V0Z" fill="white"/>
<path d="M51.2075 282.391C51.0669 283.594 50.6216 284.523 49.8716 285.18C49.1268 285.831 48.1346 286.156 46.895 286.156C45.5512 286.156 44.4731 285.674 43.6606 284.711C42.8533 283.747 42.4497 282.458 42.4497 280.844V279.75C42.4497 278.693 42.6372 277.763 43.0122 276.961C43.3924 276.159 43.9289 275.544 44.6216 275.117C45.3143 274.685 46.1164 274.469 47.0278 274.469C48.2361 274.469 49.2049 274.807 49.9341 275.484C50.6632 276.156 51.0877 277.089 51.2075 278.281H49.6997C49.5695 277.375 49.2856 276.719 48.8481 276.312C48.4158 275.906 47.8091 275.703 47.0278 275.703C46.0695 275.703 45.3169 276.057 44.77 276.766C44.2283 277.474 43.9575 278.482 43.9575 279.789V280.891C43.9575 282.125 44.2153 283.107 44.7309 283.836C45.2466 284.565 45.9679 284.93 46.895 284.93C47.7283 284.93 48.3664 284.742 48.8091 284.367C49.257 283.987 49.5539 283.328 49.6997 282.391H51.2075ZM53.1328 281.695C53.1328 280.867 53.2943 280.122 53.6172 279.461C53.9453 278.799 54.3984 278.289 54.9766 277.93C55.5599 277.57 56.224 277.391 56.9687 277.391C58.1198 277.391 59.0495 277.789 59.7578 278.586C60.4714 279.383 60.8281 280.443 60.8281 281.766V281.867C60.8281 282.69 60.6693 283.43 60.3516 284.086C60.0391 284.737 59.5885 285.245 59 285.609C58.4167 285.974 57.7448 286.156 56.9844 286.156C55.8385 286.156 54.9089 285.758 54.1953 284.961C53.487 284.164 53.1328 283.109 53.1328 281.797V281.695ZM54.5859 281.867C54.5859 282.805 54.8021 283.557 55.2344 284.125C55.6719 284.693 56.2552 284.977 56.9844 284.977C57.7187 284.977 58.3021 284.69 58.7344 284.117C59.1667 283.539 59.3828 282.732 59.3828 281.695C59.3828 280.768 59.1615 280.018 58.7187 279.445C58.2812 278.867 57.6979 278.578 56.9687 278.578C56.2552 278.578 55.6797 278.862 55.2422 279.43C54.8047 279.997 54.5859 280.81 54.5859 281.867ZM64.48 277.547L64.5191 278.484C65.1388 277.755 65.9748 277.391 67.0269 277.391C68.2092 277.391 69.0138 277.844 69.4409 278.75C69.7222 278.344 70.0868 278.016 70.5347 277.766C70.9878 277.516 71.5217 277.391 72.1362 277.391C73.9904 277.391 74.9331 278.372 74.9644 280.336V286H73.5191V280.422C73.5191 279.818 73.381 279.367 73.105 279.07C72.829 278.768 72.3654 278.617 71.7144 278.617C71.1779 278.617 70.7326 278.779 70.3784 279.102C70.0243 279.419 69.8185 279.849 69.7612 280.391V286H68.3081V280.461C68.3081 279.232 67.7066 278.617 66.5034 278.617C65.5555 278.617 64.9071 279.021 64.5581 279.828V286H63.1128V277.547H64.48ZM77.2491 281.695C77.2491 280.867 77.4105 280.122 77.7334 279.461C78.0616 278.799 78.5147 278.289 79.0928 277.93C79.6761 277.57 80.3402 277.391 81.085 277.391C82.236 277.391 83.1657 277.789 83.8741 278.586C84.5876 279.383 84.9444 280.443 84.9444 281.766V281.867C84.9444 282.69 84.7855 283.43 84.4678 284.086C84.1553 284.737 83.7048 285.245 83.1162 285.609C82.5329 285.974 81.861 286.156 81.1006 286.156C79.9548 286.156 79.0251 285.758 78.3116 284.961C77.6032 284.164 77.2491 283.109 77.2491 281.797V281.695ZM78.7022 281.867C78.7022 282.805 78.9183 283.557 79.3506 284.125C79.7881 284.693 80.3715 284.977 81.1006 284.977C81.835 284.977 82.4183 284.69 82.8506 284.117C83.2829 283.539 83.4991 282.732 83.4991 281.695C83.4991 280.768 83.2777 280.018 82.835 279.445C82.3975 278.867 81.8142 278.578 81.085 278.578C80.3715 278.578 79.7959 278.862 79.3584 279.43C78.9209 279.997 78.7022 280.81 78.7022 281.867ZM98.8262 281.867C98.8262 283.154 98.532 284.19 97.9434 284.977C97.3549 285.763 96.558 286.156 95.5528 286.156C94.5268 286.156 93.7195 285.831 93.1309 285.18V289.25H91.6856V277.547H93.0059L93.0762 278.484C93.6648 277.755 94.4825 277.391 95.5294 277.391C96.545 277.391 97.3471 277.773 97.9356 278.539C98.5294 279.305 98.8262 280.37 98.8262 281.734V281.867ZM97.3809 281.703C97.3809 280.75 97.1778 279.997 96.7716 279.445C96.3653 278.893 95.808 278.617 95.0997 278.617C94.2247 278.617 93.5684 279.005 93.1309 279.781V283.82C93.5632 284.591 94.2247 284.977 95.1153 284.977C95.808 284.977 96.3575 284.703 96.7637 284.156C97.1752 283.604 97.3809 282.786 97.3809 281.703ZM100.767 281.695C100.767 280.867 100.929 280.122 101.252 279.461C101.58 278.799 102.033 278.289 102.611 277.93C103.194 277.57 103.858 277.391 104.603 277.391C105.754 277.391 106.684 277.789 107.392 278.586C108.106 279.383 108.462 280.443 108.462 281.766V281.867C108.462 282.69 108.304 283.43 107.986 284.086C107.673 284.737 107.223 285.245 106.634 285.609C106.051 285.974 105.379 286.156 104.619 286.156C103.473 286.156 102.543 285.758 101.83 284.961C101.121 284.164 100.767 283.109 100.767 281.797V281.695ZM102.22 281.867C102.22 282.805 102.436 283.557 102.869 284.125C103.306 284.693 103.89 284.977 104.619 284.977C105.353 284.977 105.936 284.69 106.369 284.117C106.801 283.539 107.017 282.732 107.017 281.695C107.017 280.768 106.796 280.018 106.353 279.445C105.916 278.867 105.332 278.578 104.603 278.578C103.89 278.578 103.314 278.862 102.877 279.43C102.439 279.997 102.22 280.81 102.22 281.867ZM115.677 283.758C115.677 283.367 115.528 283.065 115.232 282.852C114.94 282.633 114.427 282.445 113.692 282.289C112.963 282.133 112.383 281.945 111.95 281.727C111.523 281.508 111.206 281.247 110.997 280.945C110.794 280.643 110.692 280.284 110.692 279.867C110.692 279.174 110.984 278.589 111.567 278.109C112.156 277.63 112.906 277.391 113.817 277.391C114.776 277.391 115.552 277.638 116.146 278.133C116.745 278.628 117.044 279.26 117.044 280.031H115.591C115.591 279.635 115.422 279.294 115.083 279.008C114.75 278.721 114.328 278.578 113.817 278.578C113.291 278.578 112.88 278.693 112.583 278.922C112.286 279.151 112.138 279.451 112.138 279.82C112.138 280.169 112.276 280.432 112.552 280.609C112.828 280.786 113.325 280.956 114.044 281.117C114.768 281.279 115.354 281.471 115.802 281.695C116.25 281.919 116.581 282.19 116.794 282.508C117.013 282.82 117.122 283.203 117.122 283.656C117.122 284.411 116.82 285.018 116.216 285.477C115.612 285.93 114.828 286.156 113.864 286.156C113.187 286.156 112.588 286.036 112.067 285.797C111.547 285.557 111.138 285.224 110.841 284.797C110.549 284.365 110.403 283.898 110.403 283.398H111.849C111.875 283.883 112.067 284.268 112.427 284.555C112.791 284.836 113.271 284.977 113.864 284.977C114.411 284.977 114.849 284.867 115.177 284.648C115.51 284.424 115.677 284.128 115.677 283.758ZM121.446 275.5V277.547H123.024V278.664H121.446V283.906C121.446 284.245 121.516 284.5 121.657 284.672C121.797 284.839 122.037 284.922 122.376 284.922C122.542 284.922 122.771 284.891 123.063 284.828V286C122.683 286.104 122.313 286.156 121.954 286.156C121.308 286.156 120.821 285.961 120.493 285.57C120.165 285.18 120.001 284.625 120.001 283.906V278.664H118.462V277.547H120.001V275.5H121.446ZM124.66 281.695C124.66 280.867 124.822 280.122 125.145 279.461C125.473 278.799 125.926 278.289 126.504 277.93C127.087 277.57 127.751 277.391 128.496 277.391C129.647 277.391 130.577 277.789 131.285 278.586C131.999 279.383 132.356 280.443 132.356 281.766V281.867C132.356 282.69 132.197 283.43 131.879 284.086C131.567 284.737 131.116 285.245 130.527 285.609C129.944 285.974 129.272 286.156 128.512 286.156C127.366 286.156 126.436 285.758 125.723 284.961C125.014 284.164 124.66 283.109 124.66 281.797V281.695ZM126.113 281.867C126.113 282.805 126.33 283.557 126.762 284.125C127.199 284.693 127.783 284.977 128.512 284.977C129.246 284.977 129.83 284.69 130.262 284.117C130.694 283.539 130.91 282.732 130.91 281.695C130.91 280.768 130.689 280.018 130.246 279.445C129.809 278.867 129.225 278.578 128.496 278.578C127.783 278.578 127.207 278.862 126.77 279.43C126.332 279.997 126.113 280.81 126.113 281.867ZM134.601 288.266L133.781 287.703C134.271 287.021 134.526 286.318 134.547 285.594V284.289H135.961V285.422C135.961 285.948 135.83 286.474 135.57 287C135.315 287.526 134.992 287.948 134.601 288.266ZM146.108 284.977C146.624 284.977 147.074 284.82 147.46 284.508C147.845 284.195 148.059 283.805 148.1 283.336H149.467C149.441 283.82 149.275 284.281 148.967 284.719C148.66 285.156 148.249 285.505 147.733 285.766C147.223 286.026 146.681 286.156 146.108 286.156C144.957 286.156 144.04 285.773 143.358 285.008C142.681 284.237 142.342 283.185 142.342 281.852V281.609C142.342 280.786 142.494 280.055 142.796 279.414C143.098 278.773 143.53 278.276 144.092 277.922C144.66 277.568 145.329 277.391 146.1 277.391C147.048 277.391 147.835 277.674 148.46 278.242C149.09 278.81 149.426 279.547 149.467 280.453H148.1C148.059 279.906 147.85 279.458 147.475 279.109C147.106 278.755 146.647 278.578 146.1 278.578C145.366 278.578 144.796 278.844 144.389 279.375C143.988 279.901 143.788 280.664 143.788 281.664V281.938C143.788 282.911 143.988 283.661 144.389 284.188C144.79 284.714 145.363 284.977 146.108 284.977ZM155.658 278.844C155.44 278.807 155.203 278.789 154.947 278.789C154 278.789 153.356 279.193 153.018 280V286H151.572V277.547H152.979L153.002 278.523C153.476 277.768 154.148 277.391 155.018 277.391C155.299 277.391 155.513 277.427 155.658 277.5V278.844ZM159.045 286H157.599V277.547H159.045V286ZM157.482 275.305C157.482 275.07 157.552 274.872 157.693 274.711C157.839 274.549 158.052 274.469 158.334 274.469C158.615 274.469 158.829 274.549 158.974 274.711C159.12 274.872 159.193 275.07 159.193 275.305C159.193 275.539 159.12 275.734 158.974 275.891C158.829 276.047 158.615 276.125 158.334 276.125C158.052 276.125 157.839 276.047 157.693 275.891C157.552 275.734 157.482 275.539 157.482 275.305ZM165.353 286.156C164.207 286.156 163.275 285.781 162.556 285.031C161.837 284.276 161.478 283.268 161.478 282.008V281.742C161.478 280.904 161.637 280.156 161.954 279.5C162.277 278.839 162.725 278.323 163.298 277.953C163.876 277.578 164.501 277.391 165.173 277.391C166.272 277.391 167.126 277.753 167.736 278.477C168.345 279.201 168.65 280.237 168.65 281.586V282.188H162.923C162.944 283.021 163.186 283.695 163.65 284.211C164.118 284.721 164.712 284.977 165.431 284.977C165.941 284.977 166.374 284.872 166.728 284.664C167.082 284.456 167.392 284.18 167.658 283.836L168.54 284.523C167.832 285.612 166.769 286.156 165.353 286.156ZM165.173 278.578C164.59 278.578 164.1 278.792 163.704 279.219C163.309 279.641 163.064 280.234 162.97 281H167.204V280.891C167.163 280.156 166.965 279.589 166.611 279.188C166.256 278.781 165.777 278.578 165.173 278.578ZM180.18 283.758C180.18 283.367 180.032 283.065 179.735 282.852C179.443 282.633 178.93 282.445 178.196 282.289C177.466 282.133 176.886 281.945 176.453 281.727C176.026 281.508 175.709 281.247 175.5 280.945C175.297 280.643 175.196 280.284 175.196 279.867C175.196 279.174 175.487 278.589 176.071 278.109C176.659 277.63 177.409 277.391 178.321 277.391C179.279 277.391 180.055 277.638 180.649 278.133C181.248 278.628 181.547 279.26 181.547 280.031H180.094C180.094 279.635 179.925 279.294 179.586 279.008C179.253 278.721 178.831 278.578 178.321 278.578C177.795 278.578 177.383 278.693 177.086 278.922C176.789 279.151 176.641 279.451 176.641 279.82C176.641 280.169 176.779 280.432 177.055 280.609C177.331 280.786 177.828 280.956 178.547 281.117C179.271 281.279 179.857 281.471 180.305 281.695C180.753 281.919 181.084 282.19 181.297 282.508C181.516 282.82 181.625 283.203 181.625 283.656C181.625 284.411 181.323 285.018 180.719 285.477C180.115 285.93 179.331 286.156 178.367 286.156C177.69 286.156 177.091 286.036 176.571 285.797C176.05 285.557 175.641 285.224 175.344 284.797C175.052 284.365 174.907 283.898 174.907 283.398H176.352C176.378 283.883 176.571 284.268 176.93 284.555C177.295 284.836 177.774 284.977 178.367 284.977C178.914 284.977 179.352 284.867 179.68 284.648C180.013 284.424 180.18 284.128 180.18 283.758ZM187.496 286.156C186.35 286.156 185.418 285.781 184.699 285.031C183.98 284.276 183.621 283.268 183.621 282.008V281.742C183.621 280.904 183.78 280.156 184.098 279.5C184.42 278.839 184.868 278.323 185.441 277.953C186.019 277.578 186.644 277.391 187.316 277.391C188.415 277.391 189.269 277.753 189.879 278.477C190.488 279.201 190.793 280.237 190.793 281.586V282.188H185.066C185.087 283.021 185.329 283.695 185.793 284.211C186.262 284.721 186.855 284.977 187.574 284.977C188.084 284.977 188.517 284.872 188.871 284.664C189.225 284.456 189.535 284.18 189.801 283.836L190.683 284.523C189.975 285.612 188.913 286.156 187.496 286.156ZM187.316 278.578C186.733 278.578 186.243 278.792 185.848 279.219C185.452 279.641 185.207 280.234 185.113 281H189.348V280.891C189.306 280.156 189.108 279.589 188.754 279.188C188.4 278.781 187.92 278.578 187.316 278.578ZM198.171 285.164C197.609 285.826 196.783 286.156 195.695 286.156C194.794 286.156 194.106 285.896 193.632 285.375C193.163 284.849 192.926 284.073 192.921 283.047V277.547H194.367V283.008C194.367 284.289 194.887 284.93 195.929 284.93C197.033 284.93 197.768 284.518 198.132 283.695V277.547H199.577V286H198.202L198.171 285.164ZM208.28 286H206.834V274H208.28V286ZM214.588 286.156C213.442 286.156 212.51 285.781 211.791 285.031C211.072 284.276 210.713 283.268 210.713 282.008V281.742C210.713 280.904 210.872 280.156 211.189 279.5C211.512 278.839 211.96 278.323 212.533 277.953C213.111 277.578 213.736 277.391 214.408 277.391C215.507 277.391 216.361 277.753 216.971 278.477C217.58 279.201 217.885 280.237 217.885 281.586V282.188H212.158C212.179 283.021 212.421 283.695 212.885 284.211C213.353 284.721 213.947 284.977 214.666 284.977C215.176 284.977 215.609 284.872 215.963 284.664C216.317 284.456 216.627 284.18 216.892 283.836L217.775 284.523C217.067 285.612 216.004 286.156 214.588 286.156ZM214.408 278.578C213.825 278.578 213.335 278.792 212.939 279.219C212.544 279.641 212.299 280.234 212.205 281H216.439V280.891C216.398 280.156 216.2 279.589 215.846 279.188C215.491 278.781 215.012 278.578 214.408 278.578ZM221.615 286H220.169V277.547H221.615V286ZM220.052 275.305C220.052 275.07 220.122 274.872 220.263 274.711C220.409 274.549 220.622 274.469 220.904 274.469C221.185 274.469 221.399 274.549 221.544 274.711C221.69 274.872 221.763 275.07 221.763 275.305C221.763 275.539 221.69 275.734 221.544 275.891C221.399 276.047 221.185 276.125 220.904 276.125C220.622 276.125 220.409 276.047 220.263 275.891C220.122 275.734 220.052 275.539 220.052 275.305ZM225.985 286H224.54V274H225.985V286ZM234.004 286C233.921 285.833 233.853 285.536 233.801 285.109C233.129 285.807 232.327 286.156 231.395 286.156C230.562 286.156 229.877 285.922 229.34 285.453C228.809 284.979 228.543 284.38 228.543 283.656C228.543 282.776 228.877 282.094 229.543 281.609C230.215 281.12 231.158 280.875 232.372 280.875H233.778V280.211C233.778 279.706 233.627 279.305 233.325 279.008C233.023 278.706 232.577 278.555 231.989 278.555C231.473 278.555 231.041 278.685 230.692 278.945C230.343 279.206 230.168 279.521 230.168 279.891H228.715C228.715 279.469 228.864 279.062 229.161 278.672C229.463 278.276 229.869 277.964 230.379 277.734C230.895 277.505 231.46 277.391 232.075 277.391C233.049 277.391 233.812 277.635 234.364 278.125C234.916 278.609 235.202 279.279 235.223 280.133V284.023C235.223 284.799 235.322 285.417 235.52 285.875V286H234.004ZM231.606 284.898C232.059 284.898 232.489 284.781 232.895 284.547C233.301 284.312 233.596 284.008 233.778 283.633V281.898H232.645C230.874 281.898 229.989 282.417 229.989 283.453C229.989 283.906 230.14 284.26 230.442 284.516C230.744 284.771 231.132 284.898 231.606 284.898ZM235.004 274.25C235.004 274.812 234.843 275.268 234.52 275.617C234.202 275.966 233.804 276.141 233.325 276.141C233.111 276.141 232.926 276.115 232.77 276.062C232.614 276.01 232.408 275.904 232.153 275.742C231.903 275.581 231.721 275.484 231.606 275.453C231.497 275.417 231.369 275.398 231.223 275.398C231.01 275.398 230.827 275.482 230.676 275.648C230.525 275.81 230.45 276.018 230.45 276.273L229.481 276.219C229.481 275.661 229.637 275.201 229.95 274.836C230.267 274.471 230.668 274.289 231.153 274.289C231.335 274.289 231.499 274.315 231.645 274.367C231.791 274.419 231.989 274.521 232.239 274.672C232.489 274.823 232.679 274.922 232.809 274.969C232.944 275.016 233.093 275.039 233.254 275.039C233.478 275.039 233.663 274.951 233.809 274.773C233.96 274.596 234.036 274.391 234.036 274.156L235.004 274.25ZM237.586 281.695C237.586 280.867 237.747 280.122 238.07 279.461C238.398 278.799 238.852 278.289 239.43 277.93C240.013 277.57 240.677 277.391 241.422 277.391C242.573 277.391 243.503 277.789 244.211 278.586C244.924 279.383 245.281 280.443 245.281 281.766V281.867C245.281 282.69 245.122 283.43 244.805 284.086C244.492 284.737 244.042 285.245 243.453 285.609C242.87 285.974 242.198 286.156 241.438 286.156C240.292 286.156 239.362 285.758 238.648 284.961C237.94 284.164 237.586 283.109 237.586 281.797V281.695ZM239.039 281.867C239.039 282.805 239.255 283.557 239.688 284.125C240.125 284.693 240.708 284.977 241.438 284.977C242.172 284.977 242.755 284.69 243.188 284.117C243.62 283.539 243.836 282.732 243.836 281.695C243.836 280.768 243.615 280.018 243.172 279.445C242.734 278.867 242.151 278.578 241.422 278.578C240.708 278.578 240.133 278.862 239.695 279.43C239.258 279.997 239.039 280.81 239.039 281.867ZM64.5828 308.977C65.0984 308.977 65.549 308.82 65.9344 308.508C66.3198 308.195 66.5333 307.805 66.575 307.336H67.9422C67.9161 307.82 67.7495 308.281 67.4422 308.719C67.1349 309.156 66.7234 309.505 66.2078 309.766C65.6974 310.026 65.1557 310.156 64.5828 310.156C63.4318 310.156 62.5151 309.773 61.8328 309.008C61.1557 308.237 60.8172 307.185 60.8172 305.852V305.609C60.8172 304.786 60.9682 304.055 61.2703 303.414C61.5724 302.773 62.0047 302.276 62.5672 301.922C63.1349 301.568 63.8042 301.391 64.575 301.391C65.5229 301.391 66.3094 301.674 66.9344 302.242C67.5646 302.81 67.9005 303.547 67.9422 304.453H66.575C66.5333 303.906 66.325 303.458 65.95 303.109C65.5802 302.755 65.1219 302.578 64.575 302.578C63.8406 302.578 63.2703 302.844 62.8641 303.375C62.463 303.901 62.2625 304.664 62.2625 305.664V305.938C62.2625 306.911 62.463 307.661 62.8641 308.188C63.2651 308.714 63.838 308.977 64.5828 308.977ZM69.6644 305.695C69.6644 304.867 69.8258 304.122 70.1487 303.461C70.4769 302.799 70.93 302.289 71.5081 301.93C72.0915 301.57 72.7555 301.391 73.5003 301.391C74.6514 301.391 75.581 301.789 76.2894 302.586C77.0029 303.383 77.3597 304.443 77.3597 305.766V305.867C77.3597 306.69 77.2008 307.43 76.8831 308.086C76.5706 308.737 76.1201 309.245 75.5316 309.609C74.9482 309.974 74.2764 310.156 73.5159 310.156C72.3701 310.156 71.4404 309.758 70.7269 308.961C70.0185 308.164 69.6644 307.109 69.6644 305.797V305.695ZM71.1175 305.867C71.1175 306.805 71.3336 307.557 71.7659 308.125C72.2034 308.693 72.7868 308.977 73.5159 308.977C74.2503 308.977 74.8336 308.69 75.2659 308.117C75.6982 307.539 75.9144 306.732 75.9144 305.695C75.9144 304.768 75.693 304.018 75.2503 303.445C74.8128 302.867 74.2295 302.578 73.5003 302.578C72.7868 302.578 72.2112 302.862 71.7737 303.43C71.3362 303.997 71.1175 304.81 71.1175 305.867ZM81.0116 301.547L81.0506 302.484C81.6704 301.755 82.5064 301.391 83.5584 301.391C84.7407 301.391 85.5454 301.844 85.9725 302.75C86.2537 302.344 86.6183 302.016 87.0662 301.766C87.5194 301.516 88.0532 301.391 88.6678 301.391C90.522 301.391 91.4647 302.372 91.4959 304.336V310H90.0506V304.422C90.0506 303.818 89.9126 303.367 89.6366 303.07C89.3605 302.768 88.897 302.617 88.2459 302.617C87.7095 302.617 87.2642 302.779 86.91 303.102C86.5558 303.419 86.3501 303.849 86.2928 304.391V310H84.8397V304.461C84.8397 303.232 84.2381 302.617 83.035 302.617C82.0871 302.617 81.4386 303.021 81.0897 303.828V310H79.6444V301.547H81.0116ZM103.534 307.758C103.534 307.367 103.386 307.065 103.089 306.852C102.797 306.633 102.284 306.445 101.55 306.289C100.821 306.133 100.24 305.945 99.8075 305.727C99.3804 305.508 99.0627 305.247 98.8544 304.945C98.6512 304.643 98.5497 304.284 98.5497 303.867C98.5497 303.174 98.8413 302.589 99.4247 302.109C100.013 301.63 100.763 301.391 101.675 301.391C102.633 301.391 103.409 301.638 104.003 302.133C104.602 302.628 104.901 303.26 104.901 304.031H103.448C103.448 303.635 103.279 303.294 102.94 303.008C102.607 302.721 102.185 302.578 101.675 302.578C101.149 302.578 100.737 302.693 100.44 302.922C100.143 303.151 99.995 303.451 99.995 303.82C99.995 304.169 100.133 304.432 100.409 304.609C100.685 304.786 101.182 304.956 101.901 305.117C102.625 305.279 103.211 305.471 103.659 305.695C104.107 305.919 104.438 306.19 104.651 306.508C104.87 306.82 104.979 307.203 104.979 307.656C104.979 308.411 104.677 309.018 104.073 309.477C103.469 309.93 102.685 310.156 101.722 310.156C101.044 310.156 100.446 310.036 99.9247 309.797C99.4038 309.557 98.995 309.224 98.6981 308.797C98.4065 308.365 98.2606 307.898 98.2606 307.398H99.7059C99.732 307.883 99.9247 308.268 100.284 308.555C100.649 308.836 101.128 308.977 101.722 308.977C102.268 308.977 102.706 308.867 103.034 308.648C103.367 308.424 103.534 308.128 103.534 307.758ZM112.561 309.164C111.998 309.826 111.173 310.156 110.084 310.156C109.183 310.156 108.496 309.896 108.022 309.375C107.553 308.849 107.316 308.073 107.311 307.047V301.547H108.756V307.008C108.756 308.289 109.277 308.93 110.319 308.93C111.423 308.93 112.157 308.518 112.522 307.695V301.547H113.967V310H112.592L112.561 309.164ZM121.869 310C121.786 309.833 121.718 309.536 121.666 309.109C120.994 309.807 120.192 310.156 119.26 310.156C118.426 310.156 117.741 309.922 117.205 309.453C116.674 308.979 116.408 308.38 116.408 307.656C116.408 306.776 116.741 306.094 117.408 305.609C118.08 305.12 119.023 304.875 120.236 304.875H121.643V304.211C121.643 303.706 121.491 303.305 121.189 303.008C120.887 302.706 120.442 302.555 119.853 302.555C119.338 302.555 118.906 302.685 118.557 302.945C118.208 303.206 118.033 303.521 118.033 303.891H116.58C116.58 303.469 116.728 303.062 117.025 302.672C117.327 302.276 117.734 301.964 118.244 301.734C118.76 301.505 119.325 301.391 119.939 301.391C120.913 301.391 121.676 301.635 122.228 302.125C122.781 302.609 123.067 303.279 123.088 304.133V308.023C123.088 308.799 123.187 309.417 123.385 309.875V310H121.869ZM119.471 308.898C119.924 308.898 120.353 308.781 120.76 308.547C121.166 308.312 121.46 308.008 121.643 307.633V305.898H120.51C118.739 305.898 117.853 306.417 117.853 307.453C117.853 307.906 118.004 308.26 118.307 308.516C118.609 308.771 118.997 308.898 119.471 308.898ZM131.649 301.547L131.696 302.609C132.342 301.797 133.186 301.391 134.227 301.391C136.014 301.391 136.915 302.398 136.931 304.414V310H135.485V304.406C135.48 303.797 135.339 303.346 135.063 303.055C134.793 302.763 134.368 302.617 133.79 302.617C133.321 302.617 132.91 302.742 132.556 302.992C132.201 303.242 131.925 303.57 131.727 303.977V310H130.282V301.547H131.649ZM143.098 310.156C141.952 310.156 141.02 309.781 140.301 309.031C139.582 308.276 139.223 307.268 139.223 306.008V305.742C139.223 304.904 139.382 304.156 139.7 303.5C140.023 302.839 140.471 302.323 141.043 301.953C141.622 301.578 142.247 301.391 142.918 301.391C144.017 301.391 144.872 301.753 145.481 302.477C146.09 303.201 146.395 304.237 146.395 305.586V306.188H140.668C140.689 307.021 140.931 307.695 141.395 308.211C141.864 308.721 142.457 308.977 143.176 308.977C143.687 308.977 144.119 308.872 144.473 308.664C144.827 308.456 145.137 308.18 145.403 307.836L146.286 308.523C145.577 309.612 144.515 310.156 143.098 310.156ZM142.918 302.578C142.335 302.578 141.846 302.792 141.45 303.219C141.054 303.641 140.809 304.234 140.715 305H144.95V304.891C144.908 304.156 144.71 303.589 144.356 303.188C144.002 302.781 143.523 302.578 142.918 302.578ZM151.945 308.977C152.461 308.977 152.911 308.82 153.297 308.508C153.682 308.195 153.896 307.805 153.938 307.336H155.305C155.279 307.82 155.112 308.281 154.805 308.719C154.497 309.156 154.086 309.505 153.57 309.766C153.06 310.026 152.518 310.156 151.945 310.156C150.794 310.156 149.878 309.773 149.195 309.008C148.518 308.237 148.18 307.185 148.18 305.852V305.609C148.18 304.786 148.331 304.055 148.633 303.414C148.935 302.773 149.367 302.276 149.93 301.922C150.497 301.568 151.167 301.391 151.938 301.391C152.885 301.391 153.672 301.674 154.297 302.242C154.927 302.81 155.263 303.547 155.305 304.453H153.938C153.896 303.906 153.688 303.458 153.312 303.109C152.943 302.755 152.484 302.578 151.938 302.578C151.203 302.578 150.633 302.844 150.227 303.375C149.826 303.901 149.625 304.664 149.625 305.664V305.938C149.625 306.911 149.826 307.661 150.227 308.188C150.628 308.714 151.201 308.977 151.945 308.977ZM160.917 310.156C159.772 310.156 158.839 309.781 158.121 309.031C157.402 308.276 157.042 307.268 157.042 306.008V305.742C157.042 304.904 157.201 304.156 157.519 303.5C157.842 302.839 158.29 302.323 158.863 301.953C159.441 301.578 160.066 301.391 160.738 301.391C161.837 301.391 162.691 301.753 163.3 302.477C163.91 303.201 164.214 304.237 164.214 305.586V306.188H158.488C158.509 307.021 158.751 307.695 159.214 308.211C159.683 308.721 160.277 308.977 160.996 308.977C161.506 308.977 161.938 308.872 162.292 308.664C162.647 308.456 162.957 308.18 163.222 307.836L164.105 308.523C163.397 309.612 162.334 310.156 160.917 310.156ZM160.738 302.578C160.154 302.578 159.665 302.792 159.269 303.219C158.873 303.641 158.628 304.234 158.535 305H162.769V304.891C162.727 304.156 162.529 303.589 162.175 303.188C161.821 302.781 161.342 302.578 160.738 302.578ZM171.296 307.758C171.296 307.367 171.147 307.065 170.851 306.852C170.559 306.633 170.046 306.445 169.312 306.289C168.582 306.133 168.002 305.945 167.569 305.727C167.142 305.508 166.825 305.247 166.616 304.945C166.413 304.643 166.312 304.284 166.312 303.867C166.312 303.174 166.603 302.589 167.187 302.109C167.775 301.63 168.525 301.391 169.437 301.391C170.395 301.391 171.171 301.638 171.765 302.133C172.364 302.628 172.663 303.26 172.663 304.031H171.21C171.21 303.635 171.041 303.294 170.702 303.008C170.369 302.721 169.947 302.578 169.437 302.578C168.911 302.578 168.499 302.693 168.202 302.922C167.905 303.151 167.757 303.451 167.757 303.82C167.757 304.169 167.895 304.432 168.171 304.609C168.447 304.786 168.944 304.956 169.663 305.117C170.387 305.279 170.973 305.471 171.421 305.695C171.869 305.919 172.2 306.19 172.413 306.508C172.632 306.82 172.741 307.203 172.741 307.656C172.741 308.411 172.439 309.018 171.835 309.477C171.231 309.93 170.447 310.156 169.483 310.156C168.806 310.156 168.207 310.036 167.687 309.797C167.166 309.557 166.757 309.224 166.46 308.797C166.168 308.365 166.022 307.898 166.022 307.398H167.468C167.494 307.883 167.687 308.268 168.046 308.555C168.411 308.836 168.89 308.977 169.483 308.977C170.03 308.977 170.468 308.867 170.796 308.648C171.129 308.424 171.296 308.128 171.296 307.758ZM180.026 307.758C180.026 307.367 179.878 307.065 179.581 306.852C179.289 306.633 178.776 306.445 178.042 306.289C177.312 306.133 176.732 305.945 176.299 305.727C175.872 305.508 175.555 305.247 175.346 304.945C175.143 304.643 175.042 304.284 175.042 303.867C175.042 303.174 175.333 302.589 175.917 302.109C176.505 301.63 177.255 301.391 178.167 301.391C179.125 301.391 179.901 301.638 180.495 302.133C181.094 302.628 181.393 303.26 181.393 304.031H179.94C179.94 303.635 179.771 303.294 179.432 303.008C179.099 302.721 178.677 302.578 178.167 302.578C177.641 302.578 177.229 302.693 176.932 302.922C176.635 303.151 176.487 303.451 176.487 303.82C176.487 304.169 176.625 304.432 176.901 304.609C177.177 304.786 177.674 304.956 178.393 305.117C179.117 305.279 179.703 305.471 180.151 305.695C180.599 305.919 180.93 306.19 181.143 306.508C181.362 306.82 181.471 307.203 181.471 307.656C181.471 308.411 181.169 309.018 180.565 309.477C179.961 309.93 179.177 310.156 178.213 310.156C177.536 310.156 176.937 310.036 176.417 309.797C175.896 309.557 175.487 309.224 175.19 308.797C174.898 308.365 174.753 307.898 174.753 307.398H176.198C176.224 307.883 176.417 308.268 176.776 308.555C177.141 308.836 177.62 308.977 178.213 308.977C178.76 308.977 179.198 308.867 179.526 308.648C179.859 308.424 180.026 308.128 180.026 307.758ZM185.404 310H183.959V301.547H185.404V310ZM183.842 299.305C183.842 299.07 183.912 298.872 184.053 298.711C184.199 298.549 184.412 298.469 184.693 298.469C184.975 298.469 185.188 298.549 185.334 298.711C185.48 298.872 185.553 299.07 185.553 299.305C185.553 299.539 185.48 299.734 185.334 299.891C185.188 300.047 184.975 300.125 184.693 300.125C184.412 300.125 184.199 300.047 184.053 299.891C183.912 299.734 183.842 299.539 183.842 299.305ZM187.853 305.703C187.853 304.406 188.16 303.365 188.775 302.578C189.39 301.786 190.194 301.391 191.189 301.391C192.179 301.391 192.962 301.729 193.541 302.406V298H194.986V310H193.658L193.587 309.094C193.009 309.802 192.205 310.156 191.173 310.156C190.194 310.156 189.395 309.755 188.775 308.953C188.16 308.151 187.853 307.104 187.853 305.812V305.703ZM189.298 305.867C189.298 306.826 189.496 307.576 189.892 308.117C190.288 308.659 190.835 308.93 191.533 308.93C192.449 308.93 193.119 308.518 193.541 307.695V303.812C193.108 303.016 192.444 302.617 191.548 302.617C190.84 302.617 190.288 302.891 189.892 303.438C189.496 303.984 189.298 304.794 189.298 305.867ZM202.935 310C202.851 309.833 202.784 309.536 202.732 309.109C202.06 309.807 201.258 310.156 200.325 310.156C199.492 310.156 198.807 309.922 198.271 309.453C197.739 308.979 197.474 308.38 197.474 307.656C197.474 306.776 197.807 306.094 198.474 305.609C199.146 305.12 200.088 304.875 201.302 304.875H202.708V304.211C202.708 303.706 202.557 303.305 202.255 303.008C201.953 302.706 201.508 302.555 200.919 302.555C200.403 302.555 199.971 302.685 199.622 302.945C199.273 303.206 199.099 303.521 199.099 303.891H197.646C197.646 303.469 197.794 303.062 198.091 302.672C198.393 302.276 198.799 301.964 199.31 301.734C199.825 301.505 200.39 301.391 201.005 301.391C201.979 301.391 202.742 301.635 203.294 302.125C203.846 302.609 204.133 303.279 204.153 304.133V308.023C204.153 308.799 204.252 309.417 204.45 309.875V310H202.935ZM200.536 308.898C200.989 308.898 201.419 308.781 201.825 308.547C202.232 308.312 202.526 308.008 202.708 307.633V305.898H201.575C199.804 305.898 198.919 306.417 198.919 307.453C198.919 307.906 199.07 308.26 199.372 308.516C199.674 308.771 200.062 308.898 200.536 308.898ZM206.548 305.703C206.548 304.406 206.855 303.365 207.469 302.578C208.084 301.786 208.889 301.391 209.883 301.391C210.873 301.391 211.657 301.729 212.235 302.406V298H213.68V310H212.352L212.282 309.094C211.704 309.802 210.899 310.156 209.868 310.156C208.889 310.156 208.089 309.755 207.469 308.953C206.855 308.151 206.548 307.104 206.548 305.812V305.703ZM207.993 305.867C207.993 306.826 208.191 307.576 208.587 308.117C208.982 308.659 209.529 308.93 210.227 308.93C211.144 308.93 211.813 308.518 212.235 307.695V303.812C211.803 303.016 211.139 302.617 210.243 302.617C209.534 302.617 208.982 302.891 208.587 303.438C208.191 303.984 207.993 304.794 207.993 305.867ZM219.918 310.156C218.772 310.156 217.84 309.781 217.121 309.031C216.402 308.276 216.043 307.268 216.043 306.008V305.742C216.043 304.904 216.202 304.156 216.52 303.5C216.843 302.839 217.291 302.323 217.863 301.953C218.442 301.578 219.067 301.391 219.738 301.391C220.837 301.391 221.692 301.753 222.301 302.477C222.91 303.201 223.215 304.237 223.215 305.586V306.188H217.488C217.509 307.021 217.751 307.695 218.215 308.211C218.684 308.721 219.277 308.977 219.996 308.977C220.507 308.977 220.939 308.872 221.293 308.664C221.647 308.456 221.957 308.18 222.223 307.836L223.106 308.523C222.397 309.612 221.335 310.156 219.918 310.156ZM219.738 302.578C219.155 302.578 218.666 302.792 218.27 303.219C217.874 303.641 217.629 304.234 217.535 305H221.77V304.891C221.728 304.156 221.53 303.589 221.176 303.188C220.822 302.781 220.343 302.578 219.738 302.578ZM225.328 312.266L224.507 311.703C224.997 311.021 225.252 310.318 225.273 309.594V308.289H226.687V309.422C226.687 309.948 226.557 310.474 226.297 311C226.041 311.526 225.718 311.948 225.328 312.266ZM58.3728 329.867C58.3728 331.154 58.0785 332.19 57.49 332.977C56.9015 333.763 56.1046 334.156 55.0994 334.156C54.0733 334.156 53.266 333.831 52.6775 333.18V337.25H51.2322V325.547H52.5525L52.6228 326.484C53.2114 325.755 54.0291 325.391 55.0759 325.391C56.0916 325.391 56.8936 325.773 57.4822 326.539C58.0759 327.305 58.3728 328.37 58.3728 329.734V329.867ZM56.9275 329.703C56.9275 328.75 56.7244 327.997 56.3181 327.445C55.9119 326.893 55.3546 326.617 54.6462 326.617C53.7712 326.617 53.115 327.005 52.6775 327.781V331.82C53.1098 332.591 53.7712 332.977 54.6619 332.977C55.3546 332.977 55.9041 332.703 56.3103 332.156C56.7218 331.604 56.9275 330.786 56.9275 329.703ZM65.9153 333.164C65.3528 333.826 64.5273 334.156 63.4387 334.156C62.5377 334.156 61.8502 333.896 61.3762 333.375C60.9075 332.849 60.6705 332.073 60.6653 331.047V325.547H62.1106V331.008C62.1106 332.289 62.6315 332.93 63.6731 332.93C64.7773 332.93 65.5117 332.518 65.8762 331.695V325.547H67.3216V334H65.9466L65.9153 333.164ZM77.1609 329.867C77.1609 331.159 76.8641 332.198 76.2703 332.984C75.6766 333.766 74.8797 334.156 73.8797 334.156C72.812 334.156 71.9865 333.779 71.4031 333.023L71.3328 334H70.0047V322H71.45V326.477C72.0333 325.753 72.838 325.391 73.8641 325.391C74.8901 325.391 75.6948 325.779 76.2781 326.555C76.8667 327.331 77.1609 328.393 77.1609 329.742V329.867ZM75.7156 329.703C75.7156 328.719 75.5255 327.958 75.1453 327.422C74.7651 326.885 74.2182 326.617 73.5047 326.617C72.5516 326.617 71.8667 327.06 71.45 327.945V331.602C71.8927 332.487 72.5828 332.93 73.5203 332.93C74.213 332.93 74.7521 332.661 75.1375 332.125C75.5229 331.589 75.7156 330.781 75.7156 329.703ZM81.0394 334H79.5941V322H81.0394V334ZM85.41 334H83.9647V325.547H85.41V334ZM83.8475 323.305C83.8475 323.07 83.9178 322.872 84.0584 322.711C84.2043 322.549 84.4178 322.469 84.6991 322.469C84.9803 322.469 85.1939 322.549 85.3397 322.711C85.4855 322.872 85.5584 323.07 85.5584 323.305C85.5584 323.539 85.4855 323.734 85.3397 323.891C85.1939 324.047 84.9803 324.125 84.6991 324.125C84.4178 324.125 84.2043 324.047 84.0584 323.891C83.9178 323.734 83.8475 323.539 83.8475 323.305ZM87.8587 329.703C87.8587 328.375 88.1634 327.326 88.7728 326.555C89.3822 325.779 90.1999 325.391 91.2259 325.391C92.2259 325.391 93.015 325.727 93.5931 326.398L93.6556 325.547H94.9837V337.25H93.5384V333.219C92.9551 333.844 92.1791 334.156 91.2103 334.156C90.1895 334.156 89.3744 333.76 88.765 332.969C88.1608 332.172 87.8587 331.117 87.8587 329.805V329.703ZM89.3041 329.867C89.3041 330.836 89.5072 331.596 89.9134 332.148C90.3249 332.701 90.877 332.977 91.5697 332.977C92.4291 332.977 93.0853 332.596 93.5384 331.836V327.695C93.0801 326.951 92.4291 326.578 91.5853 326.578C90.8874 326.578 90.3327 326.857 89.9212 327.414C89.5098 327.966 89.3041 328.784 89.3041 329.867ZM103.003 333.164C102.44 333.826 101.615 334.156 100.526 334.156C99.6252 334.156 98.9377 333.896 98.4637 333.375C97.995 332.849 97.758 332.073 97.7528 331.047V325.547H99.1981V331.008C99.1981 332.289 99.719 332.93 100.761 332.93C101.865 332.93 102.599 332.518 102.964 331.695V325.547H104.409V334H103.034L103.003 333.164ZM110.6 334.156C109.454 334.156 108.522 333.781 107.803 333.031C107.084 332.276 106.725 331.268 106.725 330.008V329.742C106.725 328.904 106.884 328.156 107.202 327.5C107.524 326.839 107.972 326.323 108.545 325.953C109.123 325.578 109.748 325.391 110.42 325.391C111.519 325.391 112.373 325.753 112.983 326.477C113.592 327.201 113.897 328.237 113.897 329.586V330.188H108.17C108.191 331.021 108.433 331.695 108.897 332.211C109.366 332.721 109.959 332.977 110.678 332.977C111.189 332.977 111.621 332.872 111.975 332.664C112.329 332.456 112.639 332.18 112.905 331.836L113.787 332.523C113.079 333.612 112.017 334.156 110.6 334.156ZM110.42 326.578C109.837 326.578 109.347 326.792 108.952 327.219C108.556 327.641 108.311 328.234 108.217 329H112.452V328.891C112.41 328.156 112.212 327.589 111.858 327.188C111.504 326.781 111.024 326.578 110.42 326.578ZM124.013 334.156C122.867 334.156 121.935 333.781 121.216 333.031C120.497 332.276 120.138 331.268 120.138 330.008V329.742C120.138 328.904 120.297 328.156 120.615 327.5C120.938 326.839 121.386 326.323 121.958 325.953C122.537 325.578 123.162 325.391 123.833 325.391C124.932 325.391 125.787 325.753 126.396 326.477C127.005 327.201 127.31 328.237 127.31 329.586V330.188H121.583C121.604 331.021 121.846 331.695 122.31 332.211C122.779 332.721 123.372 332.977 124.091 332.977C124.602 332.977 125.034 332.872 125.388 332.664C125.742 332.456 126.052 332.18 126.318 331.836L127.201 332.523C126.492 333.612 125.43 334.156 124.013 334.156ZM123.833 326.578C123.25 326.578 122.761 326.792 122.365 327.219C121.969 327.641 121.724 328.234 121.63 329H125.865V328.891C125.823 328.156 125.625 327.589 125.271 327.188C124.917 326.781 124.438 326.578 123.833 326.578ZM138.004 326.844C137.786 326.807 137.549 326.789 137.293 326.789C136.346 326.789 135.702 327.193 135.364 328V334H133.918V325.547H135.325L135.348 326.523C135.822 325.768 136.494 325.391 137.364 325.391C137.645 325.391 137.859 325.427 138.004 325.5V326.844ZM143.172 334.156C142.026 334.156 141.094 333.781 140.375 333.031C139.656 332.276 139.297 331.268 139.297 330.008V329.742C139.297 328.904 139.456 328.156 139.773 327.5C140.096 326.839 140.544 326.323 141.117 325.953C141.695 325.578 142.32 325.391 142.992 325.391C144.091 325.391 144.945 325.753 145.555 326.477C146.164 327.201 146.469 328.237 146.469 329.586V330.188H140.742C140.763 331.021 141.005 331.695 141.469 332.211C141.938 332.721 142.531 332.977 143.25 332.977C143.76 332.977 144.193 332.872 144.547 332.664C144.901 332.456 145.211 332.18 145.477 331.836L146.359 332.523C145.651 333.612 144.589 334.156 143.172 334.156ZM142.992 326.578C142.409 326.578 141.919 326.792 141.523 327.219C141.128 327.641 140.883 328.234 140.789 329H145.023V328.891C144.982 328.156 144.784 327.589 144.43 327.188C144.076 326.781 143.596 326.578 142.992 326.578ZM152.019 332.977C152.535 332.977 152.985 332.82 153.371 332.508C153.756 332.195 153.97 331.805 154.011 331.336H155.378C155.352 331.82 155.186 332.281 154.878 332.719C154.571 333.156 154.16 333.505 153.644 333.766C153.134 334.026 152.592 334.156 152.019 334.156C150.868 334.156 149.951 333.773 149.269 333.008C148.592 332.237 148.253 331.185 148.253 329.852V329.609C148.253 328.786 148.404 328.055 148.707 327.414C149.009 326.773 149.441 326.276 150.003 325.922C150.571 325.568 151.24 325.391 152.011 325.391C152.959 325.391 153.746 325.674 154.371 326.242C155.001 326.81 155.337 327.547 155.378 328.453H154.011C153.97 327.906 153.761 327.458 153.386 327.109C153.016 326.755 152.558 326.578 152.011 326.578C151.277 326.578 150.707 326.844 150.3 327.375C149.899 327.901 149.699 328.664 149.699 329.664V329.938C149.699 330.911 149.899 331.661 150.3 332.188C150.701 332.714 151.274 332.977 152.019 332.977ZM160.991 334.156C159.845 334.156 158.913 333.781 158.194 333.031C157.476 332.276 157.116 331.268 157.116 330.008V329.742C157.116 328.904 157.275 328.156 157.593 327.5C157.916 326.839 158.364 326.323 158.937 325.953C159.515 325.578 160.14 325.391 160.812 325.391C161.911 325.391 162.765 325.753 163.374 326.477C163.983 327.201 164.288 328.237 164.288 329.586V330.188H158.562C158.582 331.021 158.825 331.695 159.288 332.211C159.757 332.721 160.351 332.977 161.069 332.977C161.58 332.977 162.012 332.872 162.366 332.664C162.72 332.456 163.03 332.18 163.296 331.836L164.179 332.523C163.47 333.612 162.408 334.156 160.991 334.156ZM160.812 326.578C160.228 326.578 159.739 326.792 159.343 327.219C158.947 327.641 158.702 328.234 158.608 329H162.843V328.891C162.801 328.156 162.603 327.589 162.249 327.188C161.895 326.781 161.416 326.578 160.812 326.578ZM173.604 329.867C173.604 331.159 173.307 332.198 172.713 332.984C172.12 333.766 171.323 334.156 170.323 334.156C169.255 334.156 168.43 333.779 167.846 333.023L167.776 334H166.448V322H167.893V326.477C168.476 325.753 169.281 325.391 170.307 325.391C171.333 325.391 172.138 325.779 172.721 326.555C173.31 327.331 173.604 328.393 173.604 329.742V329.867ZM172.159 329.703C172.159 328.719 171.969 327.958 171.588 327.422C171.208 326.885 170.661 326.617 169.948 326.617C168.995 326.617 168.31 327.06 167.893 327.945V331.602C168.336 332.487 169.026 332.93 169.963 332.93C170.656 332.93 171.195 332.661 171.581 332.125C171.966 331.589 172.159 330.781 172.159 329.703ZM181.131 334C181.048 333.833 180.98 333.536 180.928 333.109C180.256 333.807 179.454 334.156 178.522 334.156C177.688 334.156 177.003 333.922 176.467 333.453C175.936 332.979 175.67 332.38 175.67 331.656C175.67 330.776 176.003 330.094 176.67 329.609C177.342 329.12 178.285 328.875 179.498 328.875H180.904V328.211C180.904 327.706 180.753 327.305 180.451 327.008C180.149 326.706 179.704 326.555 179.115 326.555C178.6 326.555 178.167 326.685 177.818 326.945C177.469 327.206 177.295 327.521 177.295 327.891H175.842C175.842 327.469 175.99 327.062 176.287 326.672C176.589 326.276 176.996 325.964 177.506 325.734C178.022 325.505 178.587 325.391 179.201 325.391C180.175 325.391 180.938 325.635 181.49 326.125C182.042 326.609 182.329 327.279 182.35 328.133V332.023C182.35 332.799 182.449 333.417 182.647 333.875V334H181.131ZM178.732 332.898C179.186 332.898 179.615 332.781 180.022 332.547C180.428 332.312 180.722 332.008 180.904 331.633V329.898H179.772C178.001 329.898 177.115 330.417 177.115 331.453C177.115 331.906 177.266 332.26 177.568 332.516C177.871 332.771 178.259 332.898 178.732 332.898ZM191.114 334H189.669V322H191.114V334ZM199.133 334C199.05 333.833 198.982 333.536 198.93 333.109C198.258 333.807 197.456 334.156 196.524 334.156C195.691 334.156 195.006 333.922 194.469 333.453C193.938 332.979 193.672 332.38 193.672 331.656C193.672 330.776 194.006 330.094 194.672 329.609C195.344 329.12 196.287 328.875 197.501 328.875H198.907V328.211C198.907 327.706 198.756 327.305 198.454 327.008C198.152 326.706 197.706 326.555 197.118 326.555C196.602 326.555 196.17 326.685 195.821 326.945C195.472 327.206 195.297 327.521 195.297 327.891H193.844C193.844 327.469 193.993 327.062 194.29 326.672C194.592 326.276 194.998 325.964 195.508 325.734C196.024 325.505 196.589 325.391 197.204 325.391C198.178 325.391 198.941 325.635 199.493 326.125C200.045 326.609 200.331 327.279 200.352 328.133V332.023C200.352 332.799 200.451 333.417 200.649 333.875V334H199.133ZM196.735 332.898C197.188 332.898 197.618 332.781 198.024 332.547C198.43 332.312 198.725 332.008 198.907 331.633V329.898H197.774C196.003 329.898 195.118 330.417 195.118 331.453C195.118 331.906 195.269 332.26 195.571 332.516C195.873 332.771 196.261 332.898 196.735 332.898ZM204.465 325.547L204.512 326.609C205.158 325.797 206.001 325.391 207.043 325.391C208.83 325.391 209.731 326.398 209.746 328.414V334H208.301V328.406C208.296 327.797 208.155 327.346 207.879 327.055C207.608 326.763 207.184 326.617 206.606 326.617C206.137 326.617 205.725 326.742 205.371 326.992C205.017 327.242 204.741 327.57 204.543 327.977V334H203.098V325.547H204.465ZM215.797 332.977C216.312 332.977 216.763 332.82 217.148 332.508C217.534 332.195 217.747 331.805 217.789 331.336H219.156C219.13 331.82 218.963 332.281 218.656 332.719C218.349 333.156 217.937 333.505 217.422 333.766C216.911 334.026 216.369 334.156 215.797 334.156C214.646 334.156 213.729 333.773 213.047 333.008C212.369 332.237 212.031 331.185 212.031 329.852V329.609C212.031 328.786 212.182 328.055 212.484 327.414C212.786 326.773 213.218 326.276 213.781 325.922C214.349 325.568 215.018 325.391 215.789 325.391C216.737 325.391 217.523 325.674 218.148 326.242C218.778 326.81 219.114 327.547 219.156 328.453H217.789C217.747 327.906 217.539 327.458 217.164 327.109C216.794 326.755 216.336 326.578 215.789 326.578C215.054 326.578 214.484 326.844 214.078 327.375C213.677 327.901 213.476 328.664 213.476 329.664V329.938C213.476 330.911 213.677 331.661 214.078 332.188C214.479 332.714 215.052 332.977 215.797 332.977ZM224.769 334.156C223.623 334.156 222.691 333.781 221.972 333.031C221.253 332.276 220.894 331.268 220.894 330.008V329.742C220.894 328.904 221.053 328.156 221.37 327.5C221.693 326.839 222.141 326.323 222.714 325.953C223.292 325.578 223.917 325.391 224.589 325.391C225.688 325.391 226.542 325.753 227.152 326.477C227.761 327.201 228.066 328.237 228.066 329.586V330.188H222.339C222.36 331.021 222.602 331.695 223.066 332.211C223.534 332.721 224.128 332.977 224.847 332.977C225.357 332.977 225.79 332.872 226.144 332.664C226.498 332.456 226.808 332.18 227.073 331.836L227.956 332.523C227.248 333.612 226.185 334.156 224.769 334.156ZM224.589 326.578C224.006 326.578 223.516 326.792 223.12 327.219C222.724 327.641 222.48 328.234 222.386 329H226.62V328.891C226.579 328.156 226.381 327.589 226.027 327.188C225.672 326.781 225.193 326.578 224.589 326.578ZM235.147 331.758C235.147 331.367 234.999 331.065 234.702 330.852C234.41 330.633 233.897 330.445 233.163 330.289C232.434 330.133 231.853 329.945 231.421 329.727C230.994 329.508 230.676 329.247 230.467 328.945C230.264 328.643 230.163 328.284 230.163 327.867C230.163 327.174 230.454 326.589 231.038 326.109C231.626 325.63 232.376 325.391 233.288 325.391C234.246 325.391 235.022 325.638 235.616 326.133C236.215 326.628 236.514 327.26 236.514 328.031H235.061C235.061 327.635 234.892 327.294 234.553 327.008C234.22 326.721 233.798 326.578 233.288 326.578C232.762 326.578 232.35 326.693 232.053 326.922C231.757 327.151 231.608 327.451 231.608 327.82C231.608 328.169 231.746 328.432 232.022 328.609C232.298 328.786 232.796 328.956 233.514 329.117C234.238 329.279 234.824 329.471 235.272 329.695C235.72 329.919 236.051 330.19 236.264 330.508C236.483 330.82 236.592 331.203 236.592 331.656C236.592 332.411 236.29 333.018 235.686 333.477C235.082 333.93 234.298 334.156 233.335 334.156C232.658 334.156 232.059 334.036 231.538 333.797C231.017 333.557 230.608 333.224 230.311 332.797C230.02 332.365 229.874 331.898 229.874 331.398H231.319C231.345 331.883 231.538 332.268 231.897 332.555C232.262 332.836 232.741 332.977 233.335 332.977C233.882 332.977 234.319 332.867 234.647 332.648C234.981 332.424 235.147 332.128 235.147 331.758Z" fill="#333333"/>
<path d="M74.3441 220.283C110.361 220.283 152.4 220.283 202.091 220.283C216.661 220.496 229.013 207.401 229 190.963C229 184.822 229 178.68 229 172.526C228.987 156.087 224.767 139.622 200.943 139.622C149.408 139.622 110.093 169.995 74.2372 166.345C65.6638 165.319 59 173.618 59 185.568C59 190.03 59 194.493 59 198.969C58.9867 210.918 65.7306 220.443 74.3441 220.283Z" fill="#AAB80B"/>
<path d="M145.91 179.999L95.818 173.205C91.0238 172.553 87.6719 168.157 88.3262 163.374C88.9806 158.592 93.3875 155.248 98.1817 155.901L148.274 162.695C153.068 163.347 156.42 167.744 155.765 172.526C155.124 177.295 150.704 180.652 145.91 179.999Z" fill="#37384F"/>
<path d="M142.064 179.999L192.156 173.205C196.95 172.553 200.302 168.157 199.647 163.374C198.993 158.592 194.586 155.248 189.792 155.901L139.7 162.695C134.906 163.347 131.554 167.744 132.208 172.526C132.863 177.295 137.27 180.652 142.064 179.999Z" fill="#37384F"/>
<path d="M128.95 119.76L122.66 137.024L122.032 142.353L114.808 138.969C114.808 138.969 116.41 127.646 118.694 115.457L128.95 119.76Z" fill="#915C5C"/>
<path d="M132.061 94.5557C135.988 95.7946 134.545 100.457 133.691 104.48L128.803 120.199L118.694 115.444C119.669 110.275 120.75 104.946 121.899 100.257C122.994 95.7813 127.668 93.1703 132.061 94.5557Z" fill="#FFB119"/>
<path d="M122.66 137.024L116.704 137.677L114.794 138.969C116.704 144.018 123.194 155.102 127.454 158.538L131.487 157.526C128.242 151.411 125.598 145.843 122.66 137.024Z" fill="#F4ACC8"/>
<path d="M129.391 156.633H136.134L141.85 162.335H135.867L132.689 160.457H129.391C128.336 160.457 127.481 159.604 127.481 158.552C127.468 157.486 128.322 156.633 129.391 156.633Z" fill="#F4ACC8"/>
<path d="M158.997 119.76L165.287 137.024L165.915 142.353L173.139 138.969C173.139 138.969 171.537 127.646 169.253 115.457L158.997 119.76Z" fill="#915C5C"/>
<path d="M155.885 94.5557C151.959 95.7946 153.402 100.457 154.256 104.48L159.144 120.199L169.253 115.444C168.278 110.275 167.197 104.946 166.048 100.257C164.966 95.7813 160.292 93.1703 155.885 94.5557Z" fill="#FFB119"/>
<path d="M165.287 137.024L171.243 137.677L173.153 138.969C171.243 144.018 164.753 155.102 160.493 158.538L156.46 157.526C159.718 151.411 162.362 145.843 165.287 137.024Z" fill="#F4ACC8"/>
<path d="M158.57 156.633H151.826L146.11 162.335H152.093L155.271 160.457H158.57C159.625 160.457 160.479 159.604 160.479 158.552C160.479 157.486 159.625 156.633 158.57 156.633Z" fill="#F4ACC8"/>
<path d="M164.592 98.3923C164.592 89.0407 123.368 89.0407 123.368 98.3923C124.316 108.716 128.816 125.781 128.816 139.715L124.663 159.351C124.676 161.123 126.119 162.562 127.908 162.562H159.865C161.721 162.562 163.203 161.003 163.097 159.151L158.089 139.729C158.089 126.967 163.484 108.716 164.592 98.3923Z" fill="#FFB119"/>
<path d="M116.717 181.305L123.154 179.786C123.368 179.733 123.581 179.706 123.808 179.706L136.562 179.666C137.683 179.666 138.685 180.319 139.139 181.345L139.513 182.184C140.381 184.116 140.261 186.354 139.206 188.192C138.698 189.071 137.764 189.617 136.749 189.617L124.369 189.657C124.009 189.657 123.661 189.591 123.328 189.457L116.317 186.673C115.235 186.247 114.541 185.208 114.541 184.049C114.541 182.743 115.435 181.611 116.717 181.305Z" fill="#F7A400"/>
<path d="M138.218 181.331C136.535 182.131 135.76 184.076 136.401 185.807C136.989 187.379 138.605 188.338 140.274 188.099C143.052 187.686 147.445 186.993 150.076 186.473L146.925 177.748L138.218 181.331Z" fill="#F4ACC8"/>
<path d="M198.953 161.562L198.846 161.309C196.749 156.554 191.127 154.475 186.44 156.713L145.028 176.469C142.745 182.504 144.935 186.207 149.449 188.711C164.739 185.714 178.574 181.238 194.533 173.525C198.993 171.38 200.956 166.092 198.953 161.562Z" fill="#37384F"/>
<path d="M171.269 181.305L164.833 179.786C164.619 179.733 164.405 179.706 164.178 179.706L151.425 179.666C150.303 179.666 149.302 180.319 148.848 181.345L148.474 182.184C147.606 184.116 147.726 186.354 148.781 188.192C149.288 189.071 150.223 189.617 151.238 189.617L163.617 189.657C163.978 189.657 164.325 189.591 164.659 189.457L171.67 186.673C172.752 186.247 173.446 185.208 173.446 184.049C173.433 182.743 172.538 181.611 171.269 181.305Z" fill="#F7A400"/>
<path d="M149.756 181.331C151.438 182.131 152.213 184.076 151.572 185.807C150.984 187.379 149.369 188.338 147.699 188.099C144.922 187.686 140.528 186.993 137.897 186.473L141.049 177.748L149.756 181.331Z" fill="#F4ACC8"/>
<path d="M89.0205 161.562L89.1273 161.309C91.2239 156.554 96.8461 154.475 101.533 156.713L142.945 176.469C145.229 182.504 143.039 186.207 138.525 188.711C123.234 185.714 109.399 181.238 93.4407 173.525C88.9938 171.38 87.0173 166.092 89.0205 161.562Z" fill="#37384F"/>
<path d="M155.244 69.6847C155.244 77.2246 156.7 84.0319 160.533 87.6553L165.1 91.7316C166.943 93.3702 167.464 96.0211 166.409 98.2325C165.18 100.817 162.028 104.254 159.224 103.721C150.744 102.096 142.237 93.3968 146.658 70.4973L155.244 69.6847Z" fill="#37384F"/>
<path d="M147.926 98.4323L146.992 84.3383H140.996L140.061 98.4323H147.926Z" fill="#915C5C"/>
<path d="M147.085 68.9653C150.624 68.9653 152.694 74.0275 151.465 78.7965C151.399 79.063 151.318 79.3161 151.238 79.5692L148.701 87.2823C148.14 88.9874 146.952 90.213 145.589 90.5993L144.882 90.7991C144.267 90.9723 143.626 90.9723 143.012 90.7991L142.371 90.6126C141.022 90.2263 139.847 89.0007 139.286 87.3089L136.736 79.5825C136.655 79.3294 136.575 79.063 136.509 78.8099C135.28 74.0275 137.363 68.9787 140.902 68.9787H147.085V68.9653Z" fill="#915C5C"/>
<path d="M144.628 64.5826H141.383C137.23 64.5826 132.048 68.9653 132.048 73.095C132.048 86.0167 139.727 88.3213 139.727 88.3213C139.273 82.9661 136.949 82.3267 136.802 78.8765C136.802 78.8765 136.602 74.2806 137.697 74.2806H148.634C149.729 74.2806 150.611 75.1598 150.611 76.2521V78.8765C151.465 78.8631 152.2 78.317 152.467 77.5043L153.148 75.4129C153.775 73.468 153.615 71.3632 152.694 69.5381C151.145 66.4875 148.033 64.5826 144.628 64.5826Z" fill="#37384F"/>
<path d="M135.427 76.745C134.719 77.0514 134.599 78.3169 135.16 79.5692C135.68 80.7414 136.615 81.4741 137.31 81.3009L136.348 76.8383C136.028 76.6784 135.707 76.6251 135.427 76.745Z" fill="#915C5C"/>
<path d="M174.021 133.508H113.94C113.365 133.508 113.045 134.307 113.219 135.279L118.12 162.122C118.293 163.108 118.907 163.894 119.482 163.894H168.465C169.039 163.894 169.654 163.094 169.827 162.122L174.728 135.279C174.915 134.307 174.595 133.508 174.021 133.508Z" fill="#B3C9FF"/>
<path d="M150.036 148.707C150.036 151.305 147.325 153.423 143.973 153.423C140.622 153.423 137.911 151.318 137.911 148.707C137.911 146.11 140.622 143.991 143.973 143.991C147.325 143.991 150.036 146.096 150.036 148.707Z" fill="white"/>
<path d="M156.046 66.5408C156.046 70.1509 153.108 73.0816 149.489 73.0816C145.87 73.0816 142.932 70.1509 142.932 66.5408C142.932 62.9307 145.87 60 149.489 60C153.108 60 156.046 62.9307 156.046 66.5408Z" fill="#37384F"/>
<path d="M137.563 74.0808C141.529 77.9306 146.577 80.9413 152.614 83.1526V72.269L137.563 74.0808Z" fill="#37384F"/>
</svg>
