<svg width="288" height="400" viewBox="0 0 288 400" fill="none" xmlns="http://www.w3.org/2000/svg">
<path d="M0 0H288V400H0V0Z" fill="white"/>
<path d="M40.2288 284.391C40.0881 285.594 39.6428 286.523 38.8928 287.18C38.148 287.831 37.1558 288.156 35.9163 288.156C34.5725 288.156 33.4944 287.674 32.6819 286.711C31.8746 285.747 31.4709 284.458 31.4709 282.844V281.75C31.4709 280.693 31.6584 279.763 32.0334 278.961C32.4136 278.159 32.9501 277.544 33.6428 277.117C34.3355 276.685 35.1376 276.469 36.0491 276.469C37.2574 276.469 38.2261 276.807 38.9553 277.484C39.6845 278.156 40.109 279.089 40.2288 280.281H38.7209C38.5907 279.375 38.3069 278.719 37.8694 278.312C37.4371 277.906 36.8303 277.703 36.0491 277.703C35.0907 277.703 34.3381 278.057 33.7913 278.766C33.2496 279.474 32.9788 280.482 32.9788 281.789V282.891C32.9788 284.125 33.2366 285.107 33.7522 285.836C34.2678 286.565 34.9892 286.93 35.9163 286.93C36.7496 286.93 37.3876 286.742 37.8303 286.367C38.2782 285.987 38.5751 285.328 38.7209 284.391H40.2288ZM42.1541 283.695C42.1541 282.867 42.3155 282.122 42.6384 281.461C42.9666 280.799 43.4197 280.289 43.9978 279.93C44.5811 279.57 45.2452 279.391 45.99 279.391C47.141 279.391 48.0707 279.789 48.7791 280.586C49.4926 281.383 49.8494 282.443 49.8494 283.766V283.867C49.8494 284.69 49.6905 285.43 49.3728 286.086C49.0603 286.737 48.6098 287.245 48.0213 287.609C47.4379 287.974 46.766 288.156 46.0056 288.156C44.8598 288.156 43.9301 287.758 43.2166 286.961C42.5082 286.164 42.1541 285.109 42.1541 283.797V283.695ZM43.6072 283.867C43.6072 284.805 43.8233 285.557 44.2556 286.125C44.6931 286.693 45.2765 286.977 46.0056 286.977C46.74 286.977 47.3233 286.69 47.7556 286.117C48.1879 285.539 48.4041 284.732 48.4041 283.695C48.4041 282.768 48.1827 282.018 47.74 281.445C47.3025 280.867 46.7192 280.578 45.99 280.578C45.2765 280.578 44.7009 280.862 44.2634 281.43C43.8259 281.997 43.6072 282.81 43.6072 283.867ZM53.5013 279.547L53.5403 280.484C54.1601 279.755 54.996 279.391 56.0481 279.391C57.2304 279.391 58.0351 279.844 58.4622 280.75C58.7434 280.344 59.108 280.016 59.5559 279.766C60.0091 279.516 60.5429 279.391 61.1575 279.391C63.0117 279.391 63.9544 280.372 63.9856 282.336V288H62.5403V282.422C62.5403 281.818 62.4023 281.367 62.1263 281.07C61.8502 280.768 61.3867 280.617 60.7356 280.617C60.1992 280.617 59.7539 280.779 59.3997 281.102C59.0455 281.419 58.8398 281.849 58.7825 282.391V288H57.3294V282.461C57.3294 281.232 56.7278 280.617 55.5247 280.617C54.5768 280.617 53.9283 281.021 53.5794 281.828V288H52.1341V279.547H53.5013ZM70.7191 283.695C70.7191 282.867 70.8805 282.122 71.2034 281.461C71.5316 280.799 71.9847 280.289 72.5628 279.93C73.1461 279.57 73.8102 279.391 74.555 279.391C75.706 279.391 76.6357 279.789 77.3441 280.586C78.0576 281.383 78.4144 282.443 78.4144 283.766V283.867C78.4144 284.69 78.2555 285.43 77.9378 286.086C77.6253 286.737 77.1748 287.245 76.5863 287.609C76.0029 287.974 75.331 288.156 74.5706 288.156C73.4248 288.156 72.4951 287.758 71.7816 286.961C71.0732 286.164 70.7191 285.109 70.7191 283.797V283.695ZM72.1722 283.867C72.1722 284.805 72.3883 285.557 72.8206 286.125C73.2581 286.693 73.8415 286.977 74.5706 286.977C75.305 286.977 75.8883 286.69 76.3206 286.117C76.7529 285.539 76.9691 284.732 76.9691 283.695C76.9691 282.768 76.7477 282.018 76.305 281.445C75.8675 280.867 75.2842 280.578 74.555 280.578C73.8415 280.578 73.2659 280.862 72.8284 281.43C72.3909 281.997 72.1722 282.81 72.1722 283.867ZM86.515 279.547L86.5541 280.484C87.1739 279.755 88.0098 279.391 89.0619 279.391C90.2442 279.391 91.0489 279.844 91.4759 280.75C91.7572 280.344 92.1218 280.016 92.5697 279.766C93.0228 279.516 93.5567 279.391 94.1713 279.391C96.0254 279.391 96.9681 280.372 96.9994 282.336V288H95.5541V282.422C95.5541 281.818 95.416 281.367 95.14 281.07C94.864 280.768 94.4004 280.617 93.7494 280.617C93.2129 280.617 92.7676 280.779 92.4134 281.102C92.0593 281.419 91.8535 281.849 91.7963 282.391V288H90.3431V282.461C90.3431 281.232 89.7416 280.617 88.5384 280.617C87.5905 280.617 86.9421 281.021 86.5931 281.828V288H85.1478V279.547H86.515ZM103.175 288.156C102.029 288.156 101.097 287.781 100.378 287.031C99.6591 286.276 99.2997 285.268 99.2997 284.008V283.742C99.2997 282.904 99.4585 282.156 99.7763 281.5C100.099 280.839 100.547 280.323 101.12 279.953C101.698 279.578 102.323 279.391 102.995 279.391C104.094 279.391 104.948 279.753 105.558 280.477C106.167 281.201 106.472 282.237 106.472 283.586V284.188H100.745C100.766 285.021 101.008 285.695 101.472 286.211C101.94 286.721 102.534 286.977 103.253 286.977C103.763 286.977 104.196 286.872 104.55 286.664C104.904 286.456 105.214 286.18 105.479 285.836L106.362 286.523C105.654 287.612 104.591 288.156 103.175 288.156ZM102.995 280.578C102.412 280.578 101.922 280.792 101.526 281.219C101.13 281.641 100.886 282.234 100.792 283H105.026V282.891C104.985 282.156 104.787 281.589 104.433 281.188C104.078 280.781 103.599 280.578 102.995 280.578ZM109.998 279.547L110.045 280.609C110.691 279.797 111.535 279.391 112.577 279.391C114.363 279.391 115.264 280.398 115.28 282.414V288H113.834V282.406C113.829 281.797 113.689 281.346 113.412 281.055C113.142 280.763 112.717 280.617 112.139 280.617C111.67 280.617 111.259 280.742 110.905 280.992C110.551 281.242 110.274 281.57 110.077 281.977V288H108.631V279.547H109.998ZM117.557 283.695C117.557 282.867 117.718 282.122 118.041 281.461C118.369 280.799 118.822 280.289 119.4 279.93C119.984 279.57 120.648 279.391 121.393 279.391C122.544 279.391 123.473 279.789 124.182 280.586C124.895 281.383 125.252 282.443 125.252 283.766V283.867C125.252 284.69 125.093 285.43 124.775 286.086C124.463 286.737 124.012 287.245 123.424 287.609C122.84 287.974 122.169 288.156 121.408 288.156C120.262 288.156 119.333 287.758 118.619 286.961C117.911 286.164 117.557 285.109 117.557 283.797V283.695ZM119.01 283.867C119.01 284.805 119.226 285.557 119.658 286.125C120.096 286.693 120.679 286.977 121.408 286.977C122.143 286.977 122.726 286.69 123.158 286.117C123.59 285.539 123.807 284.732 123.807 283.695C123.807 282.768 123.585 282.018 123.143 281.445C122.705 280.867 122.122 280.578 121.393 280.578C120.679 280.578 120.103 280.862 119.666 281.43C119.228 281.997 119.01 282.81 119.01 283.867ZM131.63 280.844C131.412 280.807 131.175 280.789 130.919 280.789C129.971 280.789 129.328 281.193 128.99 282V288H127.544V279.547H128.951L128.974 280.523C129.448 279.768 130.12 279.391 130.99 279.391C131.271 279.391 131.484 279.427 131.63 279.5V280.844ZM145.036 283.867C145.036 285.154 144.741 286.19 144.153 286.977C143.564 287.763 142.767 288.156 141.762 288.156C140.736 288.156 139.929 287.831 139.34 287.18V291.25H137.895V279.547H139.215L139.286 280.484C139.874 279.755 140.692 279.391 141.739 279.391C142.754 279.391 143.556 279.773 144.145 280.539C144.739 281.305 145.036 282.37 145.036 283.734V283.867ZM143.59 283.703C143.59 282.75 143.387 281.997 142.981 281.445C142.575 280.893 142.017 280.617 141.309 280.617C140.434 280.617 139.778 281.005 139.34 281.781V285.82C139.773 286.591 140.434 286.977 141.325 286.977C142.017 286.977 142.567 286.703 142.973 286.156C143.385 285.604 143.59 284.786 143.59 283.703ZM151.445 280.844C151.227 280.807 150.99 280.789 150.734 280.789C149.786 280.789 149.143 281.193 148.805 282V288H147.359V279.547H148.766L148.789 280.523C149.263 279.768 149.935 279.391 150.805 279.391C151.086 279.391 151.299 279.427 151.445 279.5V280.844ZM156.613 288.156C155.467 288.156 154.535 287.781 153.816 287.031C153.097 286.276 152.738 285.268 152.738 284.008V283.742C152.738 282.904 152.897 282.156 153.214 281.5C153.537 280.839 153.985 280.323 154.558 279.953C155.136 279.578 155.761 279.391 156.433 279.391C157.532 279.391 158.386 279.753 158.996 280.477C159.605 281.201 159.91 282.237 159.91 283.586V284.188H154.183C154.204 285.021 154.446 285.695 154.91 286.211C155.378 286.721 155.972 286.977 156.691 286.977C157.201 286.977 157.634 286.872 157.988 286.664C158.342 286.456 158.652 286.18 158.918 285.836L159.8 286.523C159.092 287.612 158.029 288.156 156.613 288.156ZM156.433 280.578C155.85 280.578 155.36 280.792 154.964 281.219C154.569 281.641 154.324 282.234 154.23 283H158.464V282.891C158.423 282.156 158.225 281.589 157.871 281.188C157.516 280.781 157.037 280.578 156.433 280.578ZM165.46 286.977C165.976 286.977 166.426 286.82 166.812 286.508C167.197 286.195 167.411 285.805 167.452 285.336H168.819C168.793 285.82 168.627 286.281 168.319 286.719C168.012 287.156 167.601 287.505 167.085 287.766C166.575 288.026 166.033 288.156 165.46 288.156C164.309 288.156 163.392 287.773 162.71 287.008C162.033 286.237 161.694 285.185 161.694 283.852V283.609C161.694 282.786 161.845 282.055 162.147 281.414C162.45 280.773 162.882 280.276 163.444 279.922C164.012 279.568 164.681 279.391 165.452 279.391C166.4 279.391 167.187 279.674 167.812 280.242C168.442 280.81 168.778 281.547 168.819 282.453H167.452C167.411 281.906 167.202 281.458 166.827 281.109C166.457 280.755 165.999 280.578 165.452 280.578C164.718 280.578 164.147 280.844 163.741 281.375C163.34 281.901 163.14 282.664 163.14 283.664V283.938C163.14 284.911 163.34 285.661 163.741 286.188C164.142 286.714 164.715 286.977 165.46 286.977ZM165.694 288.07L165.601 288.477C166.397 288.617 166.796 289.068 166.796 289.828C166.796 290.333 166.588 290.732 166.171 291.023C165.754 291.32 165.174 291.469 164.429 291.469L164.374 290.633C164.786 290.633 165.103 290.565 165.327 290.43C165.556 290.294 165.671 290.104 165.671 289.859C165.671 289.63 165.588 289.461 165.421 289.352C165.254 289.242 164.916 289.164 164.405 289.117L164.655 288.07H165.694ZM170.542 283.695C170.542 282.867 170.703 282.122 171.026 281.461C171.354 280.799 171.807 280.289 172.385 279.93C172.969 279.57 173.633 279.391 174.378 279.391C175.529 279.391 176.458 279.789 177.167 280.586C177.88 281.383 178.237 282.443 178.237 283.766V283.867C178.237 284.69 178.078 285.43 177.76 286.086C177.448 286.737 176.997 287.245 176.409 287.609C175.825 287.974 175.154 288.156 174.393 288.156C173.247 288.156 172.318 287.758 171.604 286.961C170.896 286.164 170.542 285.109 170.542 283.797V283.695ZM171.995 283.867C171.995 284.805 172.211 285.557 172.643 286.125C173.081 286.693 173.664 286.977 174.393 286.977C175.128 286.977 175.711 286.69 176.143 286.117C176.575 285.539 176.792 284.732 176.792 283.695C176.792 282.768 176.57 282.018 176.128 281.445C175.69 280.867 175.107 280.578 174.378 280.578C173.664 280.578 173.088 280.862 172.651 281.43C172.213 281.997 171.995 282.81 171.995 283.867ZM188.486 288.156C187.34 288.156 186.408 287.781 185.689 287.031C184.97 286.276 184.611 285.268 184.611 284.008V283.742C184.611 282.904 184.77 282.156 185.087 281.5C185.41 280.839 185.858 280.323 186.431 279.953C187.009 279.578 187.634 279.391 188.306 279.391C189.405 279.391 190.259 279.753 190.869 280.477C191.478 281.201 191.783 282.237 191.783 283.586V284.188H186.056C186.077 285.021 186.319 285.695 186.783 286.211C187.252 286.721 187.845 286.977 188.564 286.977C189.074 286.977 189.507 286.872 189.861 286.664C190.215 286.456 190.525 286.18 190.791 285.836L191.673 286.523C190.965 287.612 189.903 288.156 188.486 288.156ZM188.306 280.578C187.723 280.578 187.233 280.792 186.837 281.219C186.442 281.641 186.197 282.234 186.103 283H190.337V282.891C190.296 282.156 190.098 281.589 189.744 281.188C189.39 280.781 188.91 280.578 188.306 280.578ZM195.302 279.547L195.341 280.484C195.961 279.755 196.797 279.391 197.849 279.391C199.031 279.391 199.836 279.844 200.263 280.75C200.544 280.344 200.909 280.016 201.357 279.766C201.81 279.516 202.344 279.391 202.958 279.391C204.812 279.391 205.755 280.372 205.786 282.336V288H204.341V282.422C204.341 281.818 204.203 281.367 203.927 281.07C203.651 280.768 203.187 280.617 202.536 280.617C202 280.617 201.554 280.779 201.2 281.102C200.846 281.419 200.64 281.849 200.583 282.391V288H199.13V282.461C199.13 281.232 198.528 280.617 197.325 280.617C196.377 280.617 195.729 281.021 195.38 281.828V288H193.935V279.547H195.302ZM214.262 279.547L214.301 280.484C214.921 279.755 215.757 279.391 216.809 279.391C217.991 279.391 218.796 279.844 219.223 280.75C219.504 280.344 219.869 280.016 220.317 279.766C220.77 279.516 221.304 279.391 221.918 279.391C223.772 279.391 224.715 280.372 224.746 282.336V288H223.301V282.422C223.301 281.818 223.163 281.367 222.887 281.07C222.611 280.768 222.147 280.617 221.496 280.617C220.96 280.617 220.514 280.779 220.16 281.102C219.806 281.419 219.6 281.849 219.543 282.391V288H218.09V282.461C218.09 281.232 217.488 280.617 216.285 280.617C215.337 280.617 214.689 281.021 214.34 281.828V288H212.895V279.547H214.262ZM232.633 288C232.549 287.833 232.481 287.536 232.429 287.109C231.758 287.807 230.955 288.156 230.023 288.156C229.19 288.156 228.505 287.922 227.968 287.453C227.437 286.979 227.172 286.38 227.172 285.656C227.172 284.776 227.505 284.094 228.172 283.609C228.843 283.12 229.786 282.875 231 282.875H232.406V282.211C232.406 281.706 232.255 281.305 231.953 281.008C231.651 280.706 231.205 280.555 230.617 280.555C230.101 280.555 229.669 280.685 229.32 280.945C228.971 281.206 228.797 281.521 228.797 281.891H227.343C227.343 281.469 227.492 281.062 227.789 280.672C228.091 280.276 228.497 279.964 229.008 279.734C229.523 279.505 230.088 279.391 230.703 279.391C231.677 279.391 232.44 279.635 232.992 280.125C233.544 280.609 233.83 281.279 233.851 282.133V286.023C233.851 286.799 233.95 287.417 234.148 287.875V288H232.633ZM230.234 286.898C230.687 286.898 231.117 286.781 231.523 286.547C231.929 286.312 232.224 286.008 232.406 285.633V283.898H231.273C229.502 283.898 228.617 284.417 228.617 285.453C228.617 285.906 228.768 286.26 229.07 286.516C229.372 286.771 229.76 286.898 230.234 286.898ZM233.633 276.25C233.633 276.812 233.471 277.268 233.148 277.617C232.83 277.966 232.432 278.141 231.953 278.141C231.739 278.141 231.554 278.115 231.398 278.062C231.242 278.01 231.036 277.904 230.781 277.742C230.531 277.581 230.349 277.484 230.234 277.453C230.125 277.417 229.997 277.398 229.851 277.398C229.638 277.398 229.455 277.482 229.304 277.648C229.153 277.81 229.078 278.018 229.078 278.273L228.109 278.219C228.109 277.661 228.265 277.201 228.578 276.836C228.896 276.471 229.297 276.289 229.781 276.289C229.963 276.289 230.127 276.315 230.273 276.367C230.419 276.419 230.617 276.521 230.867 276.672C231.117 276.823 231.307 276.922 231.437 276.969C231.573 277.016 231.721 277.039 231.883 277.039C232.106 277.039 232.291 276.951 232.437 276.773C232.588 276.596 232.664 276.391 232.664 276.156L233.633 276.25ZM236.214 283.695C236.214 282.867 236.376 282.122 236.698 281.461C237.027 280.799 237.48 280.289 238.058 279.93C238.641 279.57 239.305 279.391 240.05 279.391C241.201 279.391 242.131 279.789 242.839 280.586C243.553 281.383 243.909 282.443 243.909 283.766V283.867C243.909 284.69 243.751 285.43 243.433 286.086C243.12 286.737 242.67 287.245 242.081 287.609C241.498 287.974 240.826 288.156 240.066 288.156C238.92 288.156 237.99 287.758 237.277 286.961C236.568 286.164 236.214 285.109 236.214 283.797V283.695ZM237.667 283.867C237.667 284.805 237.883 285.557 238.316 286.125C238.753 286.693 239.336 286.977 240.066 286.977C240.8 286.977 241.383 286.69 241.816 286.117C242.248 285.539 242.464 284.732 242.464 283.695C242.464 282.768 242.243 282.018 241.8 281.445C241.362 280.867 240.779 280.578 240.05 280.578C239.336 280.578 238.761 280.862 238.323 281.43C237.886 281.997 237.667 282.81 237.667 283.867ZM251.124 285.758C251.124 285.367 250.975 285.065 250.678 284.852C250.387 284.633 249.874 284.445 249.139 284.289C248.41 284.133 247.829 283.945 247.397 283.727C246.97 283.508 246.652 283.247 246.444 282.945C246.241 282.643 246.139 282.284 246.139 281.867C246.139 281.174 246.431 280.589 247.014 280.109C247.603 279.63 248.353 279.391 249.264 279.391C250.223 279.391 250.999 279.638 251.592 280.133C252.191 280.628 252.491 281.26 252.491 282.031H251.038C251.038 281.635 250.869 281.294 250.53 281.008C250.197 280.721 249.775 280.578 249.264 280.578C248.738 280.578 248.327 280.693 248.03 280.922C247.733 281.151 247.585 281.451 247.585 281.82C247.585 282.169 247.723 282.432 247.999 282.609C248.275 282.786 248.772 282.956 249.491 283.117C250.215 283.279 250.801 283.471 251.249 283.695C251.697 283.919 252.027 284.19 252.241 284.508C252.46 284.82 252.569 285.203 252.569 285.656C252.569 286.411 252.267 287.018 251.663 287.477C251.059 287.93 250.275 288.156 249.311 288.156C248.634 288.156 248.035 288.036 247.514 287.797C246.994 287.557 246.585 287.224 246.288 286.797C245.996 286.365 245.85 285.898 245.85 285.398H247.296C247.322 285.883 247.514 286.268 247.874 286.555C248.238 286.836 248.717 286.977 249.311 286.977C249.858 286.977 250.296 286.867 250.624 286.648C250.957 286.424 251.124 286.128 251.124 285.758ZM254.885 290.266L254.065 289.703C254.554 289.021 254.809 288.318 254.83 287.594V286.289H256.244V287.422C256.244 287.948 256.114 288.474 255.854 289C255.599 289.526 255.276 289.948 254.885 290.266ZM62.9353 307.867C62.9353 309.154 62.641 310.19 62.0525 310.977C61.464 311.763 60.6671 312.156 59.6619 312.156C58.6358 312.156 57.8285 311.831 57.24 311.18V315.25H55.7947V303.547H57.115L57.1853 304.484C57.7739 303.755 58.5916 303.391 59.6384 303.391C60.6541 303.391 61.4561 303.773 62.0447 304.539C62.6384 305.305 62.9353 306.37 62.9353 307.734V307.867ZM61.49 307.703C61.49 306.75 61.2869 305.997 60.8806 305.445C60.4744 304.893 59.9171 304.617 59.2087 304.617C58.3337 304.617 57.6775 305.005 57.24 305.781V309.82C57.6723 310.591 58.3337 310.977 59.2244 310.977C59.9171 310.977 60.4666 310.703 60.8728 310.156C61.2843 309.604 61.49 308.786 61.49 307.703ZM64.8762 307.695C64.8762 306.867 65.0377 306.122 65.3606 305.461C65.6887 304.799 66.1419 304.289 66.72 303.93C67.3033 303.57 67.9674 303.391 68.7122 303.391C69.8632 303.391 70.7929 303.789 71.5012 304.586C72.2148 305.383 72.5716 306.443 72.5716 307.766V307.867C72.5716 308.69 72.4127 309.43 72.095 310.086C71.7825 310.737 71.332 311.245 70.7434 311.609C70.1601 311.974 69.4882 312.156 68.7278 312.156C67.582 312.156 66.6523 311.758 65.9387 310.961C65.2304 310.164 64.8762 309.109 64.8762 307.797V307.695ZM66.3294 307.867C66.3294 308.805 66.5455 309.557 66.9778 310.125C67.4153 310.693 67.9986 310.977 68.7278 310.977C69.4622 310.977 70.0455 310.69 70.4778 310.117C70.9101 309.539 71.1262 308.732 71.1262 307.695C71.1262 306.768 70.9049 306.018 70.4622 305.445C70.0247 304.867 69.4414 304.578 68.7122 304.578C67.9986 304.578 67.4231 304.862 66.9856 305.43C66.5481 305.997 66.3294 306.81 66.3294 307.867ZM79.7859 309.758C79.7859 309.367 79.6375 309.065 79.3406 308.852C79.049 308.633 78.5359 308.445 77.8016 308.289C77.0724 308.133 76.4917 307.945 76.0594 307.727C75.6323 307.508 75.3146 307.247 75.1062 306.945C74.9031 306.643 74.8016 306.284 74.8016 305.867C74.8016 305.174 75.0932 304.589 75.6766 304.109C76.2651 303.63 77.0151 303.391 77.9266 303.391C78.8849 303.391 79.6609 303.638 80.2547 304.133C80.8536 304.628 81.1531 305.26 81.1531 306.031H79.7C79.7 305.635 79.5307 305.294 79.1922 305.008C78.8589 304.721 78.437 304.578 77.9266 304.578C77.4005 304.578 76.9891 304.693 76.6922 304.922C76.3953 305.151 76.2469 305.451 76.2469 305.82C76.2469 306.169 76.3849 306.432 76.6609 306.609C76.937 306.786 77.4344 306.956 78.1531 307.117C78.8771 307.279 79.463 307.471 79.9109 307.695C80.3589 307.919 80.6896 308.19 80.9031 308.508C81.1219 308.82 81.2312 309.203 81.2312 309.656C81.2312 310.411 80.9292 311.018 80.325 311.477C79.7208 311.93 78.937 312.156 77.9734 312.156C77.2964 312.156 76.6974 312.036 76.1766 311.797C75.6557 311.557 75.2469 311.224 74.95 310.797C74.6583 310.365 74.5125 309.898 74.5125 309.398H75.9578C75.9839 309.883 76.1766 310.268 76.5359 310.555C76.9005 310.836 77.3797 310.977 77.9734 310.977C78.5203 310.977 78.9578 310.867 79.2859 310.648C79.6193 310.424 79.7859 310.128 79.7859 309.758ZM85.555 301.5V303.547H87.1331V304.664H85.555V309.906C85.555 310.245 85.6253 310.5 85.7659 310.672C85.9066 310.839 86.1461 310.922 86.4847 310.922C86.6514 310.922 86.8805 310.891 87.1722 310.828V312C86.792 312.104 86.4222 312.156 86.0628 312.156C85.417 312.156 84.93 311.961 84.6019 311.57C84.2738 311.18 84.1097 310.625 84.1097 309.906V304.664H82.5706V303.547H84.1097V301.5H85.555ZM88.7694 307.695C88.7694 306.867 88.9308 306.122 89.2537 305.461C89.5819 304.799 90.035 304.289 90.6131 303.93C91.1965 303.57 91.8605 303.391 92.6053 303.391C93.7564 303.391 94.686 303.789 95.3944 304.586C96.1079 305.383 96.4647 306.443 96.4647 307.766V307.867C96.4647 308.69 96.3058 309.43 95.9881 310.086C95.6756 310.737 95.2251 311.245 94.6366 311.609C94.0532 311.974 93.3814 312.156 92.6209 312.156C91.4751 312.156 90.5454 311.758 89.8319 310.961C89.1235 310.164 88.7694 309.109 88.7694 307.797V307.695ZM90.2225 307.867C90.2225 308.805 90.4386 309.557 90.8709 310.125C91.3084 310.693 91.8918 310.977 92.6209 310.977C93.3553 310.977 93.9386 310.69 94.3709 310.117C94.8032 309.539 95.0194 308.732 95.0194 307.695C95.0194 306.768 94.798 306.018 94.3553 305.445C93.9178 304.867 93.3345 304.578 92.6053 304.578C91.8918 304.578 91.3162 304.862 90.8787 305.43C90.4412 305.997 90.2225 306.81 90.2225 307.867ZM106.714 312.156C105.568 312.156 104.636 311.781 103.917 311.031C103.198 310.276 102.839 309.268 102.839 308.008V307.742C102.839 306.904 102.998 306.156 103.315 305.5C103.638 304.839 104.086 304.323 104.659 303.953C105.237 303.578 105.862 303.391 106.534 303.391C107.633 303.391 108.487 303.753 109.097 304.477C109.706 305.201 110.011 306.237 110.011 307.586V308.188H104.284C104.305 309.021 104.547 309.695 105.011 310.211C105.479 310.721 106.073 310.977 106.792 310.977C107.302 310.977 107.735 310.872 108.089 310.664C108.443 310.456 108.753 310.18 109.018 309.836L109.901 310.523C109.193 311.612 108.13 312.156 106.714 312.156ZM106.534 304.578C105.951 304.578 105.461 304.792 105.065 305.219C104.669 305.641 104.425 306.234 104.331 307H108.565V306.891C108.524 306.156 108.326 305.589 107.972 305.188C107.617 304.781 107.138 304.578 106.534 304.578ZM116.268 307.703C116.268 306.406 116.575 305.365 117.189 304.578C117.804 303.786 118.609 303.391 119.603 303.391C120.593 303.391 121.377 303.729 121.955 304.406V300H123.4V312H122.072L122.002 311.094C121.424 311.802 120.619 312.156 119.588 312.156C118.609 312.156 117.809 311.755 117.189 310.953C116.575 310.151 116.268 309.104 116.268 307.812V307.703ZM117.713 307.867C117.713 308.826 117.911 309.576 118.307 310.117C118.702 310.659 119.249 310.93 119.947 310.93C120.864 310.93 121.533 310.518 121.955 309.695V305.812C121.523 305.016 120.859 304.617 119.963 304.617C119.254 304.617 118.702 304.891 118.307 305.438C117.911 305.984 117.713 306.794 117.713 307.867ZM127.701 312H126.255V303.547H127.701V312ZM126.138 301.305C126.138 301.07 126.208 300.872 126.349 300.711C126.495 300.549 126.708 300.469 126.99 300.469C127.271 300.469 127.484 300.549 127.63 300.711C127.776 300.872 127.849 301.07 127.849 301.305C127.849 301.539 127.776 301.734 127.63 301.891C127.484 302.047 127.271 302.125 126.99 302.125C126.708 302.125 126.495 302.047 126.349 301.891C126.208 301.734 126.138 301.539 126.138 301.305ZM135.423 309.758C135.423 309.367 135.274 309.065 134.978 308.852C134.686 308.633 134.173 308.445 133.438 308.289C132.709 308.133 132.129 307.945 131.696 307.727C131.269 307.508 130.951 307.247 130.743 306.945C130.54 306.643 130.438 306.284 130.438 305.867C130.438 305.174 130.73 304.589 131.313 304.109C131.902 303.63 132.652 303.391 133.563 303.391C134.522 303.391 135.298 303.638 135.892 304.133C136.491 304.628 136.79 305.26 136.79 306.031H135.337C135.337 305.635 135.168 305.294 134.829 305.008C134.496 304.721 134.074 304.578 133.563 304.578C133.037 304.578 132.626 304.693 132.329 304.922C132.032 305.151 131.884 305.451 131.884 305.82C131.884 306.169 132.022 306.432 132.298 306.609C132.574 306.786 133.071 306.956 133.79 307.117C134.514 307.279 135.1 307.471 135.548 307.695C135.996 307.919 136.326 308.19 136.54 308.508C136.759 308.82 136.868 309.203 136.868 309.656C136.868 310.411 136.566 311.018 135.962 311.477C135.358 311.93 134.574 312.156 133.61 312.156C132.933 312.156 132.334 312.036 131.813 311.797C131.293 311.557 130.884 311.224 130.587 310.797C130.295 310.365 130.149 309.898 130.149 309.398H131.595C131.621 309.883 131.813 310.268 132.173 310.555C132.537 310.836 133.017 310.977 133.61 310.977C134.157 310.977 134.595 310.867 134.923 310.648C135.256 310.424 135.423 310.128 135.423 309.758ZM141.192 301.5V303.547H142.77V304.664H141.192V309.906C141.192 310.245 141.262 310.5 141.403 310.672C141.543 310.839 141.783 310.922 142.122 310.922C142.288 310.922 142.517 310.891 142.809 310.828V312C142.429 312.104 142.059 312.156 141.7 312.156C141.054 312.156 140.567 311.961 140.239 311.57C139.911 311.18 139.747 310.625 139.747 309.906V304.664H138.207V303.547H139.747V301.5H141.192ZM149.031 304.844C148.812 304.807 148.576 304.789 148.32 304.789C147.372 304.789 146.729 305.193 146.391 306V312H144.945V303.547H146.352L146.375 304.523C146.849 303.768 147.521 303.391 148.391 303.391C148.672 303.391 148.885 303.427 149.031 303.5V304.844ZM152.417 312H150.972V303.547H152.417V312ZM150.855 301.305C150.855 301.07 150.925 300.872 151.066 300.711C151.212 300.549 151.425 300.469 151.707 300.469C151.988 300.469 152.201 300.549 152.347 300.711C152.493 300.872 152.566 301.07 152.566 301.305C152.566 301.539 152.493 301.734 152.347 301.891C152.201 302.047 151.988 302.125 151.707 302.125C151.425 302.125 151.212 302.047 151.066 301.891C150.925 301.734 150.855 301.539 150.855 301.305ZM162.374 307.867C162.374 309.159 162.077 310.198 161.483 310.984C160.89 311.766 160.093 312.156 159.093 312.156C158.025 312.156 157.2 311.779 156.616 311.023L156.546 312H155.218V300H156.663V304.477C157.246 303.753 158.051 303.391 159.077 303.391C160.103 303.391 160.908 303.779 161.491 304.555C162.08 305.331 162.374 306.393 162.374 307.742V307.867ZM160.929 307.703C160.929 306.719 160.739 305.958 160.358 305.422C159.978 304.885 159.431 304.617 158.718 304.617C157.765 304.617 157.08 305.06 156.663 305.945V309.602C157.106 310.487 157.796 310.93 158.733 310.93C159.426 310.93 159.965 310.661 160.351 310.125C160.736 309.589 160.929 308.781 160.929 307.703ZM169.901 311.164C169.338 311.826 168.513 312.156 167.424 312.156C166.523 312.156 165.836 311.896 165.362 311.375C164.893 310.849 164.656 310.073 164.651 309.047V303.547H166.096V309.008C166.096 310.289 166.617 310.93 167.659 310.93C168.763 310.93 169.497 310.518 169.862 309.695V303.547H171.307V312H169.932L169.901 311.164ZM175.561 312H174.115V303.547H175.561V312ZM173.998 301.305C173.998 301.07 174.068 300.872 174.209 300.711C174.355 300.549 174.568 300.469 174.85 300.469C175.131 300.469 175.344 300.549 175.49 300.711C175.636 300.872 175.709 301.07 175.709 301.305C175.709 301.539 175.636 301.734 175.49 301.891C175.344 302.047 175.131 302.125 174.85 302.125C174.568 302.125 174.355 302.047 174.209 301.891C174.068 301.734 173.998 301.539 173.998 301.305ZM178.009 307.703C178.009 306.406 178.317 305.365 178.931 304.578C179.546 303.786 180.351 303.391 181.345 303.391C182.335 303.391 183.119 303.729 183.697 304.406V300H185.142V312H183.814L183.744 311.094C183.166 311.802 182.361 312.156 181.33 312.156C180.351 312.156 179.551 311.755 178.931 310.953C178.317 310.151 178.009 309.104 178.009 307.812V307.703ZM179.455 307.867C179.455 308.826 179.653 309.576 180.048 310.117C180.444 310.659 180.991 310.93 181.689 310.93C182.606 310.93 183.275 310.518 183.697 309.695V305.812C183.265 305.016 182.601 304.617 181.705 304.617C180.996 304.617 180.444 304.891 180.048 305.438C179.653 305.984 179.455 306.794 179.455 307.867ZM187.489 307.695C187.489 306.867 187.651 306.122 187.974 305.461C188.302 304.799 188.755 304.289 189.333 303.93C189.916 303.57 190.581 303.391 191.325 303.391C192.476 303.391 193.406 303.789 194.114 304.586C194.828 305.383 195.185 306.443 195.185 307.766V307.867C195.185 308.69 195.026 309.43 194.708 310.086C194.396 310.737 193.945 311.245 193.357 311.609C192.773 311.974 192.101 312.156 191.341 312.156C190.195 312.156 189.265 311.758 188.552 310.961C187.844 310.164 187.489 309.109 187.489 307.797V307.695ZM188.943 307.867C188.943 308.805 189.159 309.557 189.591 310.125C190.028 310.693 190.612 310.977 191.341 310.977C192.075 310.977 192.659 310.69 193.091 310.117C193.523 309.539 193.739 308.732 193.739 307.695C193.739 306.768 193.518 306.018 193.075 305.445C192.638 304.867 192.054 304.578 191.325 304.578C190.612 304.578 190.036 304.862 189.599 305.43C189.161 305.997 188.943 306.81 188.943 307.867ZM201.563 304.844C201.344 304.807 201.107 304.789 200.852 304.789C199.904 304.789 199.261 305.193 198.922 306V312H197.477V303.547H198.883L198.907 304.523C199.381 303.768 200.053 303.391 200.922 303.391C201.204 303.391 201.417 303.427 201.563 303.5V304.844ZM208.285 312C208.202 311.833 208.134 311.536 208.082 311.109C207.41 311.807 206.608 312.156 205.676 312.156C204.843 312.156 204.158 311.922 203.621 311.453C203.09 310.979 202.824 310.38 202.824 309.656C202.824 308.776 203.158 308.094 203.824 307.609C204.496 307.12 205.439 306.875 206.652 306.875H208.059V306.211C208.059 305.706 207.908 305.305 207.606 305.008C207.304 304.706 206.858 304.555 206.27 304.555C205.754 304.555 205.322 304.685 204.973 304.945C204.624 305.206 204.449 305.521 204.449 305.891H202.996C202.996 305.469 203.145 305.062 203.442 304.672C203.744 304.276 204.15 303.964 204.66 303.734C205.176 303.505 205.741 303.391 206.356 303.391C207.33 303.391 208.093 303.635 208.645 304.125C209.197 304.609 209.483 305.279 209.504 306.133V310.023C209.504 310.799 209.603 311.417 209.801 311.875V312H208.285ZM205.887 310.898C206.34 310.898 206.77 310.781 207.176 310.547C207.582 310.312 207.876 310.008 208.059 309.633V307.898H206.926C205.155 307.898 204.27 308.417 204.27 309.453C204.27 309.906 204.421 310.26 204.723 310.516C205.025 310.771 205.413 310.898 205.887 310.898ZM221.62 309.758C221.62 309.367 221.472 309.065 221.175 308.852C220.883 308.633 220.37 308.445 219.636 308.289C218.907 308.133 218.326 307.945 217.894 307.727C217.467 307.508 217.149 307.247 216.941 306.945C216.737 306.643 216.636 306.284 216.636 305.867C216.636 305.174 216.928 304.589 217.511 304.109C218.099 303.63 218.849 303.391 219.761 303.391C220.719 303.391 221.495 303.638 222.089 304.133C222.688 304.628 222.987 305.26 222.987 306.031H221.534C221.534 305.635 221.365 305.294 221.027 305.008C220.693 304.721 220.271 304.578 219.761 304.578C219.235 304.578 218.823 304.693 218.527 304.922C218.23 305.151 218.081 305.451 218.081 305.82C218.081 306.169 218.219 306.432 218.495 306.609C218.771 306.786 219.269 306.956 219.987 307.117C220.711 307.279 221.297 307.471 221.745 307.695C222.193 307.919 222.524 308.19 222.737 308.508C222.956 308.82 223.066 309.203 223.066 309.656C223.066 310.411 222.764 311.018 222.159 311.477C221.555 311.93 220.771 312.156 219.808 312.156C219.131 312.156 218.532 312.036 218.011 311.797C217.49 311.557 217.081 311.224 216.784 310.797C216.493 310.365 216.347 309.898 216.347 309.398H217.792C217.818 309.883 218.011 310.268 218.37 310.555C218.735 310.836 219.214 310.977 219.808 310.977C220.355 310.977 220.792 310.867 221.12 310.648C221.454 310.424 221.62 310.128 221.62 309.758ZM228.936 312.156C227.79 312.156 226.858 311.781 226.139 311.031C225.421 310.276 225.061 309.268 225.061 308.008V307.742C225.061 306.904 225.22 306.156 225.538 305.5C225.861 304.839 226.309 304.323 226.882 303.953C227.46 303.578 228.085 303.391 228.757 303.391C229.856 303.391 230.71 303.753 231.319 304.477C231.928 305.201 232.233 306.237 232.233 307.586V308.188H226.507C226.527 309.021 226.77 309.695 227.233 310.211C227.702 310.721 228.296 310.977 229.014 310.977C229.525 310.977 229.957 310.872 230.311 310.664C230.665 310.456 230.975 310.18 231.241 309.836L232.124 310.523C231.415 311.612 230.353 312.156 228.936 312.156ZM228.757 304.578C228.173 304.578 227.684 304.792 227.288 305.219C226.892 305.641 226.647 306.234 226.553 307H230.788V306.891C230.746 306.156 230.548 305.589 230.194 305.188C229.84 304.781 229.361 304.578 228.757 304.578ZM34.6584 334.977C35.1741 334.977 35.6246 334.82 36.01 334.508C36.3954 334.195 36.609 333.805 36.6506 333.336H38.0178C37.9918 333.82 37.8251 334.281 37.5178 334.719C37.2105 335.156 36.7991 335.505 36.2834 335.766C35.773 336.026 35.2314 336.156 34.6584 336.156C33.5074 336.156 32.5907 335.773 31.9084 335.008C31.2314 334.237 30.8928 333.185 30.8928 331.852V331.609C30.8928 330.786 31.0439 330.055 31.3459 329.414C31.648 328.773 32.0803 328.276 32.6428 327.922C33.2105 327.568 33.8798 327.391 34.6506 327.391C35.5985 327.391 36.385 327.674 37.01 328.242C37.6402 328.81 37.9761 329.547 38.0178 330.453H36.6506C36.609 329.906 36.4006 329.458 36.0256 329.109C35.6558 328.755 35.1975 328.578 34.6506 328.578C33.9163 328.578 33.3459 328.844 32.9397 329.375C32.5386 329.901 32.3381 330.664 32.3381 331.664V331.938C32.3381 332.911 32.5386 333.661 32.9397 334.188C33.3407 334.714 33.9136 334.977 34.6584 334.977ZM39.74 331.695C39.74 330.867 39.9015 330.122 40.2244 329.461C40.5525 328.799 41.0056 328.289 41.5838 327.93C42.1671 327.57 42.8311 327.391 43.5759 327.391C44.727 327.391 45.6567 327.789 46.365 328.586C47.0785 329.383 47.4353 330.443 47.4353 331.766V331.867C47.4353 332.69 47.2765 333.43 46.9588 334.086C46.6463 334.737 46.1957 335.245 45.6072 335.609C45.0239 335.974 44.352 336.156 43.5916 336.156C42.4457 336.156 41.516 335.758 40.8025 334.961C40.0942 334.164 39.74 333.109 39.74 331.797V331.695ZM41.1931 331.867C41.1931 332.805 41.4093 333.557 41.8416 334.125C42.2791 334.693 42.8624 334.977 43.5916 334.977C44.3259 334.977 44.9093 334.69 45.3416 334.117C45.7739 333.539 45.99 332.732 45.99 331.695C45.99 330.768 45.7686 330.018 45.3259 329.445C44.8884 328.867 44.3051 328.578 43.5759 328.578C42.8624 328.578 42.2869 328.862 41.8494 329.43C41.4119 329.997 41.1931 330.81 41.1931 331.867ZM51.0872 327.547L51.1263 328.484C51.746 327.755 52.582 327.391 53.6341 327.391C54.8164 327.391 55.621 327.844 56.0481 328.75C56.3294 328.344 56.694 328.016 57.1419 327.766C57.595 327.516 58.1289 327.391 58.7434 327.391C60.5976 327.391 61.5403 328.372 61.5716 330.336V336H60.1263V330.422C60.1263 329.818 59.9882 329.367 59.7122 329.07C59.4361 328.768 58.9726 328.617 58.3216 328.617C57.7851 328.617 57.3398 328.779 56.9856 329.102C56.6315 329.419 56.4257 329.849 56.3684 330.391V336H54.9153V330.461C54.9153 329.232 54.3138 328.617 53.1106 328.617C52.1627 328.617 51.5143 329.021 51.1653 329.828V336H49.72V327.547H51.0872ZM69.4578 335.164C68.8953 335.826 68.0698 336.156 66.9813 336.156C66.0802 336.156 65.3927 335.896 64.9188 335.375C64.45 334.849 64.213 334.073 64.2078 333.047V327.547H65.6531V333.008C65.6531 334.289 66.174 334.93 67.2156 334.93C68.3198 334.93 69.0542 334.518 69.4188 333.695V327.547H70.8641V336H69.4891L69.4578 335.164ZM74.9144 327.547L74.9613 328.609C75.6071 327.797 76.4508 327.391 77.4925 327.391C79.279 327.391 80.18 328.398 80.1956 330.414V336H78.7503V330.406C78.7451 329.797 78.6045 329.346 78.3284 329.055C78.0576 328.763 77.6331 328.617 77.055 328.617C76.5863 328.617 76.1748 328.742 75.8206 328.992C75.4665 329.242 75.1904 329.57 74.9925 329.977V336H73.5472V327.547H74.9144ZM84.4256 336H82.9803V327.547H84.4256V336ZM82.8631 325.305C82.8631 325.07 82.9334 324.872 83.0741 324.711C83.2199 324.549 83.4334 324.469 83.7147 324.469C83.9959 324.469 84.2095 324.549 84.3553 324.711C84.5011 324.872 84.5741 325.07 84.5741 325.305C84.5741 325.539 84.5011 325.734 84.3553 325.891C84.2095 326.047 83.9959 326.125 83.7147 326.125C83.4334 326.125 83.2199 326.047 83.0741 325.891C82.9334 325.734 82.8631 325.539 82.8631 325.305ZM90.6166 334.977C91.1322 334.977 91.5827 334.82 91.9681 334.508C92.3535 334.195 92.5671 333.805 92.6088 333.336H93.9759C93.9499 333.82 93.7832 334.281 93.4759 334.719C93.1686 335.156 92.7572 335.505 92.2416 335.766C91.7311 336.026 91.1895 336.156 90.6166 336.156C89.4655 336.156 88.5489 335.773 87.8666 335.008C87.1895 334.237 86.8509 333.185 86.8509 331.852V331.609C86.8509 330.786 87.002 330.055 87.3041 329.414C87.6061 328.773 88.0384 328.276 88.6009 327.922C89.1686 327.568 89.8379 327.391 90.6088 327.391C91.5567 327.391 92.3431 327.674 92.9681 328.242C93.5983 328.81 93.9343 329.547 93.9759 330.453H92.6088C92.5671 329.906 92.3588 329.458 91.9838 329.109C91.614 328.755 91.1556 328.578 90.6088 328.578C89.8744 328.578 89.3041 328.844 88.8978 329.375C88.4968 329.901 88.2963 330.664 88.2963 331.664V331.938C88.2963 332.911 88.4968 333.661 88.8978 334.188C89.2989 334.714 89.8718 334.977 90.6166 334.977ZM101.3 336C101.216 335.833 101.149 335.536 101.097 335.109C100.425 335.807 99.6226 336.156 98.6903 336.156C97.857 336.156 97.1721 335.922 96.6356 335.453C96.1044 334.979 95.8388 334.38 95.8388 333.656C95.8388 332.776 96.1721 332.094 96.8388 331.609C97.5106 331.12 98.4533 330.875 99.6669 330.875H101.073V330.211C101.073 329.706 100.922 329.305 100.62 329.008C100.318 328.706 99.8726 328.555 99.2841 328.555C98.7684 328.555 98.3361 328.685 97.9872 328.945C97.6382 329.206 97.4638 329.521 97.4638 329.891H96.0106C96.0106 329.469 96.1591 329.062 96.4559 328.672C96.758 328.276 97.1643 327.964 97.6747 327.734C98.1903 327.505 98.7554 327.391 99.37 327.391C100.344 327.391 101.107 327.635 101.659 328.125C102.211 328.609 102.498 329.279 102.518 330.133V334.023C102.518 334.799 102.617 335.417 102.815 335.875V336H101.3ZM98.9013 334.898C99.3544 334.898 99.7841 334.781 100.19 334.547C100.597 334.312 100.891 334.008 101.073 333.633V331.898H99.9403C98.1695 331.898 97.2841 332.417 97.2841 333.453C97.2841 333.906 97.4351 334.26 97.7372 334.516C98.0393 334.771 98.4273 334.898 98.9013 334.898ZM106.623 327.547L106.662 328.484C107.282 327.755 108.118 327.391 109.17 327.391C110.353 327.391 111.157 327.844 111.584 328.75C111.866 328.344 112.23 328.016 112.678 327.766C113.131 327.516 113.665 327.391 114.28 327.391C116.134 327.391 117.077 328.372 117.108 330.336V336H115.662V330.422C115.662 329.818 115.524 329.367 115.248 329.07C114.972 328.768 114.509 328.617 113.858 328.617C113.321 328.617 112.876 328.779 112.522 329.102C112.168 329.419 111.962 329.849 111.905 330.391V336H110.452V330.461C110.452 329.232 109.85 328.617 108.647 328.617C107.699 328.617 107.051 329.021 106.702 329.828V336H105.256V327.547H106.623ZM127.732 336.156C126.586 336.156 125.654 335.781 124.935 335.031C124.216 334.276 123.857 333.268 123.857 332.008V331.742C123.857 330.904 124.016 330.156 124.333 329.5C124.656 328.839 125.104 328.323 125.677 327.953C126.255 327.578 126.88 327.391 127.552 327.391C128.651 327.391 129.505 327.753 130.115 328.477C130.724 329.201 131.029 330.237 131.029 331.586V332.188H125.302C125.323 333.021 125.565 333.695 126.029 334.211C126.498 334.721 127.091 334.977 127.81 334.977C128.32 334.977 128.753 334.872 129.107 334.664C129.461 334.456 129.771 334.18 130.037 333.836L130.919 334.523C130.211 335.612 129.149 336.156 127.732 336.156ZM127.552 328.578C126.969 328.578 126.479 328.792 126.083 329.219C125.688 329.641 125.443 330.234 125.349 331H129.583V330.891C129.542 330.156 129.344 329.589 128.99 329.188C128.636 328.781 128.156 328.578 127.552 328.578ZM138.348 336V328.664H137.012V327.547H138.348V326.68C138.348 325.773 138.59 325.073 139.075 324.578C139.559 324.083 140.244 323.836 141.129 323.836C141.463 323.836 141.793 323.88 142.122 323.969L142.043 325.141C141.799 325.094 141.538 325.07 141.262 325.07C140.793 325.07 140.431 325.208 140.176 325.484C139.921 325.755 139.793 326.146 139.793 326.656V327.547H141.598V328.664H139.793V336H138.348ZM147 336.156C145.854 336.156 144.922 335.781 144.203 335.031C143.484 334.276 143.125 333.268 143.125 332.008V331.742C143.125 330.904 143.284 330.156 143.602 329.5C143.924 328.839 144.372 328.323 144.945 327.953C145.523 327.578 146.148 327.391 146.82 327.391C147.919 327.391 148.773 327.753 149.383 328.477C149.992 329.201 150.297 330.237 150.297 331.586V332.188H144.57C144.591 333.021 144.833 333.695 145.297 334.211C145.766 334.721 146.359 334.977 147.078 334.977C147.589 334.977 148.021 334.872 148.375 334.664C148.729 334.456 149.039 334.18 149.305 333.836L150.188 334.523C149.479 335.612 148.417 336.156 147 336.156ZM146.82 328.578C146.237 328.578 145.747 328.792 145.352 329.219C144.956 329.641 144.711 330.234 144.617 331H148.852V330.891C148.81 330.156 148.612 329.589 148.258 329.188C147.904 328.781 147.424 328.578 146.82 328.578ZM155.847 334.977C156.363 334.977 156.813 334.82 157.199 334.508C157.584 334.195 157.798 333.805 157.839 333.336H159.207C159.181 333.82 159.014 334.281 158.707 334.719C158.399 335.156 157.988 335.505 157.472 335.766C156.962 336.026 156.42 336.156 155.847 336.156C154.696 336.156 153.779 335.773 153.097 335.008C152.42 334.237 152.082 333.185 152.082 331.852V331.609C152.082 330.786 152.233 330.055 152.535 329.414C152.837 328.773 153.269 328.276 153.832 327.922C154.399 327.568 155.069 327.391 155.839 327.391C156.787 327.391 157.574 327.674 158.199 328.242C158.829 328.81 159.165 329.547 159.207 330.453H157.839C157.798 329.906 157.589 329.458 157.214 329.109C156.845 328.755 156.386 328.578 155.839 328.578C155.105 328.578 154.535 328.844 154.128 329.375C153.727 329.901 153.527 330.664 153.527 331.664V331.938C153.527 332.911 153.727 333.661 154.128 334.188C154.529 334.714 155.102 334.977 155.847 334.977ZM162.757 328.57C163.397 327.784 164.231 327.391 165.257 327.391C167.043 327.391 167.944 328.398 167.96 330.414V336H166.515V330.406C166.509 329.797 166.369 329.346 166.093 329.055C165.822 328.763 165.397 328.617 164.819 328.617C164.351 328.617 163.939 328.742 163.585 328.992C163.231 329.242 162.955 329.57 162.757 329.977V336H161.312V324H162.757V328.57ZM175.823 336C175.739 335.833 175.672 335.536 175.62 335.109C174.948 335.807 174.146 336.156 173.213 336.156C172.38 336.156 171.695 335.922 171.159 335.453C170.628 334.979 170.362 334.38 170.362 333.656C170.362 332.776 170.695 332.094 171.362 331.609C172.034 331.12 172.976 330.875 174.19 330.875H175.596V330.211C175.596 329.706 175.445 329.305 175.143 329.008C174.841 328.706 174.396 328.555 173.807 328.555C173.292 328.555 172.859 328.685 172.51 328.945C172.161 329.206 171.987 329.521 171.987 329.891H170.534C170.534 329.469 170.682 329.062 170.979 328.672C171.281 328.276 171.687 327.964 172.198 327.734C172.713 327.505 173.279 327.391 173.893 327.391C174.867 327.391 175.63 327.635 176.182 328.125C176.734 328.609 177.021 329.279 177.042 330.133V334.023C177.042 334.799 177.141 335.417 177.338 335.875V336H175.823ZM173.424 334.898C173.878 334.898 174.307 334.781 174.713 334.547C175.12 334.312 175.414 334.008 175.596 333.633V331.898H174.463C172.693 331.898 171.807 332.417 171.807 333.453C171.807 333.906 171.958 334.26 172.26 334.516C172.562 334.771 172.95 334.898 173.424 334.898ZM181.147 327.547L181.186 328.484C181.805 327.755 182.641 327.391 183.693 327.391C184.876 327.391 185.68 327.844 186.108 328.75C186.389 328.344 186.753 328.016 187.201 327.766C187.654 327.516 188.188 327.391 188.803 327.391C190.657 327.391 191.6 328.372 191.631 330.336V336H190.186V330.422C190.186 329.818 190.048 329.367 189.772 329.07C189.496 328.768 189.032 328.617 188.381 328.617C187.844 328.617 187.399 328.779 187.045 329.102C186.691 329.419 186.485 329.849 186.428 330.391V336H184.975V330.461C184.975 329.232 184.373 328.617 183.17 328.617C182.222 328.617 181.574 329.021 181.225 329.828V336H179.779V327.547H181.147ZM200.114 327.547L200.161 328.609C200.807 327.797 201.651 327.391 202.693 327.391C204.479 327.391 205.38 328.398 205.396 330.414V336H203.95V330.406C203.945 329.797 203.804 329.346 203.528 329.055C203.258 328.763 202.833 328.617 202.255 328.617C201.786 328.617 201.375 328.742 201.021 328.992C200.666 329.242 200.39 329.57 200.193 329.977V336H198.747V327.547H200.114ZM211.563 336.156C210.417 336.156 209.485 335.781 208.766 335.031C208.048 334.276 207.688 333.268 207.688 332.008V331.742C207.688 330.904 207.847 330.156 208.165 329.5C208.488 328.839 208.936 328.323 209.508 327.953C210.087 327.578 210.712 327.391 211.383 327.391C212.482 327.391 213.337 327.753 213.946 328.477C214.555 329.201 214.86 330.237 214.86 331.586V332.188H209.133C209.154 333.021 209.396 333.695 209.86 334.211C210.329 334.721 210.923 334.977 211.641 334.977C212.152 334.977 212.584 334.872 212.938 334.664C213.292 334.456 213.602 334.18 213.868 333.836L214.751 334.523C214.042 335.612 212.98 336.156 211.563 336.156ZM211.383 328.578C210.8 328.578 210.311 328.792 209.915 329.219C209.519 329.641 209.274 330.234 209.18 331H213.415V330.891C213.373 330.156 213.175 329.589 212.821 329.188C212.467 328.781 211.988 328.578 211.383 328.578ZM216.676 331.703C216.676 330.385 216.981 329.339 217.59 328.562C218.199 327.781 219.007 327.391 220.012 327.391C221.043 327.391 221.848 327.755 222.426 328.484L222.496 327.547H223.817V335.797C223.817 336.891 223.491 337.753 222.84 338.383C222.194 339.013 221.324 339.328 220.231 339.328C219.621 339.328 219.025 339.198 218.442 338.938C217.858 338.677 217.413 338.32 217.106 337.867L217.856 337C218.475 337.766 219.233 338.148 220.129 338.148C220.832 338.148 221.379 337.951 221.77 337.555C222.166 337.159 222.363 336.602 222.363 335.883V335.156C221.785 335.823 220.996 336.156 219.996 336.156C219.007 336.156 218.205 335.758 217.59 334.961C216.981 334.164 216.676 333.078 216.676 331.703ZM218.129 331.867C218.129 332.82 218.324 333.57 218.715 334.117C219.106 334.659 219.652 334.93 220.356 334.93C221.267 334.93 221.936 334.516 222.363 333.688V329.828C221.921 329.021 221.257 328.617 220.371 328.617C219.668 328.617 219.119 328.891 218.723 329.438C218.327 329.984 218.129 330.794 218.129 331.867ZM226.101 331.695C226.101 330.867 226.263 330.122 226.586 329.461C226.914 328.799 227.367 328.289 227.945 327.93C228.528 327.57 229.192 327.391 229.937 327.391C231.088 327.391 232.018 327.789 232.726 328.586C233.44 329.383 233.797 330.443 233.797 331.766V331.867C233.797 332.69 233.638 333.43 233.32 334.086C233.008 334.737 232.557 335.245 231.968 335.609C231.385 335.974 230.713 336.156 229.953 336.156C228.807 336.156 227.877 335.758 227.164 334.961C226.455 334.164 226.101 333.109 226.101 331.797V331.695ZM227.554 331.867C227.554 332.805 227.771 333.557 228.203 334.125C228.64 334.693 229.224 334.977 229.953 334.977C230.687 334.977 231.271 334.69 231.703 334.117C232.135 333.539 232.351 332.732 232.351 331.695C232.351 330.768 232.13 330.018 231.687 329.445C231.25 328.867 230.666 328.578 229.937 328.578C229.224 328.578 228.648 328.862 228.211 329.43C227.773 329.997 227.554 330.81 227.554 331.867ZM230.593 324H232.343L230.25 326.297H229.086L230.593 324ZM239.48 334.977C239.995 334.977 240.446 334.82 240.831 334.508C241.217 334.195 241.43 333.805 241.472 333.336H242.839C242.813 333.82 242.646 334.281 242.339 334.719C242.032 335.156 241.62 335.505 241.105 335.766C240.594 336.026 240.053 336.156 239.48 336.156C238.329 336.156 237.412 335.773 236.73 335.008C236.053 334.237 235.714 333.185 235.714 331.852V331.609C235.714 330.786 235.865 330.055 236.167 329.414C236.469 328.773 236.902 328.276 237.464 327.922C238.032 327.568 238.701 327.391 239.472 327.391C240.42 327.391 241.206 327.674 241.831 328.242C242.461 328.81 242.797 329.547 242.839 330.453H241.472C241.43 329.906 241.222 329.458 240.847 329.109C240.477 328.755 240.019 328.578 239.472 328.578C238.737 328.578 238.167 328.844 237.761 329.375C237.36 329.901 237.159 330.664 237.159 331.664V331.938C237.159 332.911 237.36 333.661 237.761 334.188C238.162 334.714 238.735 334.977 239.48 334.977ZM246.514 336H245.069V327.547H246.514V336ZM244.952 325.305C244.952 325.07 245.022 324.872 245.163 324.711C245.309 324.549 245.522 324.469 245.803 324.469C246.085 324.469 246.298 324.549 246.444 324.711C246.59 324.872 246.663 325.07 246.663 325.305C246.663 325.539 246.59 325.734 246.444 325.891C246.298 326.047 246.085 326.125 245.803 326.125C245.522 326.125 245.309 326.047 245.163 325.891C245.022 325.734 244.952 325.539 244.952 325.305ZM248.932 331.695C248.932 330.867 249.093 330.122 249.416 329.461C249.744 328.799 250.198 328.289 250.776 327.93C251.359 327.57 252.023 327.391 252.768 327.391C253.919 327.391 254.849 327.789 255.557 328.586C256.27 329.383 256.627 330.443 256.627 331.766V331.867C256.627 332.69 256.468 333.43 256.151 334.086C255.838 334.737 255.388 335.245 254.799 335.609C254.216 335.974 253.544 336.156 252.783 336.156C251.638 336.156 250.708 335.758 249.994 334.961C249.286 334.164 248.932 333.109 248.932 331.797V331.695ZM250.385 331.867C250.385 332.805 250.601 333.557 251.033 334.125C251.471 334.693 252.054 334.977 252.783 334.977C253.518 334.977 254.101 334.69 254.533 334.117C254.966 333.539 255.182 332.732 255.182 331.695C255.182 330.768 254.961 330.018 254.518 329.445C254.08 328.867 253.497 328.578 252.768 328.578C252.054 328.578 251.479 328.862 251.041 329.43C250.604 329.997 250.385 330.81 250.385 331.867Z" fill="#333333"/>
<rect x="82" y="77" width="123.538" height="146" fill="#F5F5F5"/>
<rect x="99.6484" y="94.6613" width="29.4139" height="11.7742" fill="#CCDBFF"/>
<rect x="124.356" y="157.065" width="63.5341" height="11.7742" fill="#CCDBFF"/>
<rect x="99.6484" y="121.742" width="75.2996" height="2.35484" fill="#CCDBFF"/>
<rect x="99.6484" y="128.806" width="69.4169" height="2.35484" fill="#CCDBFF"/>
<rect x="99.6484" y="187.677" width="69.4169" height="2.35484" fill="#CCDBFF"/>
<rect x="99.6484" y="135.871" width="65.8872" height="2.35484" fill="#CCDBFF"/>
<rect x="99.6484" y="142.935" width="81.1824" height="2.35484" fill="#CCDBFF"/>
<rect x="99.6484" y="194.742" width="75.2996" height="2.35484" fill="#CCDBFF"/>
<rect x="99.6484" y="201.806" width="81.1824" height="2.35484" fill="#CCDBFF"/>
<rect x="99.6484" y="150" width="81.1824" height="2.35484" fill="#CCDBFF"/>
<rect x="99.6484" y="173.548" width="69.4169" height="2.35484" fill="#CCDBFF"/>
<rect x="99.6484" y="180.613" width="76.4762" height="2.35484" fill="#CCDBFF"/>
</svg>
