<svg width="288" height="400" viewBox="0 0 288 400" fill="none" xmlns="http://www.w3.org/2000/svg">
<path d="M0 0H288V400H0V0Z" fill="white"/>
<path d="M43.7131 281.398H41.0413V286H39.5334V274.625H43.2991C44.5803 274.625 45.5647 274.917 46.2522 275.5C46.9449 276.083 47.2913 276.932 47.2913 278.047C47.2913 278.755 47.0985 279.372 46.7131 279.898C46.3329 280.424 45.8017 280.818 45.1194 281.078L47.7913 285.906V286H46.1819L43.7131 281.398ZM41.0413 280.172H43.3459C44.0907 280.172 44.6819 279.979 45.1194 279.594C45.5621 279.208 45.7834 278.693 45.7834 278.047C45.7834 277.344 45.5725 276.805 45.1506 276.43C44.734 276.055 44.1298 275.865 43.3381 275.859H41.0413V280.172ZM53.1619 286.156C52.016 286.156 51.0838 285.781 50.365 285.031C49.6463 284.276 49.2869 283.268 49.2869 282.008V281.742C49.2869 280.904 49.4457 280.156 49.7634 279.5C50.0864 278.839 50.5343 278.323 51.1072 277.953C51.6853 277.578 52.3103 277.391 52.9822 277.391C54.0811 277.391 54.9353 277.753 55.5447 278.477C56.1541 279.201 56.4588 280.237 56.4588 281.586V282.188H50.7322C50.753 283.021 50.9952 283.695 51.4588 284.211C51.9275 284.721 52.5213 284.977 53.24 284.977C53.7504 284.977 54.1827 284.872 54.5369 284.664C54.891 284.456 55.2009 284.18 55.4666 283.836L56.3494 284.523C55.641 285.612 54.5785 286.156 53.1619 286.156ZM52.9822 278.578C52.3989 278.578 51.9093 278.792 51.5134 279.219C51.1176 279.641 50.8728 280.234 50.7791 281H55.0134V280.891C54.9718 280.156 54.7739 279.589 54.4197 279.188C54.0655 278.781 53.5864 278.578 52.9822 278.578ZM62.0091 284.977C62.5247 284.977 62.9752 284.82 63.3606 284.508C63.746 284.195 63.9596 283.805 64.0013 283.336H65.3684C65.3424 283.82 65.1757 284.281 64.8684 284.719C64.5611 285.156 64.1497 285.505 63.6341 285.766C63.1236 286.026 62.582 286.156 62.0091 286.156C60.858 286.156 59.9414 285.773 59.2591 285.008C58.582 284.237 58.2434 283.185 58.2434 281.852V281.609C58.2434 280.786 58.3945 280.055 58.6966 279.414C58.9986 278.773 59.4309 278.276 59.9934 277.922C60.5611 277.568 61.2304 277.391 62.0013 277.391C62.9492 277.391 63.7356 277.674 64.3606 278.242C64.9908 278.81 65.3268 279.547 65.3684 280.453H64.0013C63.9596 279.906 63.7513 279.458 63.3763 279.109C63.0065 278.755 62.5481 278.578 62.0013 278.578C61.2669 278.578 60.6966 278.844 60.2903 279.375C59.8893 279.901 59.6888 280.664 59.6888 281.664V281.938C59.6888 282.911 59.8893 283.661 60.2903 284.188C60.6914 284.714 61.2643 284.977 62.0091 284.977ZM70.9813 286.156C69.8354 286.156 68.9031 285.781 68.1844 285.031C67.4656 284.276 67.1063 283.268 67.1063 282.008V281.742C67.1063 280.904 67.2651 280.156 67.5828 279.5C67.9057 278.839 68.3537 278.323 68.9266 277.953C69.5047 277.578 70.1297 277.391 70.8016 277.391C71.9005 277.391 72.7547 277.753 73.3641 278.477C73.9734 279.201 74.2781 280.237 74.2781 281.586V282.188H68.5516C68.5724 283.021 68.8146 283.695 69.2781 284.211C69.7469 284.721 70.3406 284.977 71.0594 284.977C71.5698 284.977 72.0021 284.872 72.3563 284.664C72.7104 284.456 73.0203 284.18 73.2859 283.836L74.1688 284.523C73.4604 285.612 72.3979 286.156 70.9813 286.156ZM70.8016 278.578C70.2182 278.578 69.7287 278.792 69.3328 279.219C68.937 279.641 68.6922 280.234 68.5984 281H72.8328V280.891C72.7912 280.156 72.5932 279.589 72.2391 279.188C71.8849 278.781 71.4057 278.578 70.8016 278.578ZM83.5941 281.867C83.5941 283.159 83.2972 284.198 82.7034 284.984C82.1097 285.766 81.3128 286.156 80.3128 286.156C79.2451 286.156 78.4196 285.779 77.8363 285.023L77.7659 286H76.4378V274H77.8831V278.477C78.4665 277.753 79.2711 277.391 80.2972 277.391C81.3232 277.391 82.1279 277.779 82.7113 278.555C83.2998 279.331 83.5941 280.393 83.5941 281.742V281.867ZM82.1488 281.703C82.1488 280.719 81.9586 279.958 81.5784 279.422C81.1982 278.885 80.6514 278.617 79.9378 278.617C78.9847 278.617 78.2998 279.06 77.8831 279.945V283.602C78.3258 284.487 79.0159 284.93 79.9534 284.93C80.6461 284.93 81.1852 284.661 81.5706 284.125C81.956 283.589 82.1488 282.781 82.1488 281.703ZM91.1209 286C91.0376 285.833 90.9699 285.536 90.9178 285.109C90.2459 285.807 89.4439 286.156 88.5116 286.156C87.6782 286.156 86.9933 285.922 86.4569 285.453C85.9256 284.979 85.66 284.38 85.66 283.656C85.66 282.776 85.9933 282.094 86.66 281.609C87.3319 281.12 88.2746 280.875 89.4881 280.875H90.8944V280.211C90.8944 279.706 90.7433 279.305 90.4413 279.008C90.1392 278.706 89.6939 278.555 89.1053 278.555C88.5897 278.555 88.1574 278.685 87.8084 278.945C87.4595 279.206 87.285 279.521 87.285 279.891H85.8319C85.8319 279.469 85.9803 279.062 86.2772 278.672C86.5793 278.276 86.9855 277.964 87.4959 277.734C88.0116 277.505 88.5767 277.391 89.1913 277.391C90.1652 277.391 90.9282 277.635 91.4803 278.125C92.0324 278.609 92.3189 279.279 92.3397 280.133V284.023C92.3397 284.799 92.4386 285.417 92.6366 285.875V286H91.1209ZM88.7225 284.898C89.1756 284.898 89.6053 284.781 90.0116 284.547C90.4178 284.312 90.7121 284.008 90.8944 283.633V281.898H89.7616C87.9907 281.898 87.1053 282.417 87.1053 283.453C87.1053 283.906 87.2564 284.26 87.5584 284.516C87.8605 284.771 88.2485 284.898 88.7225 284.898ZM104.753 286C104.669 285.833 104.602 285.536 104.55 285.109C103.878 285.807 103.076 286.156 102.143 286.156C101.31 286.156 100.625 285.922 100.089 285.453C99.5575 284.979 99.2919 284.38 99.2919 283.656C99.2919 282.776 99.6252 282.094 100.292 281.609C100.964 281.12 101.906 280.875 103.12 280.875H104.526V280.211C104.526 279.706 104.375 279.305 104.073 279.008C103.771 278.706 103.326 278.555 102.737 278.555C102.222 278.555 101.789 278.685 101.44 278.945C101.091 279.206 100.917 279.521 100.917 279.891H99.4638C99.4638 279.469 99.6122 279.062 99.9091 278.672C100.211 278.276 100.617 277.964 101.128 277.734C101.643 277.505 102.209 277.391 102.823 277.391C103.797 277.391 104.56 277.635 105.112 278.125C105.664 278.609 105.951 279.279 105.972 280.133V284.023C105.972 284.799 106.071 285.417 106.268 285.875V286H104.753ZM102.354 284.898C102.808 284.898 103.237 284.781 103.643 284.547C104.05 284.312 104.344 284.008 104.526 283.633V281.898H103.393C101.623 281.898 100.737 282.417 100.737 283.453C100.737 283.906 100.888 284.26 101.19 284.516C101.492 284.771 101.88 284.898 102.354 284.898ZM113.639 283.758C113.639 283.367 113.491 283.065 113.194 282.852C112.902 282.633 112.389 282.445 111.655 282.289C110.926 282.133 110.345 281.945 109.912 281.727C109.485 281.508 109.168 281.247 108.959 280.945C108.756 280.643 108.655 280.284 108.655 279.867C108.655 279.174 108.946 278.589 109.53 278.109C110.118 277.63 110.868 277.391 111.78 277.391C112.738 277.391 113.514 277.638 114.108 278.133C114.707 278.628 115.006 279.26 115.006 280.031H113.553C113.553 279.635 113.384 279.294 113.045 279.008C112.712 278.721 112.29 278.578 111.78 278.578C111.254 278.578 110.842 278.693 110.545 278.922C110.248 279.151 110.1 279.451 110.1 279.82C110.1 280.169 110.238 280.432 110.514 280.609C110.79 280.786 111.287 280.956 112.006 281.117C112.73 281.279 113.316 281.471 113.764 281.695C114.212 281.919 114.543 282.19 114.756 282.508C114.975 282.82 115.084 283.203 115.084 283.656C115.084 284.411 114.782 285.018 114.178 285.477C113.574 285.93 112.79 286.156 111.827 286.156C111.149 286.156 110.551 286.036 110.03 285.797C109.509 285.557 109.1 285.224 108.803 284.797C108.511 284.365 108.366 283.898 108.366 283.398H109.811C109.837 283.883 110.03 284.268 110.389 284.555C110.754 284.836 111.233 284.977 111.827 284.977C112.373 284.977 112.811 284.867 113.139 284.648C113.472 284.424 113.639 284.128 113.639 283.758ZM123.255 277.547L123.294 278.484C123.914 277.755 124.75 277.391 125.802 277.391C126.984 277.391 127.789 277.844 128.216 278.75C128.498 278.344 128.862 278.016 129.31 277.766C129.763 277.516 130.297 277.391 130.912 277.391C132.766 277.391 133.708 278.372 133.74 280.336V286H132.294V280.422C132.294 279.818 132.156 279.367 131.88 279.07C131.604 278.768 131.141 278.617 130.49 278.617C129.953 278.617 129.508 278.779 129.154 279.102C128.8 279.419 128.594 279.849 128.537 280.391V286H127.083V280.461C127.083 279.232 126.482 278.617 125.279 278.617C124.331 278.617 123.682 279.021 123.333 279.828V286H121.888V277.547H123.255ZM139.915 286.156C138.769 286.156 137.837 285.781 137.118 285.031C136.399 284.276 136.04 283.268 136.04 282.008V281.742C136.04 280.904 136.199 280.156 136.517 279.5C136.839 278.839 137.287 278.323 137.86 277.953C138.438 277.578 139.063 277.391 139.735 277.391C140.834 277.391 141.688 277.753 142.298 278.477C142.907 279.201 143.212 280.237 143.212 281.586V282.188H137.485C137.506 283.021 137.748 283.695 138.212 284.211C138.681 284.721 139.274 284.977 139.993 284.977C140.504 284.977 140.936 284.872 141.29 284.664C141.644 284.456 141.954 284.18 142.22 283.836L143.103 284.523C142.394 285.612 141.332 286.156 139.915 286.156ZM139.735 278.578C139.152 278.578 138.662 278.792 138.267 279.219C137.871 279.641 137.626 280.234 137.532 281H141.767V280.891C141.725 280.156 141.527 279.589 141.173 279.188C140.819 278.781 140.339 278.578 139.735 278.578ZM146.942 286H145.497V274H146.942V286ZM151.188 278.57C151.828 277.784 152.661 277.391 153.688 277.391C155.474 277.391 156.375 278.398 156.391 280.414V286H154.945V280.406C154.94 279.797 154.799 279.346 154.523 279.055C154.253 278.763 153.828 278.617 153.25 278.617C152.781 278.617 152.37 278.742 152.016 278.992C151.661 279.242 151.385 279.57 151.188 279.977V286H149.742V274H151.188V278.57ZM158.652 281.695C158.652 280.867 158.813 280.122 159.136 279.461C159.464 278.799 159.918 278.289 160.496 277.93C161.079 277.57 161.743 277.391 162.488 277.391C163.639 277.391 164.569 277.789 165.277 278.586C165.99 279.383 166.347 280.443 166.347 281.766V281.867C166.347 282.69 166.188 283.43 165.871 284.086C165.558 284.737 165.108 285.245 164.519 285.609C163.936 285.974 163.264 286.156 162.503 286.156C161.358 286.156 160.428 285.758 159.714 284.961C159.006 284.164 158.652 283.109 158.652 281.797V281.695ZM160.105 281.867C160.105 282.805 160.321 283.557 160.753 284.125C161.191 284.693 161.774 284.977 162.503 284.977C163.238 284.977 163.821 284.69 164.253 284.117C164.686 283.539 164.902 282.732 164.902 281.695C164.902 280.768 164.681 280.018 164.238 279.445C163.8 278.867 163.217 278.578 162.488 278.578C161.774 278.578 161.199 278.862 160.761 279.43C160.324 279.997 160.105 280.81 160.105 281.867ZM172.726 278.844C172.507 278.807 172.27 278.789 172.015 278.789C171.067 278.789 170.424 279.193 170.085 280V286H168.64V277.547H170.046L170.069 278.523C170.543 277.768 171.215 277.391 172.085 277.391C172.366 277.391 172.58 277.427 172.726 277.5V278.844ZM177.893 286.156C176.747 286.156 175.815 285.781 175.096 285.031C174.378 284.276 174.018 283.268 174.018 282.008V281.742C174.018 280.904 174.177 280.156 174.495 279.5C174.818 278.839 175.266 278.323 175.838 277.953C176.417 277.578 177.042 277.391 177.713 277.391C178.812 277.391 179.667 277.753 180.276 278.477C180.885 279.201 181.19 280.237 181.19 281.586V282.188H175.463C175.484 283.021 175.726 283.695 176.19 284.211C176.659 284.721 177.253 284.977 177.971 284.977C178.482 284.977 178.914 284.872 179.268 284.664C179.622 284.456 179.932 284.18 180.198 283.836L181.081 284.523C180.372 285.612 179.31 286.156 177.893 286.156ZM177.713 278.578C177.13 278.578 176.641 278.792 176.245 279.219C175.849 279.641 175.604 280.234 175.51 281H179.745V280.891C179.703 280.156 179.505 279.589 179.151 279.188C178.797 278.781 178.318 278.578 177.713 278.578ZM188.272 283.758C188.272 283.367 188.123 283.065 187.826 282.852C187.535 282.633 187.022 282.445 186.287 282.289C185.558 282.133 184.977 281.945 184.545 281.727C184.118 281.508 183.8 281.247 183.592 280.945C183.389 280.643 183.287 280.284 183.287 279.867C183.287 279.174 183.579 278.589 184.162 278.109C184.751 277.63 185.501 277.391 186.412 277.391C187.371 277.391 188.147 277.638 188.74 278.133C189.339 278.628 189.639 279.26 189.639 280.031H188.186C188.186 279.635 188.016 279.294 187.678 279.008C187.344 278.721 186.923 278.578 186.412 278.578C185.886 278.578 185.475 278.693 185.178 278.922C184.881 279.151 184.733 279.451 184.733 279.82C184.733 280.169 184.871 280.432 185.147 280.609C185.423 280.786 185.92 280.956 186.639 281.117C187.363 281.279 187.949 281.471 188.397 281.695C188.844 281.919 189.175 282.19 189.389 282.508C189.608 282.82 189.717 283.203 189.717 283.656C189.717 284.411 189.415 285.018 188.811 285.477C188.206 285.93 187.423 286.156 186.459 286.156C185.782 286.156 185.183 286.036 184.662 285.797C184.141 285.557 183.733 285.224 183.436 284.797C183.144 284.365 182.998 283.898 182.998 283.398H184.443C184.469 283.883 184.662 284.268 185.022 284.555C185.386 284.836 185.865 284.977 186.459 284.977C187.006 284.977 187.443 284.867 187.772 284.648C188.105 284.424 188.272 284.128 188.272 283.758ZM196.146 281.695C196.146 280.867 196.307 280.122 196.63 279.461C196.958 278.799 197.411 278.289 197.989 277.93C198.573 277.57 199.237 277.391 199.982 277.391C201.133 277.391 202.062 277.789 202.771 278.586C203.484 279.383 203.841 280.443 203.841 281.766V281.867C203.841 282.69 203.682 283.43 203.364 284.086C203.052 284.737 202.601 285.245 202.013 285.609C201.429 285.974 200.758 286.156 199.997 286.156C198.851 286.156 197.922 285.758 197.208 284.961C196.5 284.164 196.146 283.109 196.146 281.797V281.695ZM197.599 281.867C197.599 282.805 197.815 283.557 198.247 284.125C198.685 284.693 199.268 284.977 199.997 284.977C200.732 284.977 201.315 284.69 201.747 284.117C202.179 283.539 202.396 282.732 202.396 281.695C202.396 280.768 202.174 280.018 201.732 279.445C201.294 278.867 200.711 278.578 199.982 278.578C199.268 278.578 198.693 278.862 198.255 279.43C197.818 279.997 197.599 280.81 197.599 281.867ZM206.844 286V278.664H205.508V277.547H206.844V276.68C206.844 275.773 207.087 275.073 207.571 274.578C208.055 274.083 208.74 273.836 209.626 273.836C209.959 273.836 210.29 273.88 210.618 273.969L210.54 275.141C210.295 275.094 210.034 275.07 209.758 275.07C209.29 275.07 208.928 275.208 208.673 275.484C208.417 275.755 208.29 276.146 208.29 276.656V277.547H210.094V278.664H208.29V286H206.844ZM215.496 286.156C214.35 286.156 213.418 285.781 212.699 285.031C211.981 284.276 211.621 283.268 211.621 282.008V281.742C211.621 280.904 211.78 280.156 212.098 279.5C212.421 278.839 212.869 278.323 213.442 277.953C214.02 277.578 214.645 277.391 215.317 277.391C216.416 277.391 217.27 277.753 217.879 278.477C218.488 279.201 218.793 280.237 218.793 281.586V282.188H213.067C213.087 283.021 213.33 283.695 213.793 284.211C214.262 284.721 214.856 284.977 215.574 284.977C216.085 284.977 216.517 284.872 216.871 284.664C217.225 284.456 217.535 284.18 217.801 283.836L218.684 284.523C217.975 285.612 216.913 286.156 215.496 286.156ZM215.317 278.578C214.733 278.578 214.244 278.792 213.848 279.219C213.452 279.641 213.207 280.234 213.113 281H217.348V280.891C217.306 280.156 217.108 279.589 216.754 279.188C216.4 278.781 215.921 278.578 215.317 278.578ZM225.039 278.844C224.82 278.807 224.583 278.789 224.328 278.789C223.38 278.789 222.737 279.193 222.398 280V286H220.953V277.547H222.359L222.383 278.523C222.856 277.768 223.528 277.391 224.398 277.391C224.679 277.391 224.893 277.427 225.039 277.5V278.844ZM229.206 275.5V277.547H230.784V278.664H229.206V283.906C229.206 284.245 229.277 284.5 229.417 284.672C229.558 284.839 229.797 284.922 230.136 284.922C230.303 284.922 230.532 284.891 230.823 284.828V286C230.443 286.104 230.073 286.156 229.714 286.156C229.068 286.156 228.581 285.961 228.253 285.57C227.925 285.18 227.761 284.625 227.761 283.906V278.664H226.222V277.547H227.761V275.5H229.206ZM238.178 286C238.095 285.833 238.027 285.536 237.975 285.109C237.303 285.807 236.501 286.156 235.569 286.156C234.736 286.156 234.051 285.922 233.514 285.453C232.983 284.979 232.717 284.38 232.717 283.656C232.717 282.776 233.051 282.094 233.717 281.609C234.389 281.12 235.332 280.875 236.546 280.875H237.952V280.211C237.952 279.706 237.801 279.305 237.499 279.008C237.197 278.706 236.751 278.555 236.163 278.555C235.647 278.555 235.215 278.685 234.866 278.945C234.517 279.206 234.342 279.521 234.342 279.891H232.889C232.889 279.469 233.038 279.062 233.335 278.672C233.637 278.276 234.043 277.964 234.553 277.734C235.069 277.505 235.634 277.391 236.249 277.391C237.223 277.391 237.986 277.635 238.538 278.125C239.09 278.609 239.376 279.279 239.397 280.133V284.023C239.397 284.799 239.496 285.417 239.694 285.875V286H238.178ZM235.78 284.898C236.233 284.898 236.663 284.781 237.069 284.547C237.475 284.312 237.77 284.008 237.952 283.633V281.898H236.819C235.048 281.898 234.163 282.417 234.163 283.453C234.163 283.906 234.314 284.26 234.616 284.516C234.918 284.771 235.306 284.898 235.78 284.898ZM247.065 283.758C247.065 283.367 246.916 283.065 246.619 282.852C246.328 282.633 245.815 282.445 245.08 282.289C244.351 282.133 243.77 281.945 243.338 281.727C242.911 281.508 242.593 281.247 242.385 280.945C242.182 280.643 242.08 280.284 242.08 279.867C242.08 279.174 242.372 278.589 242.955 278.109C243.544 277.63 244.294 277.391 245.205 277.391C246.164 277.391 246.94 277.638 247.533 278.133C248.132 278.628 248.432 279.26 248.432 280.031H246.979C246.979 279.635 246.809 279.294 246.471 279.008C246.138 278.721 245.716 278.578 245.205 278.578C244.679 278.578 244.268 278.693 243.971 278.922C243.674 279.151 243.526 279.451 243.526 279.82C243.526 280.169 243.664 280.432 243.94 280.609C244.216 280.786 244.713 280.956 245.432 281.117C246.156 281.279 246.742 281.471 247.19 281.695C247.638 281.919 247.968 282.19 248.182 282.508C248.401 282.82 248.51 283.203 248.51 283.656C248.51 284.411 248.208 285.018 247.604 285.477C247 285.93 246.216 286.156 245.252 286.156C244.575 286.156 243.976 286.036 243.455 285.797C242.934 285.557 242.526 285.224 242.229 284.797C241.937 284.365 241.791 283.898 241.791 283.398H243.237C243.263 283.883 243.455 284.268 243.815 284.555C244.179 284.836 244.658 284.977 245.252 284.977C245.799 284.977 246.237 284.867 246.565 284.648C246.898 284.424 247.065 284.128 247.065 283.758ZM37.8625 305.867C37.8625 307.154 37.5682 308.19 36.9797 308.977C36.3911 309.763 35.5943 310.156 34.5891 310.156C33.563 310.156 32.7557 309.831 32.1672 309.18V313.25H30.7219V301.547H32.0422L32.1125 302.484C32.701 301.755 33.5188 301.391 34.5656 301.391C35.5813 301.391 36.3833 301.773 36.9719 302.539C37.5656 303.305 37.8625 304.37 37.8625 305.734V305.867ZM36.4172 305.703C36.4172 304.75 36.2141 303.997 35.8078 303.445C35.4016 302.893 34.8443 302.617 34.1359 302.617C33.2609 302.617 32.6047 303.005 32.1672 303.781V307.82C32.5995 308.591 33.2609 308.977 34.1516 308.977C34.8443 308.977 35.3938 308.703 35.8 308.156C36.2115 307.604 36.4172 306.786 36.4172 305.703ZM43.6941 310.156C42.5482 310.156 41.6159 309.781 40.8972 309.031C40.1784 308.276 39.8191 307.268 39.8191 306.008V305.742C39.8191 304.904 39.9779 304.156 40.2956 303.5C40.6185 302.839 41.0665 302.323 41.6394 301.953C42.2175 301.578 42.8425 301.391 43.5144 301.391C44.6133 301.391 45.4675 301.753 46.0769 302.477C46.6863 303.201 46.9909 304.237 46.9909 305.586V306.188H41.2644C41.2852 307.021 41.5274 307.695 41.9909 308.211C42.4597 308.721 43.0534 308.977 43.7722 308.977C44.2826 308.977 44.7149 308.872 45.0691 308.664C45.4232 308.456 45.7331 308.18 45.9988 307.836L46.8816 308.523C46.1732 309.612 45.1107 310.156 43.6941 310.156ZM43.5144 302.578C42.931 302.578 42.4415 302.792 42.0456 303.219C41.6498 303.641 41.405 304.234 41.3113 305H45.5456V304.891C45.504 304.156 45.306 303.589 44.9519 303.188C44.5977 302.781 44.1185 302.578 43.5144 302.578ZM50.7209 310H49.2756V298H50.7209V310ZM58.74 310C58.6567 309.833 58.589 309.536 58.5369 309.109C57.865 309.807 57.0629 310.156 56.1306 310.156C55.2973 310.156 54.6124 309.922 54.0759 309.453C53.5447 308.979 53.2791 308.38 53.2791 307.656C53.2791 306.776 53.6124 306.094 54.2791 305.609C54.9509 305.12 55.8936 304.875 57.1072 304.875H58.5134V304.211C58.5134 303.706 58.3624 303.305 58.0603 303.008C57.7582 302.706 57.3129 302.555 56.7244 302.555C56.2088 302.555 55.7765 302.685 55.4275 302.945C55.0785 303.206 54.9041 303.521 54.9041 303.891H53.4509C53.4509 303.469 53.5994 303.062 53.8963 302.672C54.1983 302.276 54.6046 301.964 55.115 301.734C55.6306 301.505 56.1957 301.391 56.8103 301.391C57.7843 301.391 58.5473 301.635 59.0994 302.125C59.6515 302.609 59.9379 303.279 59.9588 304.133V308.023C59.9588 308.799 60.0577 309.417 60.2556 309.875V310H58.74ZM56.3416 308.898C56.7947 308.898 57.2244 308.781 57.6306 308.547C58.0369 308.312 58.3311 308.008 58.5134 307.633V305.898H57.3806C55.6098 305.898 54.7244 306.417 54.7244 307.453C54.7244 307.906 54.8754 308.26 55.1775 308.516C55.4796 308.771 55.8676 308.898 56.3416 308.898ZM67.6263 307.758C67.6263 307.367 67.4778 307.065 67.1809 306.852C66.8893 306.633 66.3763 306.445 65.6419 306.289C64.9127 306.133 64.332 305.945 63.8997 305.727C63.4726 305.508 63.1549 305.247 62.9466 304.945C62.7434 304.643 62.6419 304.284 62.6419 303.867C62.6419 303.174 62.9335 302.589 63.5169 302.109C64.1054 301.63 64.8554 301.391 65.7669 301.391C66.7252 301.391 67.5013 301.638 68.095 302.133C68.694 302.628 68.9934 303.26 68.9934 304.031H67.5403C67.5403 303.635 67.371 303.294 67.0325 303.008C66.6992 302.721 66.2773 302.578 65.7669 302.578C65.2408 302.578 64.8294 302.693 64.5325 302.922C64.2356 303.151 64.0872 303.451 64.0872 303.82C64.0872 304.169 64.2252 304.432 64.5013 304.609C64.7773 304.786 65.2747 304.956 65.9934 305.117C66.7174 305.279 67.3033 305.471 67.7513 305.695C68.1992 305.919 68.5299 306.19 68.7434 306.508C68.9622 306.82 69.0716 307.203 69.0716 307.656C69.0716 308.411 68.7695 309.018 68.1653 309.477C67.5611 309.93 66.7773 310.156 65.8138 310.156C65.1367 310.156 64.5377 310.036 64.0169 309.797C63.496 309.557 63.0872 309.224 62.7903 308.797C62.4986 308.365 62.3528 307.898 62.3528 307.398H63.7981C63.8242 307.883 64.0169 308.268 64.3763 308.555C64.7408 308.836 65.22 308.977 65.8138 308.977C66.3606 308.977 66.7981 308.867 67.1263 308.648C67.4596 308.424 67.6263 308.128 67.6263 307.758ZM75.5316 305.703C75.5316 304.406 75.8389 303.365 76.4534 302.578C77.068 301.786 77.8727 301.391 78.8675 301.391C79.8571 301.391 80.6409 301.729 81.2191 302.406V298H82.6644V310H81.3363L81.2659 309.094C80.6878 309.802 79.8831 310.156 78.8519 310.156C77.8727 310.156 77.0732 309.755 76.4534 308.953C75.8389 308.151 75.5316 307.104 75.5316 305.812V305.703ZM76.9769 305.867C76.9769 306.826 77.1748 307.576 77.5706 308.117C77.9665 308.659 78.5133 308.93 79.2113 308.93C80.1279 308.93 80.7972 308.518 81.2191 307.695V303.812C80.7868 303.016 80.1227 302.617 79.2269 302.617C78.5185 302.617 77.9665 302.891 77.5706 303.438C77.1748 303.984 76.9769 304.794 76.9769 305.867ZM86.9647 310H85.5194V301.547H86.9647V310ZM85.4022 299.305C85.4022 299.07 85.4725 298.872 85.6131 298.711C85.759 298.549 85.9725 298.469 86.2538 298.469C86.535 298.469 86.7485 298.549 86.8944 298.711C87.0402 298.872 87.1131 299.07 87.1131 299.305C87.1131 299.539 87.0402 299.734 86.8944 299.891C86.7485 300.047 86.535 300.125 86.2538 300.125C85.9725 300.125 85.759 300.047 85.6131 299.891C85.4725 299.734 85.4022 299.539 85.4022 299.305ZM94.6869 307.758C94.6869 307.367 94.5384 307.065 94.2416 306.852C93.9499 306.633 93.4369 306.445 92.7025 306.289C91.9733 306.133 91.3926 305.945 90.9603 305.727C90.5332 305.508 90.2155 305.247 90.0072 304.945C89.8041 304.643 89.7025 304.284 89.7025 303.867C89.7025 303.174 89.9942 302.589 90.5775 302.109C91.166 301.63 91.916 301.391 92.8275 301.391C93.7858 301.391 94.5619 301.638 95.1556 302.133C95.7546 302.628 96.0541 303.26 96.0541 304.031H94.6009C94.6009 303.635 94.4317 303.294 94.0931 303.008C93.7598 302.721 93.3379 302.578 92.8275 302.578C92.3015 302.578 91.89 302.693 91.5931 302.922C91.2963 303.151 91.1478 303.451 91.1478 303.82C91.1478 304.169 91.2858 304.432 91.5619 304.609C91.8379 304.786 92.3353 304.956 93.0541 305.117C93.778 305.279 94.364 305.471 94.8119 305.695C95.2598 305.919 95.5905 306.19 95.8041 306.508C96.0228 306.82 96.1322 307.203 96.1322 307.656C96.1322 308.411 95.8301 309.018 95.2259 309.477C94.6218 309.93 93.8379 310.156 92.8744 310.156C92.1973 310.156 91.5983 310.036 91.0775 309.797C90.5567 309.557 90.1478 309.224 89.8509 308.797C89.5593 308.365 89.4134 307.898 89.4134 307.398H90.8588C90.8848 307.883 91.0775 308.268 91.4369 308.555C91.8015 308.836 92.2806 308.977 92.8744 308.977C93.4213 308.977 93.8588 308.867 94.1869 308.648C94.5202 308.424 94.6869 308.128 94.6869 307.758ZM100.456 299.5V301.547H102.034V302.664H100.456V307.906C100.456 308.245 100.526 308.5 100.667 308.672C100.808 308.839 101.047 308.922 101.386 308.922C101.552 308.922 101.781 308.891 102.073 308.828V310C101.693 310.104 101.323 310.156 100.964 310.156C100.318 310.156 99.8309 309.961 99.5028 309.57C99.1747 309.18 99.0106 308.625 99.0106 307.906V302.664H97.4716V301.547H99.0106V299.5H100.456ZM108.295 302.844C108.077 302.807 107.84 302.789 107.584 302.789C106.636 302.789 105.993 303.193 105.655 304V310H104.209V301.547H105.616L105.639 302.523C106.113 301.768 106.785 301.391 107.655 301.391C107.936 301.391 108.149 301.427 108.295 301.5V302.844ZM111.682 310H110.236V301.547H111.682V310ZM110.119 299.305C110.119 299.07 110.189 298.872 110.33 298.711C110.476 298.549 110.689 298.469 110.971 298.469C111.252 298.469 111.465 298.549 111.611 298.711C111.757 298.872 111.83 299.07 111.83 299.305C111.83 299.539 111.757 299.734 111.611 299.891C111.465 300.047 111.252 300.125 110.971 300.125C110.689 300.125 110.476 300.047 110.33 299.891C110.189 299.734 110.119 299.539 110.119 299.305ZM121.638 305.867C121.638 307.159 121.341 308.198 120.748 308.984C120.154 309.766 119.357 310.156 118.357 310.156C117.289 310.156 116.464 309.779 115.88 309.023L115.81 310H114.482V298H115.927V302.477C116.511 301.753 117.315 301.391 118.341 301.391C119.367 301.391 120.172 301.779 120.755 302.555C121.344 303.331 121.638 304.393 121.638 305.742V305.867ZM120.193 305.703C120.193 304.719 120.003 303.958 119.623 303.422C119.242 302.885 118.695 302.617 117.982 302.617C117.029 302.617 116.344 303.06 115.927 303.945V307.602C116.37 308.487 117.06 308.93 117.998 308.93C118.69 308.93 119.229 308.661 119.615 308.125C120 307.589 120.193 306.781 120.193 305.703ZM129.165 309.164C128.603 309.826 127.777 310.156 126.688 310.156C125.787 310.156 125.1 309.896 124.626 309.375C124.157 308.849 123.92 308.073 123.915 307.047V301.547H125.36V307.008C125.36 308.289 125.881 308.93 126.923 308.93C128.027 308.93 128.761 308.518 129.126 307.695V301.547H130.571V310H129.196L129.165 309.164ZM134.825 310H133.379V301.547H134.825V310ZM133.262 299.305C133.262 299.07 133.333 298.872 133.473 298.711C133.619 298.549 133.833 298.469 134.114 298.469C134.395 298.469 134.609 298.549 134.754 298.711C134.9 298.872 134.973 299.07 134.973 299.305C134.973 299.539 134.9 299.734 134.754 299.891C134.609 300.047 134.395 300.125 134.114 300.125C133.833 300.125 133.619 300.047 133.473 299.891C133.333 299.734 133.262 299.539 133.262 299.305ZM137.273 305.703C137.273 304.406 137.581 303.365 138.195 302.578C138.81 301.786 139.615 301.391 140.609 301.391C141.599 301.391 142.383 301.729 142.961 302.406V298H144.406V310H143.078L143.008 309.094C142.43 309.802 141.625 310.156 140.594 310.156C139.615 310.156 138.815 309.755 138.195 308.953C137.581 308.151 137.273 307.104 137.273 305.812V305.703ZM138.719 305.867C138.719 306.826 138.917 307.576 139.312 308.117C139.708 308.659 140.255 308.93 140.953 308.93C141.87 308.93 142.539 308.518 142.961 307.695V303.812C142.529 303.016 141.865 302.617 140.969 302.617C140.26 302.617 139.708 302.891 139.312 303.438C138.917 303.984 138.719 304.794 138.719 305.867ZM146.753 305.695C146.753 304.867 146.915 304.122 147.238 303.461C147.566 302.799 148.019 302.289 148.597 301.93C149.181 301.57 149.845 301.391 150.589 301.391C151.74 301.391 152.67 301.789 153.378 302.586C154.092 303.383 154.449 304.443 154.449 305.766V305.867C154.449 306.69 154.29 307.43 153.972 308.086C153.66 308.737 153.209 309.245 152.621 309.609C152.037 309.974 151.365 310.156 150.605 310.156C149.459 310.156 148.529 309.758 147.816 308.961C147.108 308.164 146.753 307.109 146.753 305.797V305.695ZM148.207 305.867C148.207 306.805 148.423 307.557 148.855 308.125C149.293 308.693 149.876 308.977 150.605 308.977C151.339 308.977 151.923 308.69 152.355 308.117C152.787 307.539 153.003 306.732 153.003 305.695C153.003 304.768 152.782 304.018 152.339 303.445C151.902 302.867 151.319 302.578 150.589 302.578C149.876 302.578 149.3 302.862 148.863 303.43C148.425 303.997 148.207 304.81 148.207 305.867ZM160.827 302.844C160.608 302.807 160.371 302.789 160.116 302.789C159.168 302.789 158.525 303.193 158.187 304V310H156.741V301.547H158.147L158.171 302.523C158.645 301.768 159.317 301.391 160.187 301.391C160.468 301.391 160.681 301.427 160.827 301.5V302.844ZM167.549 310C167.466 309.833 167.398 309.536 167.346 309.109C166.674 309.807 165.872 310.156 164.94 310.156C164.107 310.156 163.422 309.922 162.885 309.453C162.354 308.979 162.088 308.38 162.088 307.656C162.088 306.776 162.422 306.094 163.088 305.609C163.76 305.12 164.703 304.875 165.917 304.875H167.323V304.211C167.323 303.706 167.172 303.305 166.87 303.008C166.568 302.706 166.122 302.555 165.534 302.555C165.018 302.555 164.586 302.685 164.237 302.945C163.888 303.206 163.713 303.521 163.713 303.891H162.26C162.26 303.469 162.409 303.062 162.706 302.672C163.008 302.276 163.414 301.964 163.924 301.734C164.44 301.505 165.005 301.391 165.62 301.391C166.594 301.391 167.357 301.635 167.909 302.125C168.461 302.609 168.747 303.279 168.768 304.133V308.023C168.768 308.799 168.867 309.417 169.065 309.875V310H167.549ZM165.151 308.898C165.604 308.898 166.034 308.781 166.44 308.547C166.846 308.312 167.141 308.008 167.323 307.633V305.898H166.19C164.419 305.898 163.534 306.417 163.534 307.453C163.534 307.906 163.685 308.26 163.987 308.516C164.289 308.771 164.677 308.898 165.151 308.898ZM176.436 307.758C176.436 307.367 176.287 307.065 175.99 306.852C175.699 306.633 175.186 306.445 174.451 306.289C173.722 306.133 173.141 305.945 172.709 305.727C172.282 305.508 171.964 305.247 171.756 304.945C171.553 304.643 171.451 304.284 171.451 303.867C171.451 303.174 171.743 302.589 172.326 302.109C172.915 301.63 173.665 301.391 174.576 301.391C175.535 301.391 176.311 301.638 176.904 302.133C177.503 302.628 177.803 303.26 177.803 304.031H176.35C176.35 303.635 176.18 303.294 175.842 303.008C175.509 302.721 175.087 302.578 174.576 302.578C174.05 302.578 173.639 302.693 173.342 302.922C173.045 303.151 172.897 303.451 172.897 303.82C172.897 304.169 173.035 304.432 173.311 304.609C173.587 304.786 174.084 304.956 174.803 305.117C175.527 305.279 176.113 305.471 176.561 305.695C177.009 305.919 177.339 306.19 177.553 306.508C177.772 306.82 177.881 307.203 177.881 307.656C177.881 308.411 177.579 309.018 176.975 309.477C176.371 309.93 175.587 310.156 174.623 310.156C173.946 310.156 173.347 310.036 172.826 309.797C172.305 309.557 171.897 309.224 171.6 308.797C171.308 308.365 171.162 307.898 171.162 307.398H172.607C172.634 307.883 172.826 308.268 173.186 308.555C173.55 308.836 174.029 308.977 174.623 308.977C175.17 308.977 175.607 308.867 175.936 308.648C176.269 308.424 176.436 308.128 176.436 307.758ZM188.2 310.156C187.054 310.156 186.122 309.781 185.403 309.031C184.685 308.276 184.325 307.268 184.325 306.008V305.742C184.325 304.904 184.484 304.156 184.802 303.5C185.125 302.839 185.573 302.323 186.146 301.953C186.724 301.578 187.349 301.391 188.021 301.391C189.12 301.391 189.974 301.753 190.583 302.477C191.193 303.201 191.497 304.237 191.497 305.586V306.188H185.771C185.791 307.021 186.034 307.695 186.497 308.211C186.966 308.721 187.56 308.977 188.278 308.977C188.789 308.977 189.221 308.872 189.575 308.664C189.929 308.456 190.239 308.18 190.505 307.836L191.388 308.523C190.679 309.612 189.617 310.156 188.2 310.156ZM188.021 302.578C187.437 302.578 186.948 302.792 186.552 303.219C186.156 303.641 185.911 304.234 185.818 305H190.052V304.891C190.01 304.156 189.812 303.589 189.458 303.188C189.104 302.781 188.625 302.578 188.021 302.578ZM203.324 310C203.241 309.833 203.173 309.536 203.121 309.109C202.449 309.807 201.647 310.156 200.715 310.156C199.882 310.156 199.197 309.922 198.66 309.453C198.129 308.979 197.863 308.38 197.863 307.656C197.863 306.776 198.197 306.094 198.863 305.609C199.535 305.12 200.478 304.875 201.692 304.875H203.098V304.211C203.098 303.706 202.947 303.305 202.645 303.008C202.343 302.706 201.897 302.555 201.309 302.555C200.793 302.555 200.361 302.685 200.012 302.945C199.663 303.206 199.488 303.521 199.488 303.891H198.035C198.035 303.469 198.184 303.062 198.481 302.672C198.783 302.276 199.189 301.964 199.699 301.734C200.215 301.505 200.78 301.391 201.395 301.391C202.369 301.391 203.132 301.635 203.684 302.125C204.236 302.609 204.522 303.279 204.543 304.133V308.023C204.543 308.799 204.642 309.417 204.84 309.875V310H203.324ZM200.926 308.898C201.379 308.898 201.809 308.781 202.215 308.547C202.621 308.312 202.916 308.008 203.098 307.633V305.898H201.965C200.194 305.898 199.309 306.417 199.309 307.453C199.309 307.906 199.46 308.26 199.762 308.516C200.064 308.771 200.452 308.898 200.926 308.898ZM206.945 305.703C206.945 304.385 207.25 303.339 207.859 302.562C208.468 301.781 209.276 301.391 210.281 301.391C211.312 301.391 212.117 301.755 212.695 302.484L212.765 301.547H214.086V309.797C214.086 310.891 213.76 311.753 213.109 312.383C212.463 313.013 211.593 313.328 210.5 313.328C209.89 313.328 209.294 313.198 208.711 312.938C208.127 312.677 207.682 312.32 207.375 311.867L208.125 311C208.744 311.766 209.502 312.148 210.398 312.148C211.101 312.148 211.648 311.951 212.039 311.555C212.435 311.159 212.633 310.602 212.633 309.883V309.156C212.054 309.823 211.265 310.156 210.265 310.156C209.276 310.156 208.474 309.758 207.859 308.961C207.25 308.164 206.945 307.078 206.945 305.703ZM208.398 305.867C208.398 306.82 208.593 307.57 208.984 308.117C209.375 308.659 209.922 308.93 210.625 308.93C211.536 308.93 212.205 308.516 212.633 307.688V303.828C212.19 303.021 211.526 302.617 210.64 302.617C209.937 302.617 209.388 302.891 208.992 303.438C208.596 303.984 208.398 304.794 208.398 305.867ZM221.972 309.164C221.409 309.826 220.584 310.156 219.495 310.156C218.594 310.156 217.907 309.896 217.433 309.375C216.964 308.849 216.727 308.073 216.722 307.047V301.547H218.167V307.008C218.167 308.289 218.688 308.93 219.73 308.93C220.834 308.93 221.568 308.518 221.933 307.695V301.547H223.378V310H222.003L221.972 309.164ZM231.28 310C231.197 309.833 231.129 309.536 231.077 309.109C230.405 309.807 229.603 310.156 228.671 310.156C227.837 310.156 227.152 309.922 226.616 309.453C226.085 308.979 225.819 308.38 225.819 307.656C225.819 306.776 226.152 306.094 226.819 305.609C227.491 305.12 228.434 304.875 229.647 304.875H231.053V304.211C231.053 303.706 230.902 303.305 230.6 303.008C230.298 302.706 229.853 302.555 229.264 302.555C228.749 302.555 228.316 302.685 227.967 302.945C227.619 303.206 227.444 303.521 227.444 303.891H225.991C225.991 303.469 226.139 303.062 226.436 302.672C226.738 302.276 227.145 301.964 227.655 301.734C228.171 301.505 228.736 301.391 229.35 301.391C230.324 301.391 231.087 301.635 231.639 302.125C232.191 302.609 232.478 303.279 232.499 304.133V308.023C232.499 308.799 232.598 309.417 232.796 309.875V310H231.28ZM228.882 308.898C229.335 308.898 229.764 308.781 230.171 308.547C230.577 308.312 230.871 308.008 231.053 307.633V305.898H229.921C228.15 305.898 227.264 306.417 227.264 307.453C227.264 307.906 227.415 308.26 227.717 308.516C228.02 308.771 228.408 308.898 228.882 308.898ZM239.33 302.844C239.112 302.807 238.875 302.789 238.619 302.789C237.671 302.789 237.028 303.193 236.69 304V310H235.244V301.547H236.651L236.674 302.523C237.148 301.768 237.82 301.391 238.69 301.391C238.971 301.391 239.184 301.427 239.33 301.5V302.844ZM240.638 305.703C240.638 304.406 240.946 303.365 241.56 302.578C242.175 301.786 242.98 301.391 243.974 301.391C244.964 301.391 245.748 301.729 246.326 302.406V298H247.771V310H246.443L246.373 309.094C245.795 309.802 244.99 310.156 243.959 310.156C242.98 310.156 242.18 309.755 241.56 308.953C240.946 308.151 240.638 307.104 240.638 305.812V305.703ZM242.084 305.867C242.084 306.826 242.282 307.576 242.678 308.117C243.073 308.659 243.62 308.93 244.318 308.93C245.235 308.93 245.904 308.518 246.326 307.695V303.812C245.894 303.016 245.23 302.617 244.334 302.617C243.625 302.617 243.073 302.891 242.678 303.438C242.282 303.984 242.084 304.794 242.084 305.867ZM254.009 310.156C252.863 310.156 251.931 309.781 251.212 309.031C250.493 308.276 250.134 307.268 250.134 306.008V305.742C250.134 304.904 250.293 304.156 250.611 303.5C250.934 302.839 251.381 302.323 251.954 301.953C252.533 301.578 253.158 301.391 253.829 301.391C254.928 301.391 255.783 301.753 256.392 302.477C257.001 303.201 257.306 304.237 257.306 305.586V306.188H251.579C251.6 307.021 251.842 307.695 252.306 308.211C252.775 308.721 253.368 308.977 254.087 308.977C254.598 308.977 255.03 308.872 255.384 308.664C255.738 308.456 256.048 308.18 256.314 307.836L257.197 308.523C256.488 309.612 255.426 310.156 254.009 310.156ZM253.829 302.578C253.246 302.578 252.756 302.792 252.361 303.219C251.965 303.641 251.72 304.234 251.626 305H255.861V304.891C255.819 304.156 255.621 303.589 255.267 303.188C254.913 302.781 254.434 302.578 253.829 302.578ZM50.8884 329.695C50.8884 328.867 51.0499 328.122 51.3728 327.461C51.7009 326.799 52.1541 326.289 52.7322 325.93C53.3155 325.57 53.9796 325.391 54.7244 325.391C55.8754 325.391 56.8051 325.789 57.5134 326.586C58.227 327.383 58.5837 328.443 58.5837 329.766V329.867C58.5837 330.69 58.4249 331.43 58.1072 332.086C57.7947 332.737 57.3442 333.245 56.7556 333.609C56.1723 333.974 55.5004 334.156 54.74 334.156C53.5942 334.156 52.6645 333.758 51.9509 332.961C51.2426 332.164 50.8884 331.109 50.8884 329.797V329.695ZM52.3416 329.867C52.3416 330.805 52.5577 331.557 52.99 332.125C53.4275 332.693 54.0108 332.977 54.74 332.977C55.4744 332.977 56.0577 332.69 56.49 332.117C56.9223 331.539 57.1384 330.732 57.1384 329.695C57.1384 328.768 56.9171 328.018 56.4744 327.445C56.0369 326.867 55.4535 326.578 54.7244 326.578C54.0108 326.578 53.4353 326.862 52.9978 327.43C52.5603 327.997 52.3416 328.81 52.3416 329.867ZM68.8328 334.156C67.687 334.156 66.7547 333.781 66.0359 333.031C65.3172 332.276 64.9578 331.268 64.9578 330.008V329.742C64.9578 328.904 65.1167 328.156 65.4344 327.5C65.7573 326.839 66.2052 326.323 66.7781 325.953C67.3562 325.578 67.9812 325.391 68.6531 325.391C69.7521 325.391 70.6062 325.753 71.2156 326.477C71.825 327.201 72.1297 328.237 72.1297 329.586V330.188H66.4031C66.424 331.021 66.6661 331.695 67.1297 332.211C67.5984 332.721 68.1922 332.977 68.9109 332.977C69.4214 332.977 69.8536 332.872 70.2078 332.664C70.562 332.456 70.8719 332.18 71.1375 331.836L72.0203 332.523C71.312 333.612 70.2495 334.156 68.8328 334.156ZM68.6531 326.578C68.0698 326.578 67.5802 326.792 67.1844 327.219C66.7885 327.641 66.5437 328.234 66.45 329H70.6844V328.891C70.6427 328.156 70.4448 327.589 70.0906 327.188C69.7365 326.781 69.2573 326.578 68.6531 326.578ZM75.6566 325.547L75.7034 326.609C76.3493 325.797 77.193 325.391 78.2347 325.391C80.0211 325.391 80.9222 326.398 80.9378 328.414V334H79.4925V328.406C79.4873 327.797 79.3467 327.346 79.0706 327.055C78.7998 326.763 78.3753 326.617 77.7972 326.617C77.3284 326.617 76.917 326.742 76.5628 326.992C76.2086 327.242 75.9326 327.57 75.7347 327.977V334H74.2894V325.547H75.6566ZM86.9881 332.977C87.5037 332.977 87.9543 332.82 88.3397 332.508C88.7251 332.195 88.9386 331.805 88.9803 331.336H90.3475C90.3215 331.82 90.1548 332.281 89.8475 332.719C89.5402 333.156 89.1287 333.505 88.6131 333.766C88.1027 334.026 87.561 334.156 86.9881 334.156C85.8371 334.156 84.9204 333.773 84.2381 333.008C83.561 332.237 83.2225 331.185 83.2225 329.852V329.609C83.2225 328.786 83.3735 328.055 83.6756 327.414C83.9777 326.773 84.41 326.276 84.9725 325.922C85.5402 325.568 86.2095 325.391 86.9803 325.391C87.9282 325.391 88.7147 325.674 89.3397 326.242C89.9699 326.81 90.3058 327.547 90.3475 328.453H88.9803C88.9386 327.906 88.7303 327.458 88.3553 327.109C87.9855 326.755 87.5272 326.578 86.9803 326.578C86.2459 326.578 85.6756 326.844 85.2694 327.375C84.8683 327.901 84.6678 328.664 84.6678 329.664V329.938C84.6678 330.911 84.8683 331.661 85.2694 332.188C85.6704 332.714 86.2433 332.977 86.9881 332.977ZM95.9603 334.156C94.8145 334.156 93.8822 333.781 93.1634 333.031C92.4447 332.276 92.0853 331.268 92.0853 330.008V329.742C92.0853 328.904 92.2442 328.156 92.5619 327.5C92.8848 326.839 93.3327 326.323 93.9056 325.953C94.4837 325.578 95.1087 325.391 95.7806 325.391C96.8796 325.391 97.7337 325.753 98.3431 326.477C98.9525 327.201 99.2572 328.237 99.2572 329.586V330.188H93.5306C93.5515 331.021 93.7936 331.695 94.2572 332.211C94.7259 332.721 95.3197 332.977 96.0384 332.977C96.5489 332.977 96.9811 332.872 97.3353 332.664C97.6895 332.456 97.9994 332.18 98.265 331.836L99.1478 332.523C98.4395 333.612 97.377 334.156 95.9603 334.156ZM95.7806 326.578C95.1973 326.578 94.7077 326.792 94.3119 327.219C93.916 327.641 93.6712 328.234 93.5775 329H97.8119V328.891C97.7702 328.156 97.5723 327.589 97.2181 327.188C96.864 326.781 96.3848 326.578 95.7806 326.578ZM105.503 326.844C105.284 326.807 105.047 326.789 104.792 326.789C103.844 326.789 103.201 327.193 102.862 328V334H101.417V325.547H102.823L102.847 326.523C103.321 325.768 103.992 325.391 104.862 325.391C105.143 325.391 105.357 325.427 105.503 325.5V326.844ZM111.405 326.844C111.186 326.807 110.949 326.789 110.694 326.789C109.746 326.789 109.103 327.193 108.764 328V334H107.319V325.547H108.725L108.748 326.523C109.222 325.768 109.894 325.391 110.764 325.391C111.045 325.391 111.259 325.427 111.405 325.5V326.844ZM118.127 334C118.044 333.833 117.976 333.536 117.924 333.109C117.252 333.807 116.45 334.156 115.518 334.156C114.684 334.156 113.999 333.922 113.463 333.453C112.932 332.979 112.666 332.38 112.666 331.656C112.666 330.776 112.999 330.094 113.666 329.609C114.338 329.12 115.281 328.875 116.494 328.875H117.9V328.211C117.9 327.706 117.749 327.305 117.447 327.008C117.145 326.706 116.7 326.555 116.111 326.555C115.596 326.555 115.163 326.685 114.814 326.945C114.465 327.206 114.291 327.521 114.291 327.891H112.838C112.838 327.469 112.986 327.062 113.283 326.672C113.585 326.276 113.991 325.964 114.502 325.734C115.018 325.505 115.583 325.391 116.197 325.391C117.171 325.391 117.934 325.635 118.486 326.125C119.038 326.609 119.325 327.279 119.346 328.133V332.023C119.346 332.799 119.445 333.417 119.643 333.875V334H118.127ZM115.728 332.898C116.182 332.898 116.611 332.781 117.018 332.547C117.424 332.312 117.718 332.008 117.9 331.633V329.898H116.768C114.997 329.898 114.111 330.417 114.111 331.453C114.111 331.906 114.262 332.26 114.564 332.516C114.866 332.771 115.254 332.898 115.728 332.898ZM123.451 325.547L123.49 326.484C124.109 325.755 124.945 325.391 125.997 325.391C127.18 325.391 127.984 325.844 128.412 326.75C128.693 326.344 129.057 326.016 129.505 325.766C129.958 325.516 130.492 325.391 131.107 325.391C132.961 325.391 133.904 326.372 133.935 328.336V334H132.49V328.422C132.49 327.818 132.352 327.367 132.076 327.07C131.8 326.768 131.336 326.617 130.685 326.617C130.149 326.617 129.703 326.779 129.349 327.102C128.995 327.419 128.789 327.849 128.732 328.391V334H127.279V328.461C127.279 327.232 126.677 326.617 125.474 326.617C124.526 326.617 123.878 327.021 123.529 327.828V334H122.083V325.547H123.451ZM140.11 334.156C138.964 334.156 138.032 333.781 137.313 333.031C136.595 332.276 136.235 331.268 136.235 330.008V329.742C136.235 328.904 136.394 328.156 136.712 327.5C137.035 326.839 137.483 326.323 138.056 325.953C138.634 325.578 139.259 325.391 139.931 325.391C141.03 325.391 141.884 325.753 142.493 326.477C143.103 327.201 143.407 328.237 143.407 329.586V330.188H137.681C137.701 331.021 137.944 331.695 138.407 332.211C138.876 332.721 139.47 332.977 140.188 332.977C140.699 332.977 141.131 332.872 141.485 332.664C141.839 332.456 142.149 332.18 142.415 331.836L143.298 332.523C142.589 333.612 141.527 334.156 140.11 334.156ZM139.931 326.578C139.347 326.578 138.858 326.792 138.462 327.219C138.066 327.641 137.821 328.234 137.728 329H141.962V328.891C141.92 328.156 141.722 327.589 141.368 327.188C141.014 326.781 140.535 326.578 139.931 326.578ZM146.934 325.547L146.981 326.609C147.627 325.797 148.471 325.391 149.512 325.391C151.299 325.391 152.2 326.398 152.215 328.414V334H150.77V328.406C150.765 327.797 150.624 327.346 150.348 327.055C150.077 326.763 149.653 326.617 149.075 326.617C148.606 326.617 148.194 326.742 147.84 326.992C147.486 327.242 147.21 327.57 147.012 327.977V334H145.567V325.547H146.934ZM156.836 323.5V325.547H158.414V326.664H156.836V331.906C156.836 332.245 156.906 332.5 157.047 332.672C157.188 332.839 157.427 332.922 157.766 332.922C157.932 332.922 158.161 332.891 158.453 332.828V334C158.073 334.104 157.703 334.156 157.344 334.156C156.698 334.156 156.211 333.961 155.883 333.57C155.555 333.18 155.391 332.625 155.391 331.906V326.664H153.852V325.547H155.391V323.5H156.836ZM160.05 329.695C160.05 328.867 160.212 328.122 160.535 327.461C160.863 326.799 161.316 326.289 161.894 325.93C162.477 325.57 163.141 325.391 163.886 325.391C165.037 325.391 165.967 325.789 166.675 326.586C167.389 327.383 167.746 328.443 167.746 329.766V329.867C167.746 330.69 167.587 331.43 167.269 332.086C166.957 332.737 166.506 333.245 165.917 333.609C165.334 333.974 164.662 334.156 163.902 334.156C162.756 334.156 161.826 333.758 161.113 332.961C160.404 332.164 160.05 331.109 160.05 329.797V329.695ZM161.503 329.867C161.503 330.805 161.72 331.557 162.152 332.125C162.589 332.693 163.173 332.977 163.902 332.977C164.636 332.977 165.22 332.69 165.652 332.117C166.084 331.539 166.3 330.732 166.3 329.695C166.3 328.768 166.079 328.018 165.636 327.445C165.199 326.867 164.615 326.578 163.886 326.578C163.173 326.578 162.597 326.862 162.16 327.43C161.722 327.997 161.503 328.81 161.503 329.867ZM174.135 329.703C174.135 328.406 174.443 327.365 175.057 326.578C175.672 325.786 176.476 325.391 177.471 325.391C178.461 325.391 179.245 325.729 179.823 326.406V322H181.268V334H179.94L179.87 333.094C179.292 333.802 178.487 334.156 177.456 334.156C176.476 334.156 175.677 333.755 175.057 332.953C174.443 332.151 174.135 331.104 174.135 329.812V329.703ZM175.581 329.867C175.581 330.826 175.779 331.576 176.174 332.117C176.57 332.659 177.117 332.93 177.815 332.93C178.732 332.93 179.401 332.518 179.823 331.695V327.812C179.391 327.016 178.726 326.617 177.831 326.617C177.122 326.617 176.57 326.891 176.174 327.438C175.779 327.984 175.581 328.794 175.581 329.867ZM183.615 329.695C183.615 328.867 183.777 328.122 184.1 327.461C184.428 326.799 184.881 326.289 185.459 325.93C186.042 325.57 186.706 325.391 187.451 325.391C188.602 325.391 189.532 325.789 190.24 326.586C190.954 327.383 191.311 328.443 191.311 329.766V329.867C191.311 330.69 191.152 331.43 190.834 332.086C190.522 332.737 190.071 333.245 189.482 333.609C188.899 333.974 188.227 334.156 187.467 334.156C186.321 334.156 185.391 333.758 184.678 332.961C183.969 332.164 183.615 331.109 183.615 329.797V329.695ZM185.068 329.867C185.068 330.805 185.285 331.557 185.717 332.125C186.154 332.693 186.738 332.977 187.467 332.977C188.201 332.977 188.785 332.69 189.217 332.117C189.649 331.539 189.865 330.732 189.865 329.695C189.865 328.768 189.644 328.018 189.201 327.445C188.764 326.867 188.18 326.578 187.451 326.578C186.738 326.578 186.162 326.862 185.725 327.43C185.287 327.997 185.068 328.81 185.068 329.867ZM199.622 334H198.177V322H199.622V334ZM205.93 334.156C204.784 334.156 203.852 333.781 203.133 333.031C202.415 332.276 202.055 331.268 202.055 330.008V329.742C202.055 328.904 202.214 328.156 202.532 327.5C202.855 326.839 203.303 326.323 203.876 325.953C204.454 325.578 205.079 325.391 205.751 325.391C206.85 325.391 207.704 325.753 208.313 326.477C208.922 327.201 209.227 328.237 209.227 329.586V330.188H203.501C203.521 331.021 203.764 331.695 204.227 332.211C204.696 332.721 205.29 332.977 206.008 332.977C206.519 332.977 206.951 332.872 207.305 332.664C207.659 332.456 207.969 332.18 208.235 331.836L209.118 332.523C208.409 333.612 207.347 334.156 205.93 334.156ZM205.751 326.578C205.167 326.578 204.678 326.792 204.282 327.219C203.886 327.641 203.641 328.234 203.547 329H207.782V328.891C207.74 328.156 207.542 327.589 207.188 327.188C206.834 326.781 206.355 326.578 205.751 326.578ZM212.957 334H211.512V325.547H212.957V334ZM211.395 323.305C211.395 323.07 211.465 322.872 211.606 322.711C211.751 322.549 211.965 322.469 212.246 322.469C212.527 322.469 212.741 322.549 212.887 322.711C213.033 322.872 213.106 323.07 213.106 323.305C213.106 323.539 213.033 323.734 212.887 323.891C212.741 324.047 212.527 324.125 212.246 324.125C211.965 324.125 211.751 324.047 211.606 323.891C211.465 323.734 211.395 323.539 211.395 323.305ZM217.328 334H215.883V322H217.328V334ZM225.347 334C225.264 333.833 225.196 333.536 225.144 333.109C224.472 333.807 223.67 334.156 222.737 334.156C221.904 334.156 221.219 333.922 220.683 333.453C220.152 332.979 219.886 332.38 219.886 331.656C219.886 330.776 220.219 330.094 220.886 329.609C221.558 329.12 222.501 328.875 223.714 328.875H225.12V328.211C225.12 327.706 224.969 327.305 224.667 327.008C224.365 326.706 223.92 326.555 223.331 326.555C222.816 326.555 222.383 326.685 222.034 326.945C221.685 327.206 221.511 327.521 221.511 327.891H220.058C220.058 327.469 220.206 327.062 220.503 326.672C220.805 326.276 221.211 325.964 221.722 325.734C222.237 325.505 222.803 325.391 223.417 325.391C224.391 325.391 225.154 325.635 225.706 326.125C226.258 326.609 226.545 327.279 226.566 328.133V332.023C226.566 332.799 226.665 333.417 226.862 333.875V334H225.347ZM222.948 332.898C223.402 332.898 223.831 332.781 224.237 332.547C224.644 332.312 224.938 332.008 225.12 331.633V329.898H223.987C222.217 329.898 221.331 330.417 221.331 331.453C221.331 331.906 221.482 332.26 221.784 332.516C222.086 332.771 222.474 332.898 222.948 332.898ZM226.347 322.25C226.347 322.812 226.185 323.268 225.862 323.617C225.545 323.966 225.146 324.141 224.667 324.141C224.454 324.141 224.269 324.115 224.112 324.062C223.956 324.01 223.751 323.904 223.495 323.742C223.245 323.581 223.063 323.484 222.948 323.453C222.839 323.417 222.711 323.398 222.566 323.398C222.352 323.398 222.17 323.482 222.019 323.648C221.868 323.81 221.792 324.018 221.792 324.273L220.823 324.219C220.823 323.661 220.98 323.201 221.292 322.836C221.61 322.471 222.011 322.289 222.495 322.289C222.678 322.289 222.842 322.315 222.987 322.367C223.133 322.419 223.331 322.521 223.581 322.672C223.831 322.823 224.021 322.922 224.152 322.969C224.287 323.016 224.435 323.039 224.597 323.039C224.821 323.039 225.006 322.951 225.152 322.773C225.303 322.596 225.378 322.391 225.378 322.156L226.347 322.25ZM228.928 329.695C228.928 328.867 229.09 328.122 229.413 327.461C229.741 326.799 230.194 326.289 230.772 325.93C231.356 325.57 232.02 325.391 232.764 325.391C233.915 325.391 234.845 325.789 235.553 326.586C236.267 327.383 236.624 328.443 236.624 329.766V329.867C236.624 330.69 236.465 331.43 236.147 332.086C235.835 332.737 235.384 333.245 234.796 333.609C234.212 333.974 233.54 334.156 232.78 334.156C231.634 334.156 230.704 333.758 229.991 332.961C229.283 332.164 228.928 331.109 228.928 329.797V329.695ZM230.382 329.867C230.382 330.805 230.598 331.557 231.03 332.125C231.467 332.693 232.051 332.977 232.78 332.977C233.514 332.977 234.098 332.69 234.53 332.117C234.962 331.539 235.178 330.732 235.178 329.695C235.178 328.768 234.957 328.018 234.514 327.445C234.077 326.867 233.494 326.578 232.764 326.578C232.051 326.578 231.475 326.862 231.038 327.43C230.6 327.997 230.382 328.81 230.382 329.867Z" fill="#434343"/>
<ellipse opacity="0.05" cx="139.5" cy="213.218" rx="88.5" ry="7.94314" fill="#333333"/>
<path d="M176.34 153.794H152.826V154.063C151.13 154.672 149.903 156.267 149.903 158.166V202.764C149.903 207.208 146.275 210.81 141.8 210.81H128.572V215.182H168.238C175.131 215.182 180.726 209.627 180.726 202.782V158.166C180.744 155.747 178.777 153.794 176.34 153.794Z" fill="#CCDBFF"/>
<path d="M168.238 215.182H155.01V210.81H168.238C172.713 210.81 176.341 207.208 176.341 202.764V158.166C176.341 155.747 178.308 153.794 180.744 153.794V202.764C180.744 209.627 175.149 215.182 168.238 215.182Z" fill="#8CADFF"/>
<path d="M93.3169 191.213H224.683C226.512 191.213 228 189.791 228 188.043V107.314C228 105.566 226.512 104.144 224.683 104.144H93.3169C91.4881 104.144 90 105.566 90 107.314V188.043C90.0179 189.791 91.4881 191.213 93.3169 191.213Z" fill="#8CADFF"/>
<path d="M90.2234 195.364H222.449C224.29 195.364 225.788 193.877 225.788 192.049V107.315C225.788 105.487 224.29 104 222.449 104H90.2234C88.3826 104 86.8848 105.487 86.8848 107.315V192.049C86.9028 193.877 88.3826 195.364 90.2234 195.364Z" fill="#CCDBFF"/>
<path d="M222.339 191.605L222.339 107.425L90.673 107.425L90.673 191.605L222.339 191.605Z" fill="#37384F"/>
<path d="M150.972 206.958H86.6184C86.5101 206.976 86.4018 206.976 86.2935 206.994L61.8768 210.792C60.7941 210.953 60 211.885 60 212.978C60 214.197 60.9925 215.182 62.2197 215.182H150.972C152.163 215.128 153.119 214.161 153.119 212.978V209.18C153.101 207.943 152.145 206.994 150.972 206.958Z" fill="#CCDBFF"/>
<path d="M150.539 206.975L126.122 210.774C125.039 210.935 124.245 211.867 124.245 212.96C124.245 214.178 125.238 215.164 126.465 215.164H150.882C152.109 215.164 153.101 214.178 153.101 212.96V209.161C153.101 207.799 151.892 206.76 150.539 206.975Z" fill="#8CADFF"/>
<path d="M188.323 148.078H124.349V149.1H188.323V148.078Z" fill="#CCDBFF"/>
<path d="M173.706 126.057H138.985V127.078H173.706V126.057Z" fill="#CCDBFF"/>
<path d="M170.096 128.584H144.398V129.605H170.096V128.584Z" fill="#CCDBFF"/>
<path d="M188.323 151.519H124.349V152.54H188.323V151.519Z" fill="#CCDBFF"/>
<path d="M188.323 154.977H124.349V155.998H188.323V154.977Z" fill="#CCDBFF"/>
<path d="M188.323 158.417H124.349V159.439H188.323V158.417Z" fill="#CCDBFF"/>
<path d="M188.323 162.055H124.349V163.076H188.323V162.055Z" fill="#CCDBFF"/>
<path d="M188.323 165.495H124.349V166.516H188.323V165.495Z" fill="#CCDBFF"/>
<path d="M188.323 168.953H124.349V169.974H188.323V168.953Z" fill="#CCDBFF"/>
<path d="M188.323 172.393H124.349V173.415H188.323V172.393Z" fill="#CCDBFF"/>
<path d="M189.514 139.639H123.176V144.119H189.514V139.639Z" fill="#CCDBFF"/>
<path d="M222.16 107.422H90.6565V116.31H222.16V107.422Z" fill="#DFE1E5"/>
<path d="M110.543 110.128H93.8687V112.941H110.543V110.128Z" fill="#37384F"/>
<path d="M163.004 110.415H146.329V113.228H163.004V110.415Z" fill="#37384F"/>
<path d="M195.56 111.615H183.469V112.404H195.56V111.615Z" fill="#37384F"/>
<path d="M208.842 111.615H196.751V112.404H208.842V111.615Z" fill="#37384F"/>
<path d="M216.385 114.428C217.84 114.428 219.02 113.257 219.02 111.812C219.02 110.367 217.84 109.196 216.385 109.196C214.93 109.196 213.75 110.367 213.75 111.812C213.75 113.257 214.93 114.428 216.385 114.428Z" fill="#37384F"/>
</svg>
