<svg width="23" height="22" viewBox="0 0 23 22" fill="none" xmlns="http://www.w3.org/2000/svg">
<path d="M11.192 1.82113e-07C9.01931 1.91115e-07 6.89545 0.644288 5.08895 1.85138C3.28246 3.05847 1.87445 4.77413 1.04305 6.78143C0.211654 8.78874 -0.00588641 10.9975 0.418053 13.1284C0.841993 15.2593 1.88839 17.2167 3.42477 18.7529C4.96115 20.2892 6.91858 21.3353 9.04952 21.759C11.1805 22.1828 13.3892 21.9651 15.3964 21.1335C17.4037 20.302 19.1192 18.8938 20.3261 17.0872C21.5331 15.2806 22.1772 13.1567 22.177 10.984C22.1771 9.54145 21.893 8.11298 21.341 6.78021C20.789 5.44745 19.9799 4.23649 18.9598 3.21649C17.9397 2.19649 16.7287 1.38746 15.3958 0.835571C14.063 0.283679 12.6345 -0.000262514 11.192 1.82113e-07ZM8.634 17.924C7.59207 17.2104 6.74317 16.2496 6.16329 15.1277C5.58341 14.0059 5.29062 12.7577 5.311 11.495C5.311 7.395 8.32095 4.04297 12.0109 4.04297C12.8505 4.04999 13.6803 4.22428 14.4517 4.55566C15.2232 4.88705 15.9209 5.36886 16.504 5.97296C15.5972 5.50978 14.5951 5.26401 13.577 5.255C11.9083 5.26331 10.3085 5.92109 9.11654 7.08893C7.92462 8.25677 7.23433 9.84284 7.19198 11.511V14.034C7.22186 15.4559 7.72986 16.8262 8.634 17.924ZM16.671 16.661H13.5789C13.2152 16.6669 12.8542 16.5973 12.5186 16.4569C12.1831 16.3165 11.8802 16.1081 11.629 15.845C11.3707 15.5926 11.1661 15.2908 11.0274 14.9574C10.8888 14.624 10.8189 14.266 10.822 13.905V11.637C10.8186 11.276 10.8882 10.9182 11.0269 10.5849C11.1656 10.2516 11.3705 9.94993 11.629 9.698C11.8814 9.43947 12.183 9.23401 12.516 9.09375C12.8489 8.95349 13.2066 8.88123 13.568 8.88123C13.9293 8.88123 14.287 8.95349 14.62 9.09375C14.9529 9.23401 15.2545 9.43947 15.5069 9.698C15.7663 9.94929 15.9717 10.2509 16.1104 10.5843C16.2492 10.9177 16.3184 11.2759 16.3139 11.637V13.905C16.3087 14.1428 16.3519 14.3792 16.441 14.5997C16.5301 14.8203 16.6631 15.0205 16.832 15.188C16.859 15.216 16.8879 15.243 16.9179 15.269C16.9944 15.3762 17.0487 15.4977 17.0777 15.6262C17.1067 15.7547 17.1099 15.8876 17.0869 16.0173C17.0639 16.147 17.0152 16.2708 16.9438 16.3815C16.8724 16.4922 16.7797 16.5876 16.671 16.662V16.661Z" fill="#EDEDED"/>
</svg>
