<svg width="24" height="24" viewBox="0 0 24 24" fill="none" xmlns="http://www.w3.org/2000/svg">
<path fill-rule="evenodd" clip-rule="evenodd" d="M24 12C24 18.6274 18.6274 24 12 24C5.37258 24 0 18.6274 0 12C0 5.37258 5.37258 0 12 0C18.6274 0 24 5.37258 24 12ZM12.3926 18.6763H12.3955C16.3297 18.6747 19.5295 15.4741 19.5311 11.5408C19.5318 9.63417 18.7903 7.84141 17.4431 6.49271C16.0959 5.14393 14.3043 4.40082 12.3955 4.4C8.46241 4.4 5.26139 7.60085 5.25982 11.5351C5.25929 12.7927 5.58787 14.0203 6.21231 15.1024L5.2 18.8L8.98267 17.8077C10.0249 18.3762 11.1984 18.6758 12.3926 18.6763Z" fill="white"/>
<path fill-rule="evenodd" clip-rule="evenodd" d="M9.3745 16.6445L9.15793 16.5159L6.91324 17.1048L7.51238 14.9162L7.37137 14.6918C6.77768 13.7476 6.46413 12.6562 6.46459 11.5355C6.46589 8.26556 9.12646 5.60522 12.3979 5.60522C13.982 5.60577 15.4711 6.22345 16.5908 7.3445C17.7106 8.46555 18.3269 9.95561 18.3263 11.5403C18.325 14.8106 15.6644 17.4712 12.3955 17.4712H12.3931C11.3289 17.4708 10.2851 17.1848 9.3745 16.6445ZM15.7462 13.077C15.8706 13.1371 15.9545 13.1777 15.9904 13.2375C16.0349 13.3119 16.0349 13.6688 15.8864 14.0854C15.7378 14.5019 15.0255 14.882 14.6829 14.9331C14.3758 14.9791 13.9871 14.9982 13.56 14.8625C13.301 14.7803 12.9689 14.6706 12.5436 14.4869C10.8721 13.7652 9.74252 12.1452 9.52903 11.839C9.51407 11.8175 9.50361 11.8025 9.49778 11.7947L9.49634 11.7928C9.40199 11.6669 8.76976 10.8234 8.76976 9.95035C8.76976 9.12909 9.17318 8.69862 9.35887 8.50047C9.3716 8.4869 9.3833 8.47441 9.39378 8.46297C9.5572 8.28447 9.75037 8.23984 9.86922 8.23984C9.98807 8.23984 10.1071 8.24094 10.2109 8.24616C10.2238 8.2468 10.2371 8.24673 10.2509 8.24664C10.3548 8.24604 10.4843 8.24528 10.6121 8.55222C10.6612 8.67034 10.7332 8.84544 10.809 9.03013C10.9625 9.40365 11.132 9.81635 11.1618 9.87607C11.2064 9.96532 11.2361 10.0694 11.1767 10.1884C11.1677 10.2063 11.1595 10.2231 11.1516 10.2392C11.107 10.3304 11.0741 10.3974 10.9984 10.4859C10.9686 10.5206 10.9378 10.5581 10.907 10.5956C10.8457 10.6703 10.7843 10.745 10.7309 10.7982C10.6417 10.8871 10.5488 10.9836 10.6528 11.1621C10.7568 11.3406 11.1146 11.9244 11.6446 12.3972C12.2144 12.9054 12.7096 13.1202 12.9606 13.2291C13.0096 13.2503 13.0493 13.2676 13.0784 13.2822C13.2567 13.3714 13.3607 13.3565 13.4647 13.2375C13.5687 13.1185 13.9104 12.7169 14.0292 12.5384C14.1481 12.36 14.267 12.3897 14.4304 12.4492C14.5938 12.5088 15.4704 12.94 15.6487 13.0293C15.6835 13.0467 15.716 13.0624 15.7462 13.077Z" fill="white"/>
</svg>
